%TF.GenerationSoftware,KiCad,Pcbnew,10.0.5-1.fc44*%
%TF.CreationDate,2026-08-16T20:11:26+05:30*%
%TF.ProjectId,esp32_hw130_adapter,65737033-325f-4687-9731-33305f616461,rev?*%
%TF.SameCoordinates,Original*%
%TF.FileFunction,Copper,L2,Bot*%
%TF.FilePolarity,Positive*%
%FSLAX46Y46*%
G04 Gerber Fmt 4.6, Leading zero omitted, Abs format (unit mm)*
G04 Created by KiCad (PCBNEW 10.0.5-1.fc44) date 2026-08-16 20:11:26*
%MOMM*%
%LPD*%
G01*
G04 APERTURE LIST*
G04 Aperture macros list*
%AMRoundRect*
0 Rectangle with rounded corners*
0 $1 Rounding radius*
0 $2 $3 $4 $5 $6 $7 $8 $9 X,Y pos of 4 corners*
0 Add a 4 corners polygon primitive as box body*
4,1,4,$2,$3,$4,$5,$6,$7,$8,$9,$2,$3,0*
0 Add four circle primitives for the rounded corners*
1,1,$1+$1,$2,$3*
1,1,$1+$1,$4,$5*
1,1,$1+$1,$6,$7*
1,1,$1+$1,$8,$9*
0 Add four rect primitives between the rounded corners*
20,1,$1+$1,$2,$3,$4,$5,0*
20,1,$1+$1,$4,$5,$6,$7,0*
20,1,$1+$1,$6,$7,$8,$9,0*
20,1,$1+$1,$8,$9,$2,$3,0*%
G04 Aperture macros list end*
%TA.AperFunction,ComponentPad*%
%ADD10R,1.600000X1.600000*%
%TD*%
%TA.AperFunction,ComponentPad*%
%ADD11O,1.600000X1.600000*%
%TD*%
%TA.AperFunction,ComponentPad*%
%ADD12R,1.700000X1.700000*%
%TD*%
%TA.AperFunction,ComponentPad*%
%ADD13C,1.700000*%
%TD*%
%TA.AperFunction,ComponentPad*%
%ADD14RoundRect,0.250000X-1.050000X-1.050000X1.050000X-1.050000X1.050000X1.050000X-1.050000X1.050000X0*%
%TD*%
%TA.AperFunction,ComponentPad*%
%ADD15C,2.600000*%
%TD*%
%TA.AperFunction,ViaPad*%
%ADD16C,0.800000*%
%TD*%
%TA.AperFunction,Conductor*%
%ADD17C,0.350000*%
%TD*%
G04 APERTURE END LIST*
D10*
%TO.P,J_SHIELD,1*%
%TO.N,NC_NC*%
X40000000Y-30000000D03*
D11*
%TO.P,J_SHIELD,2*%
%TO.N,NC_IOREF*%
X42540000Y-30000000D03*
%TO.P,J_SHIELD,3*%
%TO.N,NC_RESET*%
X45080000Y-30000000D03*
%TO.P,J_SHIELD,4*%
%TO.N,NC_3V3*%
X47620000Y-30000000D03*
%TO.P,J_SHIELD,5*%
%TO.N,P5V*%
X50160000Y-30000000D03*
%TO.P,J_SHIELD,6*%
%TO.N,GND*%
X52700000Y-30000000D03*
%TO.P,J_SHIELD,7*%
X55240000Y-30000000D03*
%TO.P,J_SHIELD,8*%
%TO.N,NC_VIN*%
X57780000Y-30000000D03*
%TO.P,J_SHIELD,9*%
%TO.N,NC_A0*%
X62860000Y-30000000D03*
%TO.P,J_SHIELD,10*%
%TO.N,NC_A1*%
X65400000Y-30000000D03*
%TO.P,J_SHIELD,11*%
%TO.N,NC_A2*%
X67940000Y-30000000D03*
%TO.P,J_SHIELD,12*%
%TO.N,NC_A3*%
X70480000Y-30000000D03*
%TO.P,J_SHIELD,13*%
%TO.N,NC_A4*%
X73020000Y-30000000D03*
%TO.P,J_SHIELD,14*%
%TO.N,NC_A5*%
X75560000Y-30000000D03*
%TO.P,J_SHIELD,15*%
%TO.N,NC_D0*%
X75560000Y-78260000D03*
%TO.P,J_SHIELD,16*%
%TO.N,NC_D1*%
X73020000Y-78260000D03*
%TO.P,J_SHIELD,17*%
%TO.N,NC_D2*%
X70480000Y-78260000D03*
%TO.P,J_SHIELD,18*%
%TO.N,GPIO26*%
X67940000Y-78260000D03*
%TO.P,J_SHIELD,19*%
%TO.N,GPIO19*%
X65400000Y-78260000D03*
%TO.P,J_SHIELD,20*%
%TO.N,GPIO32*%
X62860000Y-78260000D03*
%TO.P,J_SHIELD,21*%
%TO.N,GPIO27*%
X60320000Y-78260000D03*
%TO.P,J_SHIELD,22*%
%TO.N,GPIO23*%
X57780000Y-78260000D03*
%TO.P,J_SHIELD,23*%
%TO.N,GPIO13*%
X53720000Y-78260000D03*
%TO.P,J_SHIELD,24*%
%TO.N,NC_D9*%
X51180000Y-78260000D03*
%TO.P,J_SHIELD,25*%
%TO.N,GPIO33*%
X48640000Y-78260000D03*
%TO.P,J_SHIELD,26*%
%TO.N,GPIO25*%
X46100000Y-78260000D03*
%TO.P,J_SHIELD,27*%
%TO.N,GPIO18*%
X43560000Y-78260000D03*
%TO.P,J_SHIELD,28*%
%TO.N,NC_D13*%
X41020000Y-78260000D03*
%TO.P,J_SHIELD,29*%
%TO.N,GND*%
X38480000Y-78260000D03*
%TO.P,J_SHIELD,30*%
%TO.N,NC_AREF*%
X35940000Y-78260000D03*
%TO.P,J_SHIELD,31*%
%TO.N,NC_SDA*%
X33400000Y-78260000D03*
%TO.P,J_SHIELD,32*%
%TO.N,NC_SCL*%
X30860000Y-78260000D03*
%TD*%
D12*
%TO.P,J_ESP_L,1*%
%TO.N,ESP_3V3*%
X88915000Y-33185000D03*
D13*
%TO.P,J_ESP_L,2*%
%TO.N,EN*%
X88915000Y-35725000D03*
%TO.P,J_ESP_L,3*%
%TO.N,SVP*%
X88915000Y-38265000D03*
%TO.P,J_ESP_L,4*%
%TO.N,SVN*%
X88915000Y-40805000D03*
%TO.P,J_ESP_L,5*%
%TO.N,GPIO34*%
X88915000Y-43345000D03*
%TO.P,J_ESP_L,6*%
%TO.N,GPIO35*%
X88915000Y-45885000D03*
%TO.P,J_ESP_L,7*%
%TO.N,GPIO32*%
X88915000Y-48425000D03*
%TO.P,J_ESP_L,8*%
%TO.N,GPIO33*%
X88915000Y-50965000D03*
%TO.P,J_ESP_L,9*%
%TO.N,GPIO25*%
X88915000Y-53505000D03*
%TO.P,J_ESP_L,10*%
%TO.N,GPIO26*%
X88915000Y-56045000D03*
%TO.P,J_ESP_L,11*%
%TO.N,GPIO27*%
X88915000Y-58585000D03*
%TO.P,J_ESP_L,12*%
%TO.N,GPIO14*%
X88915000Y-61125000D03*
%TO.P,J_ESP_L,13*%
%TO.N,GPIO12*%
X88915000Y-63665000D03*
%TO.P,J_ESP_L,14*%
%TO.N,GND*%
X88915000Y-66205000D03*
%TO.P,J_ESP_L,15*%
%TO.N,GPIO13*%
X88915000Y-68745000D03*
%TD*%
D14*
%TO.P,J_5V,1*%
%TO.N,P5V*%
X10434999Y-89075000D03*
D15*
%TO.P,J_5V,2*%
%TO.N,GND*%
X15514999Y-89075000D03*
%TD*%
D12*
%TO.P,J_ESP_R,1*%
%TO.N,GPIO23*%
X114315000Y-33185000D03*
D13*
%TO.P,J_ESP_R,2*%
%TO.N,GPIO22*%
X114315000Y-35725000D03*
%TO.P,J_ESP_R,3*%
%TO.N,TX0*%
X114315000Y-38265000D03*
%TO.P,J_ESP_R,4*%
%TO.N,RX0*%
X114315000Y-40805000D03*
%TO.P,J_ESP_R,5*%
%TO.N,GPIO21*%
X114315000Y-43345000D03*
%TO.P,J_ESP_R,6*%
%TO.N,GND*%
X114315000Y-45885000D03*
%TO.P,J_ESP_R,7*%
%TO.N,GPIO19*%
X114315000Y-48425000D03*
%TO.P,J_ESP_R,8*%
%TO.N,GPIO18*%
X114315000Y-50965000D03*
%TO.P,J_ESP_R,9*%
%TO.N,GPIO5*%
X114315000Y-53505000D03*
%TO.P,J_ESP_R,10*%
%TO.N,GPIO17*%
X114315000Y-56045000D03*
%TO.P,J_ESP_R,11*%
%TO.N,GPIO16*%
X114315000Y-58585000D03*
%TO.P,J_ESP_R,12*%
%TO.N,GPIO4*%
X114315000Y-61125000D03*
%TO.P,J_ESP_R,13*%
%TO.N,GPIO0*%
X114315000Y-63665000D03*
%TO.P,J_ESP_R,14*%
%TO.N,GPIO2*%
X114315000Y-66205000D03*
%TO.P,J_ESP_R,15*%
%TO.N,GPIO15*%
X114315000Y-68745000D03*
%TD*%
D16*
%TO.N,GPIO26*%
X82915000Y-87615000D03*
X82915000Y-56045000D03*
X67940000Y-87615000D03*
%TO.N,GPIO19*%
X65400000Y-93965000D03*
X118815000Y-93965000D03*
X118815000Y-48425000D03*
%TO.N,GPIO32*%
X79915000Y-90155000D03*
X62860000Y-90155000D03*
X79915000Y-48425000D03*
%TO.N,GPIO27*%
X81415000Y-88885000D03*
X81415000Y-58585000D03*
X60320000Y-88885000D03*
%TO.N,GPIO23*%
X120315000Y-33185000D03*
X57780000Y-95235000D03*
X120315000Y-95235000D03*
%TO.N,GPIO13*%
X85915000Y-68745000D03*
X53720000Y-85075000D03*
X85915000Y-85075000D03*
%TO.N,GPIO33*%
X48640000Y-91425000D03*
X78415000Y-50965000D03*
X78415000Y-91425000D03*
%TO.N,GPIO25*%
X84415000Y-86345000D03*
X84415000Y-53505000D03*
X46100000Y-86345000D03*
%TO.N,GPIO18*%
X117315000Y-92695000D03*
X43560000Y-92695000D03*
X117315000Y-50965000D03*
%TD*%
%TO.N,GPIO26*%
D17*
X82915000Y-56045000D02*
X88915000Y-56045000D01*
X67940000Y-87615000D02*
X82915000Y-87615000D01*
%TO.N,GPIO19*%
X65400000Y-93965000D02*
X118815000Y-93965000D01*
X118815000Y-48425000D02*
X114315000Y-48425000D01*
%TO.N,GPIO32*%
X62860000Y-90155000D02*
X79915000Y-90155000D01*
X79915000Y-48425000D02*
X88915000Y-48425000D01*
%TO.N,GPIO27*%
X60320000Y-88885000D02*
X81415000Y-88885000D01*
X81415000Y-58585000D02*
X88915000Y-58585000D01*
%TO.N,GPIO23*%
X120315000Y-33185000D02*
X114315000Y-33185000D01*
X57780000Y-95235000D02*
X120315000Y-95235000D01*
%TO.N,GPIO13*%
X53720000Y-85075000D02*
X85915000Y-85075000D01*
X85915000Y-68745000D02*
X88915000Y-68745000D01*
%TO.N,GPIO33*%
X48640000Y-91425000D02*
X78415000Y-91425000D01*
X78415000Y-50965000D02*
X88915000Y-50965000D01*
%TO.N,GPIO25*%
X46100000Y-86345000D02*
X84415000Y-86345000D01*
X84415000Y-53505000D02*
X88915000Y-53505000D01*
%TO.N,GPIO18*%
X43560000Y-92695000D02*
X117315000Y-92695000D01*
X117315000Y-50965000D02*
X114315000Y-50965000D01*
%TD*%
%TA.AperFunction,Conductor*%
%TO.N,GND*%
G36*
X123757539Y-21705185D02*
G01*
X123803294Y-21757989D01*
X123814500Y-21809500D01*
X123814500Y-114270500D01*
X123794815Y-114337539D01*
X123742011Y-114383294D01*
X123690500Y-114394500D01*
X4059499Y-114394500D01*
X3992460Y-114374815D01*
X3946705Y-114322011D01*
X3935499Y-114270500D01*
X3935499Y-92616153D01*
X42759500Y-92616153D01*
X42759500Y-92773846D01*
X42790261Y-92928489D01*
X42790264Y-92928501D01*
X42850602Y-93074172D01*
X42850609Y-93074185D01*
X42938210Y-93205288D01*
X42938213Y-93205292D01*
X43049707Y-93316786D01*
X43049711Y-93316789D01*
X43180814Y-93404390D01*
X43180827Y-93404397D01*
X43302288Y-93454707D01*
X43326503Y-93464737D01*
X43481153Y-93495499D01*
X43481156Y-93495500D01*
X43481158Y-93495500D01*
X43638844Y-93495500D01*
X43638845Y-93495499D01*
X43793497Y-93464737D01*
X43906166Y-93418067D01*
X43939172Y-93404397D01*
X43939172Y-93404396D01*
X43939179Y-93404394D01*
X44070289Y-93316789D01*
X44070292Y-93316786D01*
X44080260Y-93306819D01*
X44141583Y-93273334D01*
X44167941Y-93270500D01*
X64669309Y-93270500D01*
X64736348Y-93290185D01*
X64782103Y-93342989D01*
X64792047Y-93412147D01*
X64772411Y-93463391D01*
X64690609Y-93585814D01*
X64690602Y-93585827D01*
X64630264Y-93731498D01*
X64630261Y-93731510D01*
X64599500Y-93886153D01*
X64599500Y-94043846D01*
X64630261Y-94198489D01*
X64630264Y-94198501D01*
X64690602Y-94344172D01*
X64690609Y-94344185D01*
X64772411Y-94466609D01*
X64793289Y-94533286D01*
X64774805Y-94600667D01*
X64722826Y-94647357D01*
X64669309Y-94659500D01*
X58387941Y-94659500D01*
X58320902Y-94639815D01*
X58300260Y-94623181D01*
X58290292Y-94613213D01*
X58290288Y-94613210D01*
X58159185Y-94525609D01*
X58159172Y-94525602D01*
X58013501Y-94465264D01*
X58013489Y-94465261D01*
X57858845Y-94434500D01*
X57858842Y-94434500D01*
X57701158Y-94434500D01*
X57701155Y-94434500D01*
X57546510Y-94465261D01*
X57546498Y-94465264D01*
X57400827Y-94525602D01*
X57400814Y-94525609D01*
X57269711Y-94613210D01*
X57269707Y-94613213D01*
X57158213Y-94724707D01*
X57158210Y-94724711D01*
X57070609Y-94855814D01*
X57070602Y-94855827D01*
X57010264Y-95001498D01*
X57010261Y-95001510D01*
X56979500Y-95156153D01*
X56979500Y-95313846D01*
X57010261Y-95468489D01*
X57010264Y-95468501D01*
X57070602Y-95614172D01*
X57070609Y-95614185D01*
X57158210Y-95745288D01*
X57158213Y-95745292D01*
X57269707Y-95856786D01*
X57269711Y-95856789D01*
X57400814Y-95944390D01*
X57400827Y-95944397D01*
X57546498Y-96004735D01*
X57546503Y-96004737D01*
X57701153Y-96035499D01*
X57701156Y-96035500D01*
X57701158Y-96035500D01*
X57858844Y-96035500D01*
X57858845Y-96035499D01*
X58013497Y-96004737D01*
X58159179Y-95944394D01*
X58290289Y-95856789D01*
X58290292Y-95856786D01*
X58300260Y-95846819D01*
X58361583Y-95813334D01*
X58387941Y-95810500D01*
X119707059Y-95810500D01*
X119774098Y-95830185D01*
X119794740Y-95846819D01*
X119804707Y-95856786D01*
X119804711Y-95856789D01*
X119935814Y-95944390D01*
X119935827Y-95944397D01*
X120081498Y-96004735D01*
X120081503Y-96004737D01*
X120236153Y-96035499D01*
X120236156Y-96035500D01*
X120236158Y-96035500D01*
X120393844Y-96035500D01*
X120393845Y-96035499D01*
X120548497Y-96004737D01*
X120694179Y-95944394D01*
X120825289Y-95856789D01*
X120936789Y-95745289D01*
X121024394Y-95614179D01*
X121084737Y-95468497D01*
X121115500Y-95313842D01*
X121115500Y-95156158D01*
X121115500Y-95156155D01*
X121115499Y-95156153D01*
X121084738Y-95001510D01*
X121084737Y-95001503D01*
X121084735Y-95001498D01*
X121024397Y-94855827D01*
X121024390Y-94855814D01*
X120936789Y-94724711D01*
X120936786Y-94724707D01*
X120825292Y-94613213D01*
X120825288Y-94613210D01*
X120694185Y-94525609D01*
X120694172Y-94525602D01*
X120548501Y-94465264D01*
X120548489Y-94465261D01*
X120393845Y-94434500D01*
X120393842Y-94434500D01*
X120236158Y-94434500D01*
X120236155Y-94434500D01*
X120081510Y-94465261D01*
X120081498Y-94465264D01*
X119935827Y-94525602D01*
X119935814Y-94525609D01*
X119804711Y-94613210D01*
X119804707Y-94613213D01*
X119794740Y-94623181D01*
X119733417Y-94656666D01*
X119707059Y-94659500D01*
X119545691Y-94659500D01*
X119478652Y-94639815D01*
X119432897Y-94587011D01*
X119422953Y-94517853D01*
X119442589Y-94466609D01*
X119524390Y-94344185D01*
X119524390Y-94344184D01*
X119524394Y-94344179D01*
X119584737Y-94198497D01*
X119615500Y-94043842D01*
X119615500Y-93886158D01*
X119615500Y-93886155D01*
X119615499Y-93886153D01*
X119584738Y-93731510D01*
X119584737Y-93731503D01*
X119584735Y-93731498D01*
X119524397Y-93585827D01*
X119524390Y-93585814D01*
X119436789Y-93454711D01*
X119436786Y-93454707D01*
X119325292Y-93343213D01*
X119325288Y-93343210D01*
X119194185Y-93255609D01*
X119194172Y-93255602D01*
X119048501Y-93195264D01*
X119048489Y-93195261D01*
X118893845Y-93164500D01*
X118893842Y-93164500D01*
X118736158Y-93164500D01*
X118736155Y-93164500D01*
X118581510Y-93195261D01*
X118581498Y-93195264D01*
X118435827Y-93255602D01*
X118435814Y-93255609D01*
X118304711Y-93343210D01*
X118304707Y-93343213D01*
X118294740Y-93353181D01*
X118233417Y-93386666D01*
X118207059Y-93389500D01*
X118045691Y-93389500D01*
X117978652Y-93369815D01*
X117932897Y-93317011D01*
X117922953Y-93247853D01*
X117942589Y-93196609D01*
X118024390Y-93074185D01*
X118024390Y-93074184D01*
X118024394Y-93074179D01*
X118084737Y-92928497D01*
X118115500Y-92773842D01*
X118115500Y-92616158D01*
X118115500Y-92616155D01*
X118115499Y-92616153D01*
X118084738Y-92461510D01*
X118084737Y-92461503D01*
X118084735Y-92461498D01*
X118024397Y-92315827D01*
X118024390Y-92315814D01*
X117936789Y-92184711D01*
X117936786Y-92184707D01*
X117825292Y-92073213D01*
X117825288Y-92073210D01*
X117694185Y-91985609D01*
X117694172Y-91985602D01*
X117548501Y-91925264D01*
X117548489Y-91925261D01*
X117393845Y-91894500D01*
X117393842Y-91894500D01*
X117236158Y-91894500D01*
X117236155Y-91894500D01*
X117081510Y-91925261D01*
X117081498Y-91925264D01*
X116935827Y-91985602D01*
X116935814Y-91985609D01*
X116804711Y-92073210D01*
X116804707Y-92073213D01*
X116794740Y-92083181D01*
X116733417Y-92116666D01*
X116707059Y-92119500D01*
X79145691Y-92119500D01*
X79078652Y-92099815D01*
X79032897Y-92047011D01*
X79022953Y-91977853D01*
X79042589Y-91926609D01*
X79124390Y-91804185D01*
X79124390Y-91804184D01*
X79124394Y-91804179D01*
X79184737Y-91658497D01*
X79215500Y-91503842D01*
X79215500Y-91346158D01*
X79215500Y-91346155D01*
X79215499Y-91346153D01*
X79184738Y-91191510D01*
X79184737Y-91191503D01*
X79184735Y-91191498D01*
X79124397Y-91045827D01*
X79124390Y-91045814D01*
X79042589Y-90923391D01*
X79021711Y-90856714D01*
X79040195Y-90789333D01*
X79092174Y-90742643D01*
X79145691Y-90730500D01*
X79307059Y-90730500D01*
X79374098Y-90750185D01*
X79394740Y-90766819D01*
X79404707Y-90776786D01*
X79404711Y-90776789D01*
X79535814Y-90864390D01*
X79535827Y-90864397D01*
X79657288Y-90914707D01*
X79681503Y-90924737D01*
X79836153Y-90955499D01*
X79836156Y-90955500D01*
X79836158Y-90955500D01*
X79993844Y-90955500D01*
X79993845Y-90955499D01*
X80148497Y-90924737D01*
X80294179Y-90864394D01*
X80425289Y-90776789D01*
X80536789Y-90665289D01*
X80624394Y-90534179D01*
X80627422Y-90526870D01*
X80684735Y-90388501D01*
X80684737Y-90388497D01*
X80715500Y-90233842D01*
X80715500Y-90076158D01*
X80715500Y-90076155D01*
X80715499Y-90076153D01*
X80684738Y-89921510D01*
X80684737Y-89921503D01*
X80684735Y-89921498D01*
X80624397Y-89775827D01*
X80624390Y-89775814D01*
X80542589Y-89653391D01*
X80521711Y-89586714D01*
X80540195Y-89519333D01*
X80592174Y-89472643D01*
X80645691Y-89460500D01*
X80807059Y-89460500D01*
X80874098Y-89480185D01*
X80894740Y-89496819D01*
X80904707Y-89506786D01*
X80904711Y-89506789D01*
X81035814Y-89594390D01*
X81035827Y-89594397D01*
X81157298Y-89644711D01*
X81181503Y-89654737D01*
X81336153Y-89685499D01*
X81336156Y-89685500D01*
X81336158Y-89685500D01*
X81493844Y-89685500D01*
X81493845Y-89685499D01*
X81648497Y-89654737D01*
X81761166Y-89608067D01*
X81794172Y-89594397D01*
X81794172Y-89594396D01*
X81794179Y-89594394D01*
X81925289Y-89506789D01*
X82036789Y-89395289D01*
X82124394Y-89264179D01*
X82184737Y-89118497D01*
X82215500Y-88963842D01*
X82215500Y-88806158D01*
X82215500Y-88806155D01*
X82215499Y-88806153D01*
X82184738Y-88651510D01*
X82184737Y-88651503D01*
X82184735Y-88651498D01*
X82124397Y-88505827D01*
X82124390Y-88505814D01*
X82042589Y-88383391D01*
X82021711Y-88316714D01*
X82040195Y-88249333D01*
X82092174Y-88202643D01*
X82145691Y-88190500D01*
X82307059Y-88190500D01*
X82374098Y-88210185D01*
X82394740Y-88226819D01*
X82404707Y-88236786D01*
X82404711Y-88236789D01*
X82535814Y-88324390D01*
X82535827Y-88324397D01*
X82657288Y-88374707D01*
X82681503Y-88384737D01*
X82836153Y-88415499D01*
X82836156Y-88415500D01*
X82836158Y-88415500D01*
X82993844Y-88415500D01*
X82993845Y-88415499D01*
X83148497Y-88384737D01*
X83294179Y-88324394D01*
X83425289Y-88236789D01*
X83536789Y-88125289D01*
X83624394Y-87994179D01*
X83684737Y-87848497D01*
X83715500Y-87693842D01*
X83715500Y-87536158D01*
X83715500Y-87536155D01*
X83715499Y-87536153D01*
X83709684Y-87506919D01*
X83684737Y-87381503D01*
X83681836Y-87374500D01*
X83624397Y-87235827D01*
X83624390Y-87235814D01*
X83542589Y-87113391D01*
X83521711Y-87046714D01*
X83540195Y-86979333D01*
X83592174Y-86932643D01*
X83645691Y-86920500D01*
X83807059Y-86920500D01*
X83874098Y-86940185D01*
X83894740Y-86956819D01*
X83904707Y-86966786D01*
X83904711Y-86966789D01*
X84035814Y-87054390D01*
X84035827Y-87054397D01*
X84157298Y-87104711D01*
X84181503Y-87114737D01*
X84336153Y-87145499D01*
X84336156Y-87145500D01*
X84336158Y-87145500D01*
X84493844Y-87145500D01*
X84493845Y-87145499D01*
X84648497Y-87114737D01*
X84761166Y-87068067D01*
X84794172Y-87054397D01*
X84794172Y-87054396D01*
X84794179Y-87054394D01*
X84925289Y-86966789D01*
X85036789Y-86855289D01*
X85124394Y-86724179D01*
X85184737Y-86578497D01*
X85215500Y-86423842D01*
X85215500Y-86266158D01*
X85215500Y-86266155D01*
X85215499Y-86266153D01*
X85184738Y-86111510D01*
X85184737Y-86111503D01*
X85184735Y-86111498D01*
X85124397Y-85965827D01*
X85124390Y-85965814D01*
X85042589Y-85843391D01*
X85021711Y-85776714D01*
X85040195Y-85709333D01*
X85092174Y-85662643D01*
X85145691Y-85650500D01*
X85307059Y-85650500D01*
X85374098Y-85670185D01*
X85394740Y-85686819D01*
X85404707Y-85696786D01*
X85404711Y-85696789D01*
X85535814Y-85784390D01*
X85535827Y-85784397D01*
X85657288Y-85834707D01*
X85681503Y-85844737D01*
X85836153Y-85875499D01*
X85836156Y-85875500D01*
X85836158Y-85875500D01*
X85993844Y-85875500D01*
X85993845Y-85875499D01*
X86148497Y-85844737D01*
X86294179Y-85784394D01*
X86425289Y-85696789D01*
X86536789Y-85585289D01*
X86624394Y-85454179D01*
X86684737Y-85308497D01*
X86715500Y-85153842D01*
X86715500Y-84996158D01*
X86715500Y-84996155D01*
X86715499Y-84996153D01*
X86684738Y-84841510D01*
X86684737Y-84841503D01*
X86684735Y-84841498D01*
X86624397Y-84695827D01*
X86624390Y-84695814D01*
X86536789Y-84564711D01*
X86536786Y-84564707D01*
X86425292Y-84453213D01*
X86425288Y-84453210D01*
X86294185Y-84365609D01*
X86294172Y-84365602D01*
X86148501Y-84305264D01*
X86148489Y-84305261D01*
X85993845Y-84274500D01*
X85993842Y-84274500D01*
X85836158Y-84274500D01*
X85836155Y-84274500D01*
X85681510Y-84305261D01*
X85681498Y-84305264D01*
X85535827Y-84365602D01*
X85535814Y-84365609D01*
X85404711Y-84453210D01*
X85404707Y-84453213D01*
X85394740Y-84463181D01*
X85333417Y-84496666D01*
X85307059Y-84499500D01*
X54327941Y-84499500D01*
X54260902Y-84479815D01*
X54240260Y-84463181D01*
X54230292Y-84453213D01*
X54230288Y-84453210D01*
X54099185Y-84365609D01*
X54099172Y-84365602D01*
X53953501Y-84305264D01*
X53953489Y-84305261D01*
X53798845Y-84274500D01*
X53798842Y-84274500D01*
X53641158Y-84274500D01*
X53641155Y-84274500D01*
X53486510Y-84305261D01*
X53486498Y-84305264D01*
X53340827Y-84365602D01*
X53340814Y-84365609D01*
X53209711Y-84453210D01*
X53209707Y-84453213D01*
X53098213Y-84564707D01*
X53098210Y-84564711D01*
X53010609Y-84695814D01*
X53010602Y-84695827D01*
X52950264Y-84841498D01*
X52950261Y-84841510D01*
X52919500Y-84996153D01*
X52919500Y-85153846D01*
X52950261Y-85308489D01*
X52950264Y-85308501D01*
X53010602Y-85454172D01*
X53010609Y-85454185D01*
X53092411Y-85576609D01*
X53113289Y-85643286D01*
X53094805Y-85710667D01*
X53042826Y-85757357D01*
X52989309Y-85769500D01*
X46707941Y-85769500D01*
X46640902Y-85749815D01*
X46620260Y-85733181D01*
X46610292Y-85723213D01*
X46610288Y-85723210D01*
X46479185Y-85635609D01*
X46479172Y-85635602D01*
X46333501Y-85575264D01*
X46333489Y-85575261D01*
X46178845Y-85544500D01*
X46178842Y-85544500D01*
X46021158Y-85544500D01*
X46021155Y-85544500D01*
X45866510Y-85575261D01*
X45866498Y-85575264D01*
X45720827Y-85635602D01*
X45720814Y-85635609D01*
X45589711Y-85723210D01*
X45589707Y-85723213D01*
X45478213Y-85834707D01*
X45478210Y-85834711D01*
X45390609Y-85965814D01*
X45390602Y-85965827D01*
X45330264Y-86111498D01*
X45330261Y-86111510D01*
X45299500Y-86266153D01*
X45299500Y-86423846D01*
X45330261Y-86578489D01*
X45330264Y-86578501D01*
X45390602Y-86724172D01*
X45390609Y-86724185D01*
X45478210Y-86855288D01*
X45478213Y-86855292D01*
X45589707Y-86966786D01*
X45589711Y-86966789D01*
X45720814Y-87054390D01*
X45720827Y-87054397D01*
X45842298Y-87104711D01*
X45866503Y-87114737D01*
X46021153Y-87145499D01*
X46021156Y-87145500D01*
X46021158Y-87145500D01*
X46178844Y-87145500D01*
X46178845Y-87145499D01*
X46333497Y-87114737D01*
X46446166Y-87068067D01*
X46479172Y-87054397D01*
X46479172Y-87054396D01*
X46479179Y-87054394D01*
X46610289Y-86966789D01*
X46610292Y-86966786D01*
X46620260Y-86956819D01*
X46681583Y-86923334D01*
X46707941Y-86920500D01*
X67209309Y-86920500D01*
X67276348Y-86940185D01*
X67322103Y-86992989D01*
X67332047Y-87062147D01*
X67312411Y-87113391D01*
X67230609Y-87235814D01*
X67230602Y-87235827D01*
X67170264Y-87381498D01*
X67170261Y-87381510D01*
X67139500Y-87536153D01*
X67139500Y-87693846D01*
X67170261Y-87848489D01*
X67170264Y-87848501D01*
X67230602Y-87994172D01*
X67230609Y-87994185D01*
X67312411Y-88116609D01*
X67333289Y-88183286D01*
X67314805Y-88250667D01*
X67262826Y-88297357D01*
X67209309Y-88309500D01*
X60927941Y-88309500D01*
X60860902Y-88289815D01*
X60840260Y-88273181D01*
X60830292Y-88263213D01*
X60830288Y-88263210D01*
X60699185Y-88175609D01*
X60699172Y-88175602D01*
X60553501Y-88115264D01*
X60553489Y-88115261D01*
X60398845Y-88084500D01*
X60398842Y-88084500D01*
X60241158Y-88084500D01*
X60241155Y-88084500D01*
X60086510Y-88115261D01*
X60086498Y-88115264D01*
X59940827Y-88175602D01*
X59940814Y-88175609D01*
X59809711Y-88263210D01*
X59809707Y-88263213D01*
X59698213Y-88374707D01*
X59698210Y-88374711D01*
X59610609Y-88505814D01*
X59610602Y-88505827D01*
X59550264Y-88651498D01*
X59550261Y-88651510D01*
X59519500Y-88806153D01*
X59519500Y-88963846D01*
X59550261Y-89118489D01*
X59550264Y-89118501D01*
X59610602Y-89264172D01*
X59610609Y-89264185D01*
X59698210Y-89395288D01*
X59698213Y-89395292D01*
X59809707Y-89506786D01*
X59809711Y-89506789D01*
X59940814Y-89594390D01*
X59940827Y-89594397D01*
X60062298Y-89644711D01*
X60086503Y-89654737D01*
X60241153Y-89685499D01*
X60241156Y-89685500D01*
X60241158Y-89685500D01*
X60398844Y-89685500D01*
X60398845Y-89685499D01*
X60553497Y-89654737D01*
X60666166Y-89608067D01*
X60699172Y-89594397D01*
X60699172Y-89594396D01*
X60699179Y-89594394D01*
X60830289Y-89506789D01*
X60830292Y-89506786D01*
X60840260Y-89496819D01*
X60901583Y-89463334D01*
X60927941Y-89460500D01*
X62129309Y-89460500D01*
X62196348Y-89480185D01*
X62242103Y-89532989D01*
X62252047Y-89602147D01*
X62232411Y-89653391D01*
X62150609Y-89775814D01*
X62150602Y-89775827D01*
X62090264Y-89921498D01*
X62090261Y-89921510D01*
X62059500Y-90076153D01*
X62059500Y-90233846D01*
X62090261Y-90388489D01*
X62090264Y-90388501D01*
X62150602Y-90534172D01*
X62150609Y-90534185D01*
X62232411Y-90656609D01*
X62253289Y-90723286D01*
X62234805Y-90790667D01*
X62182826Y-90837357D01*
X62129309Y-90849500D01*
X49247941Y-90849500D01*
X49180902Y-90829815D01*
X49160260Y-90813181D01*
X49150292Y-90803213D01*
X49150288Y-90803210D01*
X49019185Y-90715609D01*
X49019172Y-90715602D01*
X48873501Y-90655264D01*
X48873489Y-90655261D01*
X48718845Y-90624500D01*
X48718842Y-90624500D01*
X48561158Y-90624500D01*
X48561155Y-90624500D01*
X48406510Y-90655261D01*
X48406498Y-90655264D01*
X48260827Y-90715602D01*
X48260814Y-90715609D01*
X48129711Y-90803210D01*
X48129707Y-90803213D01*
X48018213Y-90914707D01*
X48018210Y-90914711D01*
X47930609Y-91045814D01*
X47930602Y-91045827D01*
X47870264Y-91191498D01*
X47870261Y-91191510D01*
X47839500Y-91346153D01*
X47839500Y-91503846D01*
X47870261Y-91658489D01*
X47870264Y-91658501D01*
X47930602Y-91804172D01*
X47930609Y-91804185D01*
X48012411Y-91926609D01*
X48033289Y-91993286D01*
X48014805Y-92060667D01*
X47962826Y-92107357D01*
X47909309Y-92119500D01*
X44167941Y-92119500D01*
X44100902Y-92099815D01*
X44080260Y-92083181D01*
X44070292Y-92073213D01*
X44070288Y-92073210D01*
X43939185Y-91985609D01*
X43939172Y-91985602D01*
X43793501Y-91925264D01*
X43793489Y-91925261D01*
X43638845Y-91894500D01*
X43638842Y-91894500D01*
X43481158Y-91894500D01*
X43481155Y-91894500D01*
X43326510Y-91925261D01*
X43326498Y-91925264D01*
X43180827Y-91985602D01*
X43180814Y-91985609D01*
X43049711Y-92073210D01*
X43049707Y-92073213D01*
X42938213Y-92184707D01*
X42938210Y-92184711D01*
X42850609Y-92315814D01*
X42850602Y-92315827D01*
X42790264Y-92461498D01*
X42790261Y-92461510D01*
X42759500Y-92616153D01*
X3935499Y-92616153D01*
X3935499Y-87959298D01*
X8734499Y-87959298D01*
X8734499Y-90190701D01*
X8737400Y-90227567D01*
X8737401Y-90227573D01*
X8783253Y-90385393D01*
X8783254Y-90385396D01*
X8866916Y-90526862D01*
X8866922Y-90526870D01*
X8983128Y-90643076D01*
X8983132Y-90643079D01*
X8983134Y-90643081D01*
X9124601Y-90726744D01*
X9137529Y-90730500D01*
X9282425Y-90772597D01*
X9282428Y-90772597D01*
X9282430Y-90772598D01*
X9319305Y-90775500D01*
X9319313Y-90775500D01*
X11550685Y-90775500D01*
X11550693Y-90775500D01*
X11587568Y-90772598D01*
X11587570Y-90772597D01*
X11587572Y-90772597D01*
X11664713Y-90750185D01*
X11745397Y-90726744D01*
X11886864Y-90643081D01*
X12003080Y-90526865D01*
X12086743Y-90385398D01*
X12132597Y-90227569D01*
X12135499Y-90190694D01*
X12135499Y-87959306D01*
X12132597Y-87922431D01*
X12086743Y-87764602D01*
X12003080Y-87623135D01*
X12003078Y-87623133D01*
X12003075Y-87623129D01*
X11886869Y-87506923D01*
X11886861Y-87506917D01*
X11745395Y-87423255D01*
X11745392Y-87423254D01*
X11587572Y-87377402D01*
X11587566Y-87377401D01*
X11550700Y-87374500D01*
X11550693Y-87374500D01*
X9319305Y-87374500D01*
X9319297Y-87374500D01*
X9282431Y-87377401D01*
X9282425Y-87377402D01*
X9124605Y-87423254D01*
X9124602Y-87423255D01*
X8983136Y-87506917D01*
X8983128Y-87506923D01*
X8866922Y-87623129D01*
X8866916Y-87623137D01*
X8783254Y-87764603D01*
X8783253Y-87764606D01*
X8737401Y-87922426D01*
X8737400Y-87922432D01*
X8734499Y-87959298D01*
X3935499Y-87959298D01*
X3935499Y-78165513D01*
X29659500Y-78165513D01*
X29659500Y-78354486D01*
X29689059Y-78541118D01*
X29747454Y-78720836D01*
X29833240Y-78889199D01*
X29944310Y-79042073D01*
X30077927Y-79175690D01*
X30230801Y-79286760D01*
X30310347Y-79327290D01*
X30399163Y-79372545D01*
X30399165Y-79372545D01*
X30399168Y-79372547D01*
X30495497Y-79403846D01*
X30578881Y-79430940D01*
X30765514Y-79460500D01*
X30765519Y-79460500D01*
X30954486Y-79460500D01*
X31141118Y-79430940D01*
X31320832Y-79372547D01*
X31489199Y-79286760D01*
X31642073Y-79175690D01*
X31775690Y-79042073D01*
X31886760Y-78889199D01*
X31972547Y-78720832D01*
X32012069Y-78599195D01*
X32051507Y-78541521D01*
X32115866Y-78514323D01*
X32184712Y-78526238D01*
X32236188Y-78573482D01*
X32247931Y-78599196D01*
X32287454Y-78720836D01*
X32373240Y-78889199D01*
X32484310Y-79042073D01*
X32617927Y-79175690D01*
X32770801Y-79286760D01*
X32850347Y-79327290D01*
X32939163Y-79372545D01*
X32939165Y-79372545D01*
X32939168Y-79372547D01*
X33035497Y-79403846D01*
X33118881Y-79430940D01*
X33305514Y-79460500D01*
X33305519Y-79460500D01*
X33494486Y-79460500D01*
X33681118Y-79430940D01*
X33860832Y-79372547D01*
X34029199Y-79286760D01*
X34182073Y-79175690D01*
X34315690Y-79042073D01*
X34426760Y-78889199D01*
X34512547Y-78720832D01*
X34552069Y-78599195D01*
X34591507Y-78541521D01*
X34655866Y-78514323D01*
X34724712Y-78526238D01*
X34776188Y-78573482D01*
X34787931Y-78599196D01*
X34827454Y-78720836D01*
X34913240Y-78889199D01*
X35024310Y-79042073D01*
X35157927Y-79175690D01*
X35310801Y-79286760D01*
X35390347Y-79327290D01*
X35479163Y-79372545D01*
X35479165Y-79372545D01*
X35479168Y-79372547D01*
X35575497Y-79403846D01*
X35658881Y-79430940D01*
X35845514Y-79460500D01*
X35845519Y-79460500D01*
X36034486Y-79460500D01*
X36221118Y-79430940D01*
X36400832Y-79372547D01*
X36569199Y-79286760D01*
X36722073Y-79175690D01*
X36855690Y-79042073D01*
X36966760Y-78889199D01*
X37052547Y-78720832D01*
X37110940Y-78541118D01*
X37115184Y-78514323D01*
X37140500Y-78354486D01*
X37140500Y-78165513D01*
X39819500Y-78165513D01*
X39819500Y-78354486D01*
X39849059Y-78541118D01*
X39907454Y-78720836D01*
X39993240Y-78889199D01*
X40104310Y-79042073D01*
X40237927Y-79175690D01*
X40390801Y-79286760D01*
X40470347Y-79327290D01*
X40559163Y-79372545D01*
X40559165Y-79372545D01*
X40559168Y-79372547D01*
X40655497Y-79403846D01*
X40738881Y-79430940D01*
X40925514Y-79460500D01*
X40925519Y-79460500D01*
X41114486Y-79460500D01*
X41301118Y-79430940D01*
X41480832Y-79372547D01*
X41649199Y-79286760D01*
X41802073Y-79175690D01*
X41935690Y-79042073D01*
X42046760Y-78889199D01*
X42132547Y-78720832D01*
X42172069Y-78599195D01*
X42211507Y-78541521D01*
X42275866Y-78514323D01*
X42344712Y-78526238D01*
X42396188Y-78573482D01*
X42407931Y-78599196D01*
X42447454Y-78720836D01*
X42533240Y-78889199D01*
X42644310Y-79042073D01*
X42777927Y-79175690D01*
X42930801Y-79286760D01*
X43010347Y-79327290D01*
X43099163Y-79372545D01*
X43099165Y-79372545D01*
X43099168Y-79372547D01*
X43195497Y-79403846D01*
X43278881Y-79430940D01*
X43465514Y-79460500D01*
X43465519Y-79460500D01*
X43654486Y-79460500D01*
X43841118Y-79430940D01*
X44020832Y-79372547D01*
X44189199Y-79286760D01*
X44342073Y-79175690D01*
X44475690Y-79042073D01*
X44586760Y-78889199D01*
X44672547Y-78720832D01*
X44712069Y-78599195D01*
X44751507Y-78541521D01*
X44815866Y-78514323D01*
X44884712Y-78526238D01*
X44936188Y-78573482D01*
X44947931Y-78599196D01*
X44987454Y-78720836D01*
X45073240Y-78889199D01*
X45184310Y-79042073D01*
X45317927Y-79175690D01*
X45470801Y-79286760D01*
X45550347Y-79327290D01*
X45639163Y-79372545D01*
X45639165Y-79372545D01*
X45639168Y-79372547D01*
X45735497Y-79403846D01*
X45818881Y-79430940D01*
X46005514Y-79460500D01*
X46005519Y-79460500D01*
X46194486Y-79460500D01*
X46381118Y-79430940D01*
X46560832Y-79372547D01*
X46729199Y-79286760D01*
X46882073Y-79175690D01*
X47015690Y-79042073D01*
X47126760Y-78889199D01*
X47212547Y-78720832D01*
X47252069Y-78599195D01*
X47291507Y-78541521D01*
X47355866Y-78514323D01*
X47424712Y-78526238D01*
X47476188Y-78573482D01*
X47487931Y-78599196D01*
X47527454Y-78720836D01*
X47613240Y-78889199D01*
X47724310Y-79042073D01*
X47857927Y-79175690D01*
X48010801Y-79286760D01*
X48090347Y-79327290D01*
X48179163Y-79372545D01*
X48179165Y-79372545D01*
X48179168Y-79372547D01*
X48275497Y-79403846D01*
X48358881Y-79430940D01*
X48545514Y-79460500D01*
X48545519Y-79460500D01*
X48734486Y-79460500D01*
X48921118Y-79430940D01*
X49100832Y-79372547D01*
X49269199Y-79286760D01*
X49422073Y-79175690D01*
X49555690Y-79042073D01*
X49666760Y-78889199D01*
X49752547Y-78720832D01*
X49792069Y-78599195D01*
X49831507Y-78541521D01*
X49895866Y-78514323D01*
X49964712Y-78526238D01*
X50016188Y-78573482D01*
X50027931Y-78599196D01*
X50067454Y-78720836D01*
X50153240Y-78889199D01*
X50264310Y-79042073D01*
X50397927Y-79175690D01*
X50550801Y-79286760D01*
X50630347Y-79327290D01*
X50719163Y-79372545D01*
X50719165Y-79372545D01*
X50719168Y-79372547D01*
X50815497Y-79403846D01*
X50898881Y-79430940D01*
X51085514Y-79460500D01*
X51085519Y-79460500D01*
X51274486Y-79460500D01*
X51461118Y-79430940D01*
X51640832Y-79372547D01*
X51809199Y-79286760D01*
X51962073Y-79175690D01*
X52095690Y-79042073D01*
X52206760Y-78889199D01*
X52292547Y-78720832D01*
X52332069Y-78599195D01*
X52371507Y-78541521D01*
X52435866Y-78514323D01*
X52504712Y-78526238D01*
X52556188Y-78573482D01*
X52567931Y-78599196D01*
X52607454Y-78720836D01*
X52693240Y-78889199D01*
X52804310Y-79042073D01*
X52937927Y-79175690D01*
X53090801Y-79286760D01*
X53170347Y-79327290D01*
X53259163Y-79372545D01*
X53259165Y-79372545D01*
X53259168Y-79372547D01*
X53355497Y-79403846D01*
X53438881Y-79430940D01*
X53625514Y-79460500D01*
X53625519Y-79460500D01*
X53814486Y-79460500D01*
X54001118Y-79430940D01*
X54180832Y-79372547D01*
X54349199Y-79286760D01*
X54502073Y-79175690D01*
X54635690Y-79042073D01*
X54746760Y-78889199D01*
X54832547Y-78720832D01*
X54890940Y-78541118D01*
X54895184Y-78514323D01*
X54920500Y-78354486D01*
X54920500Y-78165513D01*
X56579500Y-78165513D01*
X56579500Y-78354486D01*
X56609059Y-78541118D01*
X56667454Y-78720836D01*
X56753240Y-78889199D01*
X56864310Y-79042073D01*
X56997927Y-79175690D01*
X57150801Y-79286760D01*
X57230347Y-79327290D01*
X57319163Y-79372545D01*
X57319165Y-79372545D01*
X57319168Y-79372547D01*
X57415497Y-79403846D01*
X57498881Y-79430940D01*
X57685514Y-79460500D01*
X57685519Y-79460500D01*
X57874486Y-79460500D01*
X58061118Y-79430940D01*
X58240832Y-79372547D01*
X58409199Y-79286760D01*
X58562073Y-79175690D01*
X58695690Y-79042073D01*
X58806760Y-78889199D01*
X58892547Y-78720832D01*
X58932069Y-78599195D01*
X58971507Y-78541521D01*
X59035866Y-78514323D01*
X59104712Y-78526238D01*
X59156188Y-78573482D01*
X59167931Y-78599196D01*
X59207454Y-78720836D01*
X59293240Y-78889199D01*
X59404310Y-79042073D01*
X59537927Y-79175690D01*
X59690801Y-79286760D01*
X59770347Y-79327290D01*
X59859163Y-79372545D01*
X59859165Y-79372545D01*
X59859168Y-79372547D01*
X59955497Y-79403846D01*
X60038881Y-79430940D01*
X60225514Y-79460500D01*
X60225519Y-79460500D01*
X60414486Y-79460500D01*
X60601118Y-79430940D01*
X60780832Y-79372547D01*
X60949199Y-79286760D01*
X61102073Y-79175690D01*
X61235690Y-79042073D01*
X61346760Y-78889199D01*
X61432547Y-78720832D01*
X61472069Y-78599195D01*
X61511507Y-78541521D01*
X61575866Y-78514323D01*
X61644712Y-78526238D01*
X61696188Y-78573482D01*
X61707931Y-78599196D01*
X61747454Y-78720836D01*
X61833240Y-78889199D01*
X61944310Y-79042073D01*
X62077927Y-79175690D01*
X62230801Y-79286760D01*
X62310347Y-79327290D01*
X62399163Y-79372545D01*
X62399165Y-79372545D01*
X62399168Y-79372547D01*
X62495497Y-79403846D01*
X62578881Y-79430940D01*
X62765514Y-79460500D01*
X62765519Y-79460500D01*
X62954486Y-79460500D01*
X63141118Y-79430940D01*
X63320832Y-79372547D01*
X63489199Y-79286760D01*
X63642073Y-79175690D01*
X63775690Y-79042073D01*
X63886760Y-78889199D01*
X63972547Y-78720832D01*
X64012069Y-78599195D01*
X64051507Y-78541521D01*
X64115866Y-78514323D01*
X64184712Y-78526238D01*
X64236188Y-78573482D01*
X64247931Y-78599196D01*
X64287454Y-78720836D01*
X64373240Y-78889199D01*
X64484310Y-79042073D01*
X64617927Y-79175690D01*
X64770801Y-79286760D01*
X64850347Y-79327290D01*
X64939163Y-79372545D01*
X64939165Y-79372545D01*
X64939168Y-79372547D01*
X65035497Y-79403846D01*
X65118881Y-79430940D01*
X65305514Y-79460500D01*
X65305519Y-79460500D01*
X65494486Y-79460500D01*
X65681118Y-79430940D01*
X65860832Y-79372547D01*
X66029199Y-79286760D01*
X66182073Y-79175690D01*
X66315690Y-79042073D01*
X66426760Y-78889199D01*
X66512547Y-78720832D01*
X66552069Y-78599195D01*
X66591507Y-78541521D01*
X66655866Y-78514323D01*
X66724712Y-78526238D01*
X66776188Y-78573482D01*
X66787931Y-78599196D01*
X66827454Y-78720836D01*
X66913240Y-78889199D01*
X67024310Y-79042073D01*
X67157927Y-79175690D01*
X67310801Y-79286760D01*
X67390347Y-79327290D01*
X67479163Y-79372545D01*
X67479165Y-79372545D01*
X67479168Y-79372547D01*
X67575497Y-79403846D01*
X67658881Y-79430940D01*
X67845514Y-79460500D01*
X67845519Y-79460500D01*
X68034486Y-79460500D01*
X68221118Y-79430940D01*
X68400832Y-79372547D01*
X68569199Y-79286760D01*
X68722073Y-79175690D01*
X68855690Y-79042073D01*
X68966760Y-78889199D01*
X69052547Y-78720832D01*
X69092069Y-78599195D01*
X69131507Y-78541521D01*
X69195866Y-78514323D01*
X69264712Y-78526238D01*
X69316188Y-78573482D01*
X69327931Y-78599196D01*
X69367454Y-78720836D01*
X69453240Y-78889199D01*
X69564310Y-79042073D01*
X69697927Y-79175690D01*
X69850801Y-79286760D01*
X69930347Y-79327290D01*
X70019163Y-79372545D01*
X70019165Y-79372545D01*
X70019168Y-79372547D01*
X70115497Y-79403846D01*
X70198881Y-79430940D01*
X70385514Y-79460500D01*
X70385519Y-79460500D01*
X70574486Y-79460500D01*
X70761118Y-79430940D01*
X70940832Y-79372547D01*
X71109199Y-79286760D01*
X71262073Y-79175690D01*
X71395690Y-79042073D01*
X71506760Y-78889199D01*
X71592547Y-78720832D01*
X71632069Y-78599195D01*
X71671507Y-78541521D01*
X71735866Y-78514323D01*
X71804712Y-78526238D01*
X71856188Y-78573482D01*
X71867931Y-78599196D01*
X71907454Y-78720836D01*
X71993240Y-78889199D01*
X72104310Y-79042073D01*
X72237927Y-79175690D01*
X72390801Y-79286760D01*
X72470347Y-79327290D01*
X72559163Y-79372545D01*
X72559165Y-79372545D01*
X72559168Y-79372547D01*
X72655497Y-79403846D01*
X72738881Y-79430940D01*
X72925514Y-79460500D01*
X72925519Y-79460500D01*
X73114486Y-79460500D01*
X73301118Y-79430940D01*
X73480832Y-79372547D01*
X73649199Y-79286760D01*
X73802073Y-79175690D01*
X73935690Y-79042073D01*
X74046760Y-78889199D01*
X74132547Y-78720832D01*
X74172069Y-78599195D01*
X74211507Y-78541521D01*
X74275866Y-78514323D01*
X74344712Y-78526238D01*
X74396188Y-78573482D01*
X74407931Y-78599196D01*
X74447454Y-78720836D01*
X74533240Y-78889199D01*
X74644310Y-79042073D01*
X74777927Y-79175690D01*
X74930801Y-79286760D01*
X75010347Y-79327290D01*
X75099163Y-79372545D01*
X75099165Y-79372545D01*
X75099168Y-79372547D01*
X75195497Y-79403846D01*
X75278881Y-79430940D01*
X75465514Y-79460500D01*
X75465519Y-79460500D01*
X75654486Y-79460500D01*
X75841118Y-79430940D01*
X76020832Y-79372547D01*
X76189199Y-79286760D01*
X76342073Y-79175690D01*
X76475690Y-79042073D01*
X76586760Y-78889199D01*
X76672547Y-78720832D01*
X76730940Y-78541118D01*
X76735184Y-78514323D01*
X76760500Y-78354486D01*
X76760500Y-78165513D01*
X76730940Y-77978881D01*
X76672545Y-77799163D01*
X76586759Y-77630800D01*
X76475690Y-77477927D01*
X76342073Y-77344310D01*
X76189199Y-77233240D01*
X76020836Y-77147454D01*
X75841118Y-77089059D01*
X75654486Y-77059500D01*
X75654481Y-77059500D01*
X75465519Y-77059500D01*
X75465514Y-77059500D01*
X75278881Y-77089059D01*
X75099163Y-77147454D01*
X74930800Y-77233240D01*
X74843579Y-77296610D01*
X74777927Y-77344310D01*
X74777925Y-77344312D01*
X74777924Y-77344312D01*
X74644312Y-77477924D01*
X74644312Y-77477925D01*
X74644310Y-77477927D01*
X74596610Y-77543579D01*
X74533240Y-77630800D01*
X74447454Y-77799163D01*
X74407931Y-77920803D01*
X74368493Y-77978478D01*
X74304134Y-78005676D01*
X74235288Y-77993761D01*
X74183812Y-77946516D01*
X74172069Y-77920803D01*
X74132545Y-77799163D01*
X74046759Y-77630800D01*
X73935690Y-77477927D01*
X73802073Y-77344310D01*
X73649199Y-77233240D01*
X73480836Y-77147454D01*
X73301118Y-77089059D01*
X73114486Y-77059500D01*
X73114481Y-77059500D01*
X72925519Y-77059500D01*
X72925514Y-77059500D01*
X72738881Y-77089059D01*
X72559163Y-77147454D01*
X72390800Y-77233240D01*
X72303579Y-77296610D01*
X72237927Y-77344310D01*
X72237925Y-77344312D01*
X72237924Y-77344312D01*
X72104312Y-77477924D01*
X72104312Y-77477925D01*
X72104310Y-77477927D01*
X72056610Y-77543579D01*
X71993240Y-77630800D01*
X71907454Y-77799163D01*
X71867931Y-77920803D01*
X71828493Y-77978478D01*
X71764134Y-78005676D01*
X71695288Y-77993761D01*
X71643812Y-77946516D01*
X71632069Y-77920803D01*
X71592545Y-77799163D01*
X71506759Y-77630800D01*
X71395690Y-77477927D01*
X71262073Y-77344310D01*
X71109199Y-77233240D01*
X70940836Y-77147454D01*
X70761118Y-77089059D01*
X70574486Y-77059500D01*
X70574481Y-77059500D01*
X70385519Y-77059500D01*
X70385514Y-77059500D01*
X70198881Y-77089059D01*
X70019163Y-77147454D01*
X69850800Y-77233240D01*
X69763579Y-77296610D01*
X69697927Y-77344310D01*
X69697925Y-77344312D01*
X69697924Y-77344312D01*
X69564312Y-77477924D01*
X69564312Y-77477925D01*
X69564310Y-77477927D01*
X69516610Y-77543579D01*
X69453240Y-77630800D01*
X69367454Y-77799163D01*
X69327931Y-77920803D01*
X69288493Y-77978478D01*
X69224134Y-78005676D01*
X69155288Y-77993761D01*
X69103812Y-77946516D01*
X69092069Y-77920803D01*
X69052545Y-77799163D01*
X68966759Y-77630800D01*
X68855690Y-77477927D01*
X68722073Y-77344310D01*
X68569199Y-77233240D01*
X68400836Y-77147454D01*
X68221118Y-77089059D01*
X68034486Y-77059500D01*
X68034481Y-77059500D01*
X67845519Y-77059500D01*
X67845514Y-77059500D01*
X67658881Y-77089059D01*
X67479163Y-77147454D01*
X67310800Y-77233240D01*
X67223579Y-77296610D01*
X67157927Y-77344310D01*
X67157925Y-77344312D01*
X67157924Y-77344312D01*
X67024312Y-77477924D01*
X67024312Y-77477925D01*
X67024310Y-77477927D01*
X66976610Y-77543579D01*
X66913240Y-77630800D01*
X66827454Y-77799163D01*
X66787931Y-77920803D01*
X66748493Y-77978478D01*
X66684134Y-78005676D01*
X66615288Y-77993761D01*
X66563812Y-77946516D01*
X66552069Y-77920803D01*
X66512545Y-77799163D01*
X66426759Y-77630800D01*
X66315690Y-77477927D01*
X66182073Y-77344310D01*
X66029199Y-77233240D01*
X65860836Y-77147454D01*
X65681118Y-77089059D01*
X65494486Y-77059500D01*
X65494481Y-77059500D01*
X65305519Y-77059500D01*
X65305514Y-77059500D01*
X65118881Y-77089059D01*
X64939163Y-77147454D01*
X64770800Y-77233240D01*
X64683579Y-77296610D01*
X64617927Y-77344310D01*
X64617925Y-77344312D01*
X64617924Y-77344312D01*
X64484312Y-77477924D01*
X64484312Y-77477925D01*
X64484310Y-77477927D01*
X64436610Y-77543579D01*
X64373240Y-77630800D01*
X64287454Y-77799163D01*
X64247931Y-77920803D01*
X64208493Y-77978478D01*
X64144134Y-78005676D01*
X64075288Y-77993761D01*
X64023812Y-77946516D01*
X64012069Y-77920803D01*
X63972545Y-77799163D01*
X63886759Y-77630800D01*
X63775690Y-77477927D01*
X63642073Y-77344310D01*
X63489199Y-77233240D01*
X63320836Y-77147454D01*
X63141118Y-77089059D01*
X62954486Y-77059500D01*
X62954481Y-77059500D01*
X62765519Y-77059500D01*
X62765514Y-77059500D01*
X62578881Y-77089059D01*
X62399163Y-77147454D01*
X62230800Y-77233240D01*
X62143579Y-77296610D01*
X62077927Y-77344310D01*
X62077925Y-77344312D01*
X62077924Y-77344312D01*
X61944312Y-77477924D01*
X61944312Y-77477925D01*
X61944310Y-77477927D01*
X61896610Y-77543579D01*
X61833240Y-77630800D01*
X61747454Y-77799163D01*
X61707931Y-77920803D01*
X61668493Y-77978478D01*
X61604134Y-78005676D01*
X61535288Y-77993761D01*
X61483812Y-77946516D01*
X61472069Y-77920803D01*
X61432545Y-77799163D01*
X61346759Y-77630800D01*
X61235690Y-77477927D01*
X61102073Y-77344310D01*
X60949199Y-77233240D01*
X60780836Y-77147454D01*
X60601118Y-77089059D01*
X60414486Y-77059500D01*
X60414481Y-77059500D01*
X60225519Y-77059500D01*
X60225514Y-77059500D01*
X60038881Y-77089059D01*
X59859163Y-77147454D01*
X59690800Y-77233240D01*
X59603579Y-77296610D01*
X59537927Y-77344310D01*
X59537925Y-77344312D01*
X59537924Y-77344312D01*
X59404312Y-77477924D01*
X59404312Y-77477925D01*
X59404310Y-77477927D01*
X59356610Y-77543579D01*
X59293240Y-77630800D01*
X59207454Y-77799163D01*
X59167931Y-77920803D01*
X59128493Y-77978478D01*
X59064134Y-78005676D01*
X58995288Y-77993761D01*
X58943812Y-77946516D01*
X58932069Y-77920803D01*
X58892545Y-77799163D01*
X58806759Y-77630800D01*
X58695690Y-77477927D01*
X58562073Y-77344310D01*
X58409199Y-77233240D01*
X58240836Y-77147454D01*
X58061118Y-77089059D01*
X57874486Y-77059500D01*
X57874481Y-77059500D01*
X57685519Y-77059500D01*
X57685514Y-77059500D01*
X57498881Y-77089059D01*
X57319163Y-77147454D01*
X57150800Y-77233240D01*
X57063579Y-77296610D01*
X56997927Y-77344310D01*
X56997925Y-77344312D01*
X56997924Y-77344312D01*
X56864312Y-77477924D01*
X56864312Y-77477925D01*
X56864310Y-77477927D01*
X56816610Y-77543579D01*
X56753240Y-77630800D01*
X56667454Y-77799163D01*
X56609059Y-77978881D01*
X56579500Y-78165513D01*
X54920500Y-78165513D01*
X54890940Y-77978881D01*
X54832545Y-77799163D01*
X54746759Y-77630800D01*
X54635690Y-77477927D01*
X54502073Y-77344310D01*
X54349199Y-77233240D01*
X54180836Y-77147454D01*
X54001118Y-77089059D01*
X53814486Y-77059500D01*
X53814481Y-77059500D01*
X53625519Y-77059500D01*
X53625514Y-77059500D01*
X53438881Y-77089059D01*
X53259163Y-77147454D01*
X53090800Y-77233240D01*
X53003579Y-77296610D01*
X52937927Y-77344310D01*
X52937925Y-77344312D01*
X52937924Y-77344312D01*
X52804312Y-77477924D01*
X52804312Y-77477925D01*
X52804310Y-77477927D01*
X52756610Y-77543579D01*
X52693240Y-77630800D01*
X52607454Y-77799163D01*
X52567931Y-77920803D01*
X52528493Y-77978478D01*
X52464134Y-78005676D01*
X52395288Y-77993761D01*
X52343812Y-77946516D01*
X52332069Y-77920803D01*
X52292545Y-77799163D01*
X52206759Y-77630800D01*
X52095690Y-77477927D01*
X51962073Y-77344310D01*
X51809199Y-77233240D01*
X51640836Y-77147454D01*
X51461118Y-77089059D01*
X51274486Y-77059500D01*
X51274481Y-77059500D01*
X51085519Y-77059500D01*
X51085514Y-77059500D01*
X50898881Y-77089059D01*
X50719163Y-77147454D01*
X50550800Y-77233240D01*
X50463579Y-77296610D01*
X50397927Y-77344310D01*
X50397925Y-77344312D01*
X50397924Y-77344312D01*
X50264312Y-77477924D01*
X50264312Y-77477925D01*
X50264310Y-77477927D01*
X50216610Y-77543579D01*
X50153240Y-77630800D01*
X50067454Y-77799163D01*
X50027931Y-77920803D01*
X49988493Y-77978478D01*
X49924134Y-78005676D01*
X49855288Y-77993761D01*
X49803812Y-77946516D01*
X49792069Y-77920803D01*
X49752545Y-77799163D01*
X49666759Y-77630800D01*
X49555690Y-77477927D01*
X49422073Y-77344310D01*
X49269199Y-77233240D01*
X49100836Y-77147454D01*
X48921118Y-77089059D01*
X48734486Y-77059500D01*
X48734481Y-77059500D01*
X48545519Y-77059500D01*
X48545514Y-77059500D01*
X48358881Y-77089059D01*
X48179163Y-77147454D01*
X48010800Y-77233240D01*
X47923579Y-77296610D01*
X47857927Y-77344310D01*
X47857925Y-77344312D01*
X47857924Y-77344312D01*
X47724312Y-77477924D01*
X47724312Y-77477925D01*
X47724310Y-77477927D01*
X47676610Y-77543579D01*
X47613240Y-77630800D01*
X47527454Y-77799163D01*
X47487931Y-77920803D01*
X47448493Y-77978478D01*
X47384134Y-78005676D01*
X47315288Y-77993761D01*
X47263812Y-77946516D01*
X47252069Y-77920803D01*
X47212545Y-77799163D01*
X47126759Y-77630800D01*
X47015690Y-77477927D01*
X46882073Y-77344310D01*
X46729199Y-77233240D01*
X46560836Y-77147454D01*
X46381118Y-77089059D01*
X46194486Y-77059500D01*
X46194481Y-77059500D01*
X46005519Y-77059500D01*
X46005514Y-77059500D01*
X45818881Y-77089059D01*
X45639163Y-77147454D01*
X45470800Y-77233240D01*
X45383579Y-77296610D01*
X45317927Y-77344310D01*
X45317925Y-77344312D01*
X45317924Y-77344312D01*
X45184312Y-77477924D01*
X45184312Y-77477925D01*
X45184310Y-77477927D01*
X45136610Y-77543579D01*
X45073240Y-77630800D01*
X44987454Y-77799163D01*
X44947931Y-77920803D01*
X44908493Y-77978478D01*
X44844134Y-78005676D01*
X44775288Y-77993761D01*
X44723812Y-77946516D01*
X44712069Y-77920803D01*
X44672545Y-77799163D01*
X44586759Y-77630800D01*
X44475690Y-77477927D01*
X44342073Y-77344310D01*
X44189199Y-77233240D01*
X44020836Y-77147454D01*
X43841118Y-77089059D01*
X43654486Y-77059500D01*
X43654481Y-77059500D01*
X43465519Y-77059500D01*
X43465514Y-77059500D01*
X43278881Y-77089059D01*
X43099163Y-77147454D01*
X42930800Y-77233240D01*
X42843579Y-77296610D01*
X42777927Y-77344310D01*
X42777925Y-77344312D01*
X42777924Y-77344312D01*
X42644312Y-77477924D01*
X42644312Y-77477925D01*
X42644310Y-77477927D01*
X42596610Y-77543579D01*
X42533240Y-77630800D01*
X42447454Y-77799163D01*
X42407931Y-77920803D01*
X42368493Y-77978478D01*
X42304134Y-78005676D01*
X42235288Y-77993761D01*
X42183812Y-77946516D01*
X42172069Y-77920803D01*
X42132545Y-77799163D01*
X42046759Y-77630800D01*
X41935690Y-77477927D01*
X41802073Y-77344310D01*
X41649199Y-77233240D01*
X41480836Y-77147454D01*
X41301118Y-77089059D01*
X41114486Y-77059500D01*
X41114481Y-77059500D01*
X40925519Y-77059500D01*
X40925514Y-77059500D01*
X40738881Y-77089059D01*
X40559163Y-77147454D01*
X40390800Y-77233240D01*
X40303579Y-77296610D01*
X40237927Y-77344310D01*
X40237925Y-77344312D01*
X40237924Y-77344312D01*
X40104312Y-77477924D01*
X40104312Y-77477925D01*
X40104310Y-77477927D01*
X40056610Y-77543579D01*
X39993240Y-77630800D01*
X39907454Y-77799163D01*
X39849059Y-77978881D01*
X39819500Y-78165513D01*
X37140500Y-78165513D01*
X37110940Y-77978881D01*
X37052545Y-77799163D01*
X36966759Y-77630800D01*
X36855690Y-77477927D01*
X36722073Y-77344310D01*
X36569199Y-77233240D01*
X36400836Y-77147454D01*
X36221118Y-77089059D01*
X36034486Y-77059500D01*
X36034481Y-77059500D01*
X35845519Y-77059500D01*
X35845514Y-77059500D01*
X35658881Y-77089059D01*
X35479163Y-77147454D01*
X35310800Y-77233240D01*
X35223579Y-77296610D01*
X35157927Y-77344310D01*
X35157925Y-77344312D01*
X35157924Y-77344312D01*
X35024312Y-77477924D01*
X35024312Y-77477925D01*
X35024310Y-77477927D01*
X34976610Y-77543579D01*
X34913240Y-77630800D01*
X34827454Y-77799163D01*
X34787931Y-77920803D01*
X34748493Y-77978478D01*
X34684134Y-78005676D01*
X34615288Y-77993761D01*
X34563812Y-77946516D01*
X34552069Y-77920803D01*
X34512545Y-77799163D01*
X34426759Y-77630800D01*
X34315690Y-77477927D01*
X34182073Y-77344310D01*
X34029199Y-77233240D01*
X33860836Y-77147454D01*
X33681118Y-77089059D01*
X33494486Y-77059500D01*
X33494481Y-77059500D01*
X33305519Y-77059500D01*
X33305514Y-77059500D01*
X33118881Y-77089059D01*
X32939163Y-77147454D01*
X32770800Y-77233240D01*
X32683579Y-77296610D01*
X32617927Y-77344310D01*
X32617925Y-77344312D01*
X32617924Y-77344312D01*
X32484312Y-77477924D01*
X32484312Y-77477925D01*
X32484310Y-77477927D01*
X32436610Y-77543579D01*
X32373240Y-77630800D01*
X32287454Y-77799163D01*
X32247931Y-77920803D01*
X32208493Y-77978478D01*
X32144134Y-78005676D01*
X32075288Y-77993761D01*
X32023812Y-77946516D01*
X32012069Y-77920803D01*
X31972545Y-77799163D01*
X31886759Y-77630800D01*
X31775690Y-77477927D01*
X31642073Y-77344310D01*
X31489199Y-77233240D01*
X31320836Y-77147454D01*
X31141118Y-77089059D01*
X30954486Y-77059500D01*
X30954481Y-77059500D01*
X30765519Y-77059500D01*
X30765514Y-77059500D01*
X30578881Y-77089059D01*
X30399163Y-77147454D01*
X30230800Y-77233240D01*
X30143579Y-77296610D01*
X30077927Y-77344310D01*
X30077925Y-77344312D01*
X30077924Y-77344312D01*
X29944312Y-77477924D01*
X29944312Y-77477925D01*
X29944310Y-77477927D01*
X29896610Y-77543579D01*
X29833240Y-77630800D01*
X29747454Y-77799163D01*
X29689059Y-77978881D01*
X29659500Y-78165513D01*
X3935499Y-78165513D01*
X3935499Y-68666153D01*
X85114500Y-68666153D01*
X85114500Y-68823846D01*
X85145261Y-68978489D01*
X85145264Y-68978501D01*
X85205602Y-69124172D01*
X85205609Y-69124185D01*
X85293210Y-69255288D01*
X85293213Y-69255292D01*
X85404707Y-69366786D01*
X85404711Y-69366789D01*
X85535814Y-69454390D01*
X85535827Y-69454397D01*
X85681498Y-69514735D01*
X85681503Y-69514737D01*
X85836153Y-69545499D01*
X85836156Y-69545500D01*
X85836158Y-69545500D01*
X85993844Y-69545500D01*
X85993845Y-69545499D01*
X86148497Y-69514737D01*
X86294179Y-69454394D01*
X86425289Y-69366789D01*
X86425292Y-69366786D01*
X86435260Y-69356819D01*
X86496583Y-69323334D01*
X86522941Y-69320500D01*
X87728776Y-69320500D01*
X87795815Y-69340185D01*
X87839260Y-69388206D01*
X87845476Y-69400405D01*
X87845478Y-69400409D01*
X87884704Y-69454397D01*
X87961172Y-69559646D01*
X88100354Y-69698828D01*
X88259595Y-69814524D01*
X88342455Y-69856743D01*
X88434970Y-69903882D01*
X88434972Y-69903882D01*
X88434975Y-69903884D01*
X88535317Y-69936487D01*
X88622173Y-69964709D01*
X88816578Y-69995500D01*
X88816583Y-69995500D01*
X89013422Y-69995500D01*
X89207826Y-69964709D01*
X89395025Y-69903884D01*
X89570405Y-69814524D01*
X89729646Y-69698828D01*
X89868828Y-69559646D01*
X89984524Y-69400405D01*
X90073884Y-69225025D01*
X90134709Y-69037826D01*
X90144107Y-68978489D01*
X90165500Y-68843422D01*
X90165500Y-68646577D01*
X90134709Y-68452173D01*
X90073882Y-68264970D01*
X90001652Y-68123211D01*
X89984524Y-68089595D01*
X89868828Y-67930354D01*
X89729646Y-67791172D01*
X89570405Y-67675476D01*
X89570401Y-67675474D01*
X89395029Y-67586117D01*
X89207826Y-67525290D01*
X89013422Y-67494500D01*
X89013417Y-67494500D01*
X88816583Y-67494500D01*
X88816578Y-67494500D01*
X88622173Y-67525290D01*
X88434970Y-67586117D01*
X88259594Y-67675476D01*
X88168741Y-67741485D01*
X88100354Y-67791172D01*
X88100352Y-67791174D01*
X88100351Y-67791174D01*
X87961174Y-67930351D01*
X87961174Y-67930352D01*
X87961172Y-67930354D01*
X87932144Y-67970307D01*
X87845478Y-68089590D01*
X87845476Y-68089595D01*
X87839260Y-68101793D01*
X87791289Y-68152589D01*
X87728776Y-68169500D01*
X86522941Y-68169500D01*
X86455902Y-68149815D01*
X86435260Y-68133181D01*
X86425292Y-68123213D01*
X86425288Y-68123210D01*
X86294185Y-68035609D01*
X86294172Y-68035602D01*
X86148501Y-67975264D01*
X86148489Y-67975261D01*
X85993845Y-67944500D01*
X85993842Y-67944500D01*
X85836158Y-67944500D01*
X85836155Y-67944500D01*
X85681510Y-67975261D01*
X85681498Y-67975264D01*
X85535827Y-68035602D01*
X85535814Y-68035609D01*
X85404711Y-68123210D01*
X85404707Y-68123213D01*
X85293213Y-68234707D01*
X85293210Y-68234711D01*
X85205609Y-68365814D01*
X85205602Y-68365827D01*
X85145264Y-68511498D01*
X85145261Y-68511510D01*
X85114500Y-68666153D01*
X3935499Y-68666153D01*
X3935499Y-50886153D01*
X77614500Y-50886153D01*
X77614500Y-51043846D01*
X77645261Y-51198489D01*
X77645264Y-51198501D01*
X77705602Y-51344172D01*
X77705609Y-51344185D01*
X77793210Y-51475288D01*
X77793213Y-51475292D01*
X77904707Y-51586786D01*
X77904711Y-51586789D01*
X78035814Y-51674390D01*
X78035827Y-51674397D01*
X78181498Y-51734735D01*
X78181503Y-51734737D01*
X78336153Y-51765499D01*
X78336156Y-51765500D01*
X78336158Y-51765500D01*
X78493844Y-51765500D01*
X78493845Y-51765499D01*
X78648497Y-51734737D01*
X78794179Y-51674394D01*
X78925289Y-51586789D01*
X78925292Y-51586786D01*
X78935260Y-51576819D01*
X78996583Y-51543334D01*
X79022941Y-51540500D01*
X87728776Y-51540500D01*
X87795815Y-51560185D01*
X87839260Y-51608206D01*
X87845476Y-51620405D01*
X87845478Y-51620409D01*
X87884704Y-51674397D01*
X87961172Y-51779646D01*
X88100354Y-51918828D01*
X88259595Y-52034524D01*
X88382992Y-52097397D01*
X88436213Y-52124515D01*
X88487009Y-52172489D01*
X88503804Y-52240310D01*
X88481267Y-52306445D01*
X88436213Y-52345485D01*
X88259594Y-52435476D01*
X88168741Y-52501485D01*
X88100354Y-52551172D01*
X88100352Y-52551174D01*
X88100351Y-52551174D01*
X87961174Y-52690351D01*
X87961174Y-52690352D01*
X87961172Y-52690354D01*
X87932144Y-52730307D01*
X87845478Y-52849590D01*
X87845476Y-52849595D01*
X87839260Y-52861793D01*
X87791289Y-52912589D01*
X87728776Y-52929500D01*
X85022941Y-52929500D01*
X84955902Y-52909815D01*
X84935260Y-52893181D01*
X84925292Y-52883213D01*
X84925288Y-52883210D01*
X84794185Y-52795609D01*
X84794172Y-52795602D01*
X84648501Y-52735264D01*
X84648489Y-52735261D01*
X84493845Y-52704500D01*
X84493842Y-52704500D01*
X84336158Y-52704500D01*
X84336155Y-52704500D01*
X84181510Y-52735261D01*
X84181498Y-52735264D01*
X84035827Y-52795602D01*
X84035814Y-52795609D01*
X83904711Y-52883210D01*
X83904707Y-52883213D01*
X83793213Y-52994707D01*
X83793210Y-52994711D01*
X83705609Y-53125814D01*
X83705602Y-53125827D01*
X83645264Y-53271498D01*
X83645261Y-53271510D01*
X83614500Y-53426153D01*
X83614500Y-53583846D01*
X83645261Y-53738489D01*
X83645264Y-53738501D01*
X83705602Y-53884172D01*
X83705609Y-53884185D01*
X83793210Y-54015288D01*
X83793213Y-54015292D01*
X83904707Y-54126786D01*
X83904711Y-54126789D01*
X84035814Y-54214390D01*
X84035827Y-54214397D01*
X84181498Y-54274735D01*
X84181503Y-54274737D01*
X84336153Y-54305499D01*
X84336156Y-54305500D01*
X84336158Y-54305500D01*
X84493844Y-54305500D01*
X84493845Y-54305499D01*
X84648497Y-54274737D01*
X84794179Y-54214394D01*
X84925289Y-54126789D01*
X84925292Y-54126786D01*
X84935260Y-54116819D01*
X84996583Y-54083334D01*
X85022941Y-54080500D01*
X87728776Y-54080500D01*
X87795815Y-54100185D01*
X87839260Y-54148206D01*
X87845476Y-54160405D01*
X87845478Y-54160409D01*
X87884704Y-54214397D01*
X87961172Y-54319646D01*
X88100354Y-54458828D01*
X88259595Y-54574524D01*
X88382992Y-54637397D01*
X88436213Y-54664515D01*
X88487009Y-54712489D01*
X88503804Y-54780310D01*
X88481267Y-54846445D01*
X88436213Y-54885485D01*
X88259594Y-54975476D01*
X88168741Y-55041485D01*
X88100354Y-55091172D01*
X88100352Y-55091174D01*
X88100351Y-55091174D01*
X87961174Y-55230351D01*
X87961174Y-55230352D01*
X87961172Y-55230354D01*
X87932144Y-55270307D01*
X87845478Y-55389590D01*
X87845476Y-55389595D01*
X87839260Y-55401793D01*
X87791289Y-55452589D01*
X87728776Y-55469500D01*
X83522941Y-55469500D01*
X83455902Y-55449815D01*
X83435260Y-55433181D01*
X83425292Y-55423213D01*
X83425288Y-55423210D01*
X83294185Y-55335609D01*
X83294172Y-55335602D01*
X83148501Y-55275264D01*
X83148489Y-55275261D01*
X82993845Y-55244500D01*
X82993842Y-55244500D01*
X82836158Y-55244500D01*
X82836155Y-55244500D01*
X82681510Y-55275261D01*
X82681498Y-55275264D01*
X82535827Y-55335602D01*
X82535814Y-55335609D01*
X82404711Y-55423210D01*
X82404707Y-55423213D01*
X82293213Y-55534707D01*
X82293210Y-55534711D01*
X82205609Y-55665814D01*
X82205602Y-55665827D01*
X82145264Y-55811498D01*
X82145261Y-55811510D01*
X82114500Y-55966153D01*
X82114500Y-56123846D01*
X82145261Y-56278489D01*
X82145264Y-56278501D01*
X82205602Y-56424172D01*
X82205609Y-56424185D01*
X82293210Y-56555288D01*
X82293213Y-56555292D01*
X82404707Y-56666786D01*
X82404711Y-56666789D01*
X82535814Y-56754390D01*
X82535827Y-56754397D01*
X82681498Y-56814735D01*
X82681503Y-56814737D01*
X82836153Y-56845499D01*
X82836156Y-56845500D01*
X82836158Y-56845500D01*
X82993844Y-56845500D01*
X82993845Y-56845499D01*
X83148497Y-56814737D01*
X83294179Y-56754394D01*
X83425289Y-56666789D01*
X83425292Y-56666786D01*
X83435260Y-56656819D01*
X83496583Y-56623334D01*
X83522941Y-56620500D01*
X87728776Y-56620500D01*
X87795815Y-56640185D01*
X87839260Y-56688206D01*
X87845476Y-56700405D01*
X87845478Y-56700409D01*
X87884704Y-56754397D01*
X87961172Y-56859646D01*
X88100354Y-56998828D01*
X88259595Y-57114524D01*
X88382992Y-57177397D01*
X88436213Y-57204515D01*
X88487009Y-57252489D01*
X88503804Y-57320310D01*
X88481267Y-57386445D01*
X88436213Y-57425485D01*
X88259594Y-57515476D01*
X88168741Y-57581485D01*
X88100354Y-57631172D01*
X88100352Y-57631174D01*
X88100351Y-57631174D01*
X87961174Y-57770351D01*
X87961174Y-57770352D01*
X87961172Y-57770354D01*
X87932144Y-57810307D01*
X87845478Y-57929590D01*
X87845476Y-57929595D01*
X87839260Y-57941793D01*
X87791289Y-57992589D01*
X87728776Y-58009500D01*
X82022941Y-58009500D01*
X81955902Y-57989815D01*
X81935260Y-57973181D01*
X81925292Y-57963213D01*
X81925288Y-57963210D01*
X81794185Y-57875609D01*
X81794172Y-57875602D01*
X81648501Y-57815264D01*
X81648489Y-57815261D01*
X81493845Y-57784500D01*
X81493842Y-57784500D01*
X81336158Y-57784500D01*
X81336155Y-57784500D01*
X81181510Y-57815261D01*
X81181498Y-57815264D01*
X81035827Y-57875602D01*
X81035814Y-57875609D01*
X80904711Y-57963210D01*
X80904707Y-57963213D01*
X80793213Y-58074707D01*
X80793210Y-58074711D01*
X80705609Y-58205814D01*
X80705602Y-58205827D01*
X80645264Y-58351498D01*
X80645261Y-58351510D01*
X80614500Y-58506153D01*
X80614500Y-58663846D01*
X80645261Y-58818489D01*
X80645264Y-58818501D01*
X80705602Y-58964172D01*
X80705609Y-58964185D01*
X80793210Y-59095288D01*
X80793213Y-59095292D01*
X80904707Y-59206786D01*
X80904711Y-59206789D01*
X81035814Y-59294390D01*
X81035827Y-59294397D01*
X81181498Y-59354735D01*
X81181503Y-59354737D01*
X81336153Y-59385499D01*
X81336156Y-59385500D01*
X81336158Y-59385500D01*
X81493844Y-59385500D01*
X81493845Y-59385499D01*
X81648497Y-59354737D01*
X81794179Y-59294394D01*
X81925289Y-59206789D01*
X81925292Y-59206786D01*
X81935260Y-59196819D01*
X81996583Y-59163334D01*
X82022941Y-59160500D01*
X87728776Y-59160500D01*
X87795815Y-59180185D01*
X87839260Y-59228206D01*
X87845476Y-59240405D01*
X87845478Y-59240409D01*
X87884704Y-59294397D01*
X87961172Y-59399646D01*
X88100354Y-59538828D01*
X88259595Y-59654524D01*
X88382992Y-59717397D01*
X88436213Y-59744515D01*
X88487009Y-59792489D01*
X88503804Y-59860310D01*
X88481267Y-59926445D01*
X88436213Y-59965485D01*
X88259594Y-60055476D01*
X88168741Y-60121485D01*
X88100354Y-60171172D01*
X88100352Y-60171174D01*
X88100351Y-60171174D01*
X87961174Y-60310351D01*
X87961174Y-60310352D01*
X87961172Y-60310354D01*
X87911485Y-60378741D01*
X87845476Y-60469594D01*
X87756117Y-60644970D01*
X87695290Y-60832173D01*
X87664500Y-61026577D01*
X87664500Y-61223422D01*
X87695290Y-61417826D01*
X87756117Y-61605029D01*
X87845476Y-61780405D01*
X87961172Y-61939646D01*
X88100354Y-62078828D01*
X88259595Y-62194524D01*
X88382992Y-62257397D01*
X88436213Y-62284515D01*
X88487009Y-62332489D01*
X88503804Y-62400310D01*
X88481267Y-62466445D01*
X88436213Y-62505485D01*
X88259594Y-62595476D01*
X88168741Y-62661485D01*
X88100354Y-62711172D01*
X88100352Y-62711174D01*
X88100351Y-62711174D01*
X87961174Y-62850351D01*
X87961174Y-62850352D01*
X87961172Y-62850354D01*
X87911485Y-62918741D01*
X87845476Y-63009594D01*
X87756117Y-63184970D01*
X87695290Y-63372173D01*
X87664500Y-63566577D01*
X87664500Y-63763422D01*
X87695290Y-63957826D01*
X87756117Y-64145029D01*
X87845476Y-64320405D01*
X87961172Y-64479646D01*
X88100354Y-64618828D01*
X88259595Y-64734524D01*
X88342455Y-64776743D01*
X88434970Y-64823882D01*
X88434972Y-64823882D01*
X88434975Y-64823884D01*
X88535317Y-64856487D01*
X88622173Y-64884709D01*
X88816578Y-64915500D01*
X88816583Y-64915500D01*
X89013422Y-64915500D01*
X89207826Y-64884709D01*
X89245435Y-64872489D01*
X89395025Y-64823884D01*
X89570405Y-64734524D01*
X89729646Y-64618828D01*
X89868828Y-64479646D01*
X89984524Y-64320405D01*
X90073884Y-64145025D01*
X90134709Y-63957826D01*
X90165500Y-63763422D01*
X90165500Y-63566577D01*
X90134709Y-63372173D01*
X90073882Y-63184970D01*
X89984523Y-63009594D01*
X89868828Y-62850354D01*
X89729646Y-62711172D01*
X89650025Y-62653324D01*
X89570403Y-62595474D01*
X89393787Y-62505485D01*
X89342990Y-62457511D01*
X89326195Y-62389690D01*
X89348732Y-62323555D01*
X89393787Y-62284515D01*
X89570403Y-62194525D01*
X89570402Y-62194525D01*
X89570405Y-62194524D01*
X89729646Y-62078828D01*
X89868828Y-61939646D01*
X89984524Y-61780405D01*
X90073884Y-61605025D01*
X90134709Y-61417826D01*
X90165500Y-61223422D01*
X90165500Y-61026577D01*
X90134709Y-60832173D01*
X90073882Y-60644970D01*
X89984523Y-60469594D01*
X89868828Y-60310354D01*
X89729646Y-60171172D01*
X89650025Y-60113324D01*
X89570403Y-60055474D01*
X89393787Y-59965485D01*
X89342990Y-59917511D01*
X89326195Y-59849690D01*
X89348732Y-59783555D01*
X89393787Y-59744515D01*
X89570403Y-59654525D01*
X89570402Y-59654525D01*
X89570405Y-59654524D01*
X89729646Y-59538828D01*
X89868828Y-59399646D01*
X89984524Y-59240405D01*
X90073884Y-59065025D01*
X90134709Y-58877826D01*
X90144107Y-58818489D01*
X90165500Y-58683422D01*
X90165500Y-58486577D01*
X90134709Y-58292173D01*
X90073882Y-58104970D01*
X90001652Y-57963211D01*
X89984524Y-57929595D01*
X89868828Y-57770354D01*
X89729646Y-57631172D01*
X89650025Y-57573324D01*
X89570403Y-57515474D01*
X89393787Y-57425485D01*
X89342990Y-57377511D01*
X89326195Y-57309690D01*
X89348732Y-57243555D01*
X89393787Y-57204515D01*
X89570403Y-57114525D01*
X89570402Y-57114525D01*
X89570405Y-57114524D01*
X89729646Y-56998828D01*
X89868828Y-56859646D01*
X89984524Y-56700405D01*
X90073884Y-56525025D01*
X90134709Y-56337826D01*
X90144107Y-56278489D01*
X90165500Y-56143422D01*
X90165500Y-55946577D01*
X90134709Y-55752173D01*
X90073882Y-55564970D01*
X90001652Y-55423211D01*
X89984524Y-55389595D01*
X89868828Y-55230354D01*
X89729646Y-55091172D01*
X89650025Y-55033324D01*
X89570403Y-54975474D01*
X89393787Y-54885485D01*
X89342990Y-54837511D01*
X89326195Y-54769690D01*
X89348732Y-54703555D01*
X89393787Y-54664515D01*
X89570403Y-54574525D01*
X89570402Y-54574525D01*
X89570405Y-54574524D01*
X89729646Y-54458828D01*
X89868828Y-54319646D01*
X89984524Y-54160405D01*
X90073884Y-53985025D01*
X90134709Y-53797826D01*
X90144107Y-53738489D01*
X90165500Y-53603422D01*
X90165500Y-53406577D01*
X90134709Y-53212173D01*
X90073882Y-53024970D01*
X90001652Y-52883211D01*
X89984524Y-52849595D01*
X89868828Y-52690354D01*
X89729646Y-52551172D01*
X89650025Y-52493324D01*
X89570403Y-52435474D01*
X89393787Y-52345485D01*
X89342990Y-52297511D01*
X89326195Y-52229690D01*
X89348732Y-52163555D01*
X89393787Y-52124515D01*
X89570403Y-52034525D01*
X89570402Y-52034525D01*
X89570405Y-52034524D01*
X89729646Y-51918828D01*
X89868828Y-51779646D01*
X89984524Y-51620405D01*
X90073884Y-51445025D01*
X90134709Y-51257826D01*
X90144107Y-51198489D01*
X90165500Y-51063422D01*
X90165500Y-50866577D01*
X90134709Y-50672173D01*
X90073882Y-50484970D01*
X90001652Y-50343211D01*
X89984524Y-50309595D01*
X89868828Y-50150354D01*
X89729646Y-50011172D01*
X89650025Y-49953324D01*
X89570403Y-49895474D01*
X89393787Y-49805485D01*
X89342990Y-49757511D01*
X89326195Y-49689690D01*
X89348732Y-49623555D01*
X89393787Y-49584515D01*
X89570403Y-49494525D01*
X89570402Y-49494525D01*
X89570405Y-49494524D01*
X89729646Y-49378828D01*
X89868828Y-49239646D01*
X89984524Y-49080405D01*
X90073884Y-48905025D01*
X90134709Y-48717826D01*
X90144107Y-48658489D01*
X90165500Y-48523422D01*
X90165500Y-48326577D01*
X113064500Y-48326577D01*
X113064500Y-48523422D01*
X113095290Y-48717826D01*
X113156117Y-48905029D01*
X113223268Y-49036819D01*
X113245476Y-49080405D01*
X113361172Y-49239646D01*
X113500354Y-49378828D01*
X113659595Y-49494524D01*
X113782992Y-49557397D01*
X113836213Y-49584515D01*
X113887009Y-49632489D01*
X113903804Y-49700310D01*
X113881267Y-49766445D01*
X113836213Y-49805485D01*
X113659594Y-49895476D01*
X113568741Y-49961485D01*
X113500354Y-50011172D01*
X113500352Y-50011174D01*
X113500351Y-50011174D01*
X113361174Y-50150351D01*
X113361174Y-50150352D01*
X113361172Y-50150354D01*
X113328545Y-50195261D01*
X113245476Y-50309594D01*
X113156117Y-50484970D01*
X113095290Y-50672173D01*
X113064500Y-50866577D01*
X113064500Y-51063422D01*
X113095290Y-51257826D01*
X113156117Y-51445029D01*
X113223268Y-51576819D01*
X113245476Y-51620405D01*
X113361172Y-51779646D01*
X113500354Y-51918828D01*
X113659595Y-52034524D01*
X113782992Y-52097397D01*
X113836213Y-52124515D01*
X113887009Y-52172489D01*
X113903804Y-52240310D01*
X113881267Y-52306445D01*
X113836213Y-52345485D01*
X113659594Y-52435476D01*
X113568741Y-52501485D01*
X113500354Y-52551172D01*
X113500352Y-52551174D01*
X113500351Y-52551174D01*
X113361174Y-52690351D01*
X113361174Y-52690352D01*
X113361172Y-52690354D01*
X113328545Y-52735261D01*
X113245476Y-52849594D01*
X113156117Y-53024970D01*
X113095290Y-53212173D01*
X113064500Y-53406577D01*
X113064500Y-53603422D01*
X113095290Y-53797826D01*
X113156117Y-53985029D01*
X113223268Y-54116819D01*
X113245476Y-54160405D01*
X113361172Y-54319646D01*
X113500354Y-54458828D01*
X113659595Y-54574524D01*
X113782992Y-54637397D01*
X113836213Y-54664515D01*
X113887009Y-54712489D01*
X113903804Y-54780310D01*
X113881267Y-54846445D01*
X113836213Y-54885485D01*
X113659594Y-54975476D01*
X113568741Y-55041485D01*
X113500354Y-55091172D01*
X113500352Y-55091174D01*
X113500351Y-55091174D01*
X113361174Y-55230351D01*
X113361174Y-55230352D01*
X113361172Y-55230354D01*
X113328545Y-55275261D01*
X113245476Y-55389594D01*
X113156117Y-55564970D01*
X113095290Y-55752173D01*
X113064500Y-55946577D01*
X113064500Y-56143422D01*
X113095290Y-56337826D01*
X113156117Y-56525029D01*
X113223268Y-56656819D01*
X113245476Y-56700405D01*
X113361172Y-56859646D01*
X113500354Y-56998828D01*
X113659595Y-57114524D01*
X113782992Y-57177397D01*
X113836213Y-57204515D01*
X113887009Y-57252489D01*
X113903804Y-57320310D01*
X113881267Y-57386445D01*
X113836213Y-57425485D01*
X113659594Y-57515476D01*
X113568741Y-57581485D01*
X113500354Y-57631172D01*
X113500352Y-57631174D01*
X113500351Y-57631174D01*
X113361174Y-57770351D01*
X113361174Y-57770352D01*
X113361172Y-57770354D01*
X113328545Y-57815261D01*
X113245476Y-57929594D01*
X113156117Y-58104970D01*
X113095290Y-58292173D01*
X113064500Y-58486577D01*
X113064500Y-58683422D01*
X113095290Y-58877826D01*
X113156117Y-59065029D01*
X113223268Y-59196819D01*
X113245476Y-59240405D01*
X113361172Y-59399646D01*
X113500354Y-59538828D01*
X113659595Y-59654524D01*
X113782992Y-59717397D01*
X113836213Y-59744515D01*
X113887009Y-59792489D01*
X113903804Y-59860310D01*
X113881267Y-59926445D01*
X113836213Y-59965485D01*
X113659594Y-60055476D01*
X113568741Y-60121485D01*
X113500354Y-60171172D01*
X113500352Y-60171174D01*
X113500351Y-60171174D01*
X113361174Y-60310351D01*
X113361174Y-60310352D01*
X113361172Y-60310354D01*
X113311485Y-60378741D01*
X113245476Y-60469594D01*
X113156117Y-60644970D01*
X113095290Y-60832173D01*
X113064500Y-61026577D01*
X113064500Y-61223422D01*
X113095290Y-61417826D01*
X113156117Y-61605029D01*
X113245476Y-61780405D01*
X113361172Y-61939646D01*
X113500354Y-62078828D01*
X113659595Y-62194524D01*
X113782992Y-62257397D01*
X113836213Y-62284515D01*
X113887009Y-62332489D01*
X113903804Y-62400310D01*
X113881267Y-62466445D01*
X113836213Y-62505485D01*
X113659594Y-62595476D01*
X113568741Y-62661485D01*
X113500354Y-62711172D01*
X113500352Y-62711174D01*
X113500351Y-62711174D01*
X113361174Y-62850351D01*
X113361174Y-62850352D01*
X113361172Y-62850354D01*
X113311485Y-62918741D01*
X113245476Y-63009594D01*
X113156117Y-63184970D01*
X113095290Y-63372173D01*
X113064500Y-63566577D01*
X113064500Y-63763422D01*
X113095290Y-63957826D01*
X113156117Y-64145029D01*
X113245476Y-64320405D01*
X113361172Y-64479646D01*
X113500354Y-64618828D01*
X113659595Y-64734524D01*
X113782992Y-64797397D01*
X113836213Y-64824515D01*
X113887009Y-64872489D01*
X113903804Y-64940310D01*
X113881267Y-65006445D01*
X113836213Y-65045485D01*
X113659594Y-65135476D01*
X113568741Y-65201485D01*
X113500354Y-65251172D01*
X113500352Y-65251174D01*
X113500351Y-65251174D01*
X113361174Y-65390351D01*
X113361174Y-65390352D01*
X113361172Y-65390354D01*
X113311485Y-65458741D01*
X113245476Y-65549594D01*
X113156117Y-65724970D01*
X113095290Y-65912173D01*
X113064500Y-66106577D01*
X113064500Y-66303422D01*
X113095290Y-66497826D01*
X113156117Y-66685029D01*
X113245476Y-66860405D01*
X113361172Y-67019646D01*
X113500354Y-67158828D01*
X113659595Y-67274524D01*
X113782992Y-67337397D01*
X113836213Y-67364515D01*
X113887009Y-67412489D01*
X113903804Y-67480310D01*
X113881267Y-67546445D01*
X113836213Y-67585485D01*
X113659594Y-67675476D01*
X113568741Y-67741485D01*
X113500354Y-67791172D01*
X113500352Y-67791174D01*
X113500351Y-67791174D01*
X113361174Y-67930351D01*
X113361174Y-67930352D01*
X113361172Y-67930354D01*
X113328545Y-67975261D01*
X113245476Y-68089594D01*
X113156117Y-68264970D01*
X113095290Y-68452173D01*
X113064500Y-68646577D01*
X113064500Y-68843422D01*
X113095290Y-69037826D01*
X113156117Y-69225029D01*
X113223268Y-69356819D01*
X113245476Y-69400405D01*
X113361172Y-69559646D01*
X113500354Y-69698828D01*
X113659595Y-69814524D01*
X113742455Y-69856743D01*
X113834970Y-69903882D01*
X113834972Y-69903882D01*
X113834975Y-69903884D01*
X113935317Y-69936487D01*
X114022173Y-69964709D01*
X114216578Y-69995500D01*
X114216583Y-69995500D01*
X114413422Y-69995500D01*
X114607826Y-69964709D01*
X114795025Y-69903884D01*
X114970405Y-69814524D01*
X115129646Y-69698828D01*
X115268828Y-69559646D01*
X115384524Y-69400405D01*
X115473884Y-69225025D01*
X115534709Y-69037826D01*
X115544107Y-68978489D01*
X115565500Y-68843422D01*
X115565500Y-68646577D01*
X115534709Y-68452173D01*
X115473882Y-68264970D01*
X115401652Y-68123211D01*
X115384524Y-68089595D01*
X115268828Y-67930354D01*
X115129646Y-67791172D01*
X115050025Y-67733324D01*
X114970403Y-67675474D01*
X114793787Y-67585485D01*
X114742990Y-67537511D01*
X114726195Y-67469690D01*
X114748732Y-67403555D01*
X114793787Y-67364515D01*
X114970403Y-67274525D01*
X114970402Y-67274525D01*
X114970405Y-67274524D01*
X115129646Y-67158828D01*
X115268828Y-67019646D01*
X115384524Y-66860405D01*
X115473884Y-66685025D01*
X115534709Y-66497826D01*
X115565500Y-66303422D01*
X115565500Y-66106577D01*
X115534709Y-65912173D01*
X115473882Y-65724970D01*
X115384523Y-65549594D01*
X115268828Y-65390354D01*
X115129646Y-65251172D01*
X115050025Y-65193324D01*
X114970403Y-65135474D01*
X114793787Y-65045485D01*
X114742990Y-64997511D01*
X114726195Y-64929690D01*
X114748732Y-64863555D01*
X114793787Y-64824515D01*
X114970403Y-64734525D01*
X114970402Y-64734525D01*
X114970405Y-64734524D01*
X115129646Y-64618828D01*
X115268828Y-64479646D01*
X115384524Y-64320405D01*
X115473884Y-64145025D01*
X115534709Y-63957826D01*
X115565500Y-63763422D01*
X115565500Y-63566577D01*
X115534709Y-63372173D01*
X115473882Y-63184970D01*
X115384523Y-63009594D01*
X115268828Y-62850354D01*
X115129646Y-62711172D01*
X115050025Y-62653324D01*
X114970403Y-62595474D01*
X114793787Y-62505485D01*
X114742990Y-62457511D01*
X114726195Y-62389690D01*
X114748732Y-62323555D01*
X114793787Y-62284515D01*
X114970403Y-62194525D01*
X114970402Y-62194525D01*
X114970405Y-62194524D01*
X115129646Y-62078828D01*
X115268828Y-61939646D01*
X115384524Y-61780405D01*
X115473884Y-61605025D01*
X115534709Y-61417826D01*
X115565500Y-61223422D01*
X115565500Y-61026577D01*
X115534709Y-60832173D01*
X115473882Y-60644970D01*
X115384523Y-60469594D01*
X115268828Y-60310354D01*
X115129646Y-60171172D01*
X115050025Y-60113324D01*
X114970403Y-60055474D01*
X114793787Y-59965485D01*
X114742990Y-59917511D01*
X114726195Y-59849690D01*
X114748732Y-59783555D01*
X114793787Y-59744515D01*
X114970403Y-59654525D01*
X114970402Y-59654525D01*
X114970405Y-59654524D01*
X115129646Y-59538828D01*
X115268828Y-59399646D01*
X115384524Y-59240405D01*
X115473884Y-59065025D01*
X115534709Y-58877826D01*
X115544107Y-58818489D01*
X115565500Y-58683422D01*
X115565500Y-58486577D01*
X115534709Y-58292173D01*
X115473882Y-58104970D01*
X115401652Y-57963211D01*
X115384524Y-57929595D01*
X115268828Y-57770354D01*
X115129646Y-57631172D01*
X115050025Y-57573324D01*
X114970403Y-57515474D01*
X114793787Y-57425485D01*
X114742990Y-57377511D01*
X114726195Y-57309690D01*
X114748732Y-57243555D01*
X114793787Y-57204515D01*
X114970403Y-57114525D01*
X114970402Y-57114525D01*
X114970405Y-57114524D01*
X115129646Y-56998828D01*
X115268828Y-56859646D01*
X115384524Y-56700405D01*
X115473884Y-56525025D01*
X115534709Y-56337826D01*
X115544107Y-56278489D01*
X115565500Y-56143422D01*
X115565500Y-55946577D01*
X115534709Y-55752173D01*
X115473882Y-55564970D01*
X115401652Y-55423211D01*
X115384524Y-55389595D01*
X115268828Y-55230354D01*
X115129646Y-55091172D01*
X115050025Y-55033324D01*
X114970403Y-54975474D01*
X114793787Y-54885485D01*
X114742990Y-54837511D01*
X114726195Y-54769690D01*
X114748732Y-54703555D01*
X114793787Y-54664515D01*
X114970403Y-54574525D01*
X114970402Y-54574525D01*
X114970405Y-54574524D01*
X115129646Y-54458828D01*
X115268828Y-54319646D01*
X115384524Y-54160405D01*
X115473884Y-53985025D01*
X115534709Y-53797826D01*
X115544107Y-53738489D01*
X115565500Y-53603422D01*
X115565500Y-53406577D01*
X115534709Y-53212173D01*
X115473882Y-53024970D01*
X115401652Y-52883211D01*
X115384524Y-52849595D01*
X115268828Y-52690354D01*
X115129646Y-52551172D01*
X115050025Y-52493324D01*
X114970403Y-52435474D01*
X114793787Y-52345485D01*
X114742990Y-52297511D01*
X114726195Y-52229690D01*
X114748732Y-52163555D01*
X114793787Y-52124515D01*
X114970403Y-52034525D01*
X114970402Y-52034525D01*
X114970405Y-52034524D01*
X115129646Y-51918828D01*
X115268828Y-51779646D01*
X115384524Y-51620405D01*
X115390739Y-51608206D01*
X115438711Y-51557411D01*
X115501224Y-51540500D01*
X116707059Y-51540500D01*
X116774098Y-51560185D01*
X116794740Y-51576819D01*
X116804707Y-51586786D01*
X116804711Y-51586789D01*
X116935814Y-51674390D01*
X116935827Y-51674397D01*
X117081498Y-51734735D01*
X117081503Y-51734737D01*
X117236153Y-51765499D01*
X117236156Y-51765500D01*
X117236158Y-51765500D01*
X117393844Y-51765500D01*
X117393845Y-51765499D01*
X117548497Y-51734737D01*
X117694179Y-51674394D01*
X117825289Y-51586789D01*
X117936789Y-51475289D01*
X118024394Y-51344179D01*
X118084737Y-51198497D01*
X118115500Y-51043842D01*
X118115500Y-50886158D01*
X118115500Y-50886155D01*
X118115499Y-50886153D01*
X118084738Y-50731510D01*
X118084737Y-50731503D01*
X118084735Y-50731498D01*
X118024397Y-50585827D01*
X118024390Y-50585814D01*
X117936789Y-50454711D01*
X117936786Y-50454707D01*
X117825292Y-50343213D01*
X117825288Y-50343210D01*
X117694185Y-50255609D01*
X117694172Y-50255602D01*
X117548501Y-50195264D01*
X117548489Y-50195261D01*
X117393845Y-50164500D01*
X117393842Y-50164500D01*
X117236158Y-50164500D01*
X117236155Y-50164500D01*
X117081510Y-50195261D01*
X117081498Y-50195264D01*
X116935827Y-50255602D01*
X116935814Y-50255609D01*
X116804711Y-50343210D01*
X116804707Y-50343213D01*
X116794740Y-50353181D01*
X116733417Y-50386666D01*
X116707059Y-50389500D01*
X115501224Y-50389500D01*
X115434185Y-50369815D01*
X115390739Y-50321793D01*
X115384524Y-50309595D01*
X115384521Y-50309592D01*
X115384521Y-50309590D01*
X115345298Y-50255606D01*
X115268828Y-50150354D01*
X115129646Y-50011172D01*
X115050025Y-49953324D01*
X114970403Y-49895474D01*
X114793787Y-49805485D01*
X114742990Y-49757511D01*
X114726195Y-49689690D01*
X114748732Y-49623555D01*
X114793787Y-49584515D01*
X114970403Y-49494525D01*
X114970402Y-49494525D01*
X114970405Y-49494524D01*
X115129646Y-49378828D01*
X115268828Y-49239646D01*
X115384524Y-49080405D01*
X115390739Y-49068206D01*
X115438711Y-49017411D01*
X115501224Y-49000500D01*
X118207059Y-49000500D01*
X118274098Y-49020185D01*
X118294740Y-49036819D01*
X118304707Y-49046786D01*
X118304711Y-49046789D01*
X118435814Y-49134390D01*
X118435827Y-49134397D01*
X118581498Y-49194735D01*
X118581503Y-49194737D01*
X118736153Y-49225499D01*
X118736156Y-49225500D01*
X118736158Y-49225500D01*
X118893844Y-49225500D01*
X118893845Y-49225499D01*
X119048497Y-49194737D01*
X119194179Y-49134394D01*
X119325289Y-49046789D01*
X119436789Y-48935289D01*
X119524394Y-48804179D01*
X119584737Y-48658497D01*
X119615500Y-48503842D01*
X119615500Y-48346158D01*
X119615500Y-48346155D01*
X119615499Y-48346153D01*
X119584738Y-48191510D01*
X119584737Y-48191503D01*
X119584735Y-48191498D01*
X119524397Y-48045827D01*
X119524390Y-48045814D01*
X119436789Y-47914711D01*
X119436786Y-47914707D01*
X119325292Y-47803213D01*
X119325288Y-47803210D01*
X119194185Y-47715609D01*
X119194172Y-47715602D01*
X119048501Y-47655264D01*
X119048489Y-47655261D01*
X118893845Y-47624500D01*
X118893842Y-47624500D01*
X118736158Y-47624500D01*
X118736155Y-47624500D01*
X118581510Y-47655261D01*
X118581498Y-47655264D01*
X118435827Y-47715602D01*
X118435814Y-47715609D01*
X118304711Y-47803210D01*
X118304707Y-47803213D01*
X118294740Y-47813181D01*
X118233417Y-47846666D01*
X118207059Y-47849500D01*
X115501224Y-47849500D01*
X115434185Y-47829815D01*
X115390739Y-47781793D01*
X115384524Y-47769595D01*
X115384521Y-47769592D01*
X115384521Y-47769590D01*
X115345298Y-47715606D01*
X115268828Y-47610354D01*
X115129646Y-47471172D01*
X114970405Y-47355476D01*
X114970401Y-47355474D01*
X114795029Y-47266117D01*
X114607826Y-47205290D01*
X114413422Y-47174500D01*
X114413417Y-47174500D01*
X114216583Y-47174500D01*
X114216578Y-47174500D01*
X114022173Y-47205290D01*
X113834970Y-47266117D01*
X113659594Y-47355476D01*
X113568741Y-47421485D01*
X113500354Y-47471172D01*
X113500352Y-47471174D01*
X113500351Y-47471174D01*
X113361174Y-47610351D01*
X113361174Y-47610352D01*
X113361172Y-47610354D01*
X113328545Y-47655261D01*
X113245476Y-47769594D01*
X113156117Y-47944970D01*
X113095290Y-48132173D01*
X113064500Y-48326577D01*
X90165500Y-48326577D01*
X90134709Y-48132173D01*
X90073882Y-47944970D01*
X90001652Y-47803211D01*
X89984524Y-47769595D01*
X89868828Y-47610354D01*
X89729646Y-47471172D01*
X89650025Y-47413324D01*
X89570403Y-47355474D01*
X89393787Y-47265485D01*
X89342990Y-47217511D01*
X89326195Y-47149690D01*
X89348732Y-47083555D01*
X89393787Y-47044515D01*
X89570403Y-46954525D01*
X89570402Y-46954525D01*
X89570405Y-46954524D01*
X89729646Y-46838828D01*
X89868828Y-46699646D01*
X89984524Y-46540405D01*
X90073884Y-46365025D01*
X90134709Y-46177826D01*
X90165500Y-45983422D01*
X90165500Y-45786577D01*
X90134709Y-45592173D01*
X90073882Y-45404970D01*
X89984523Y-45229594D01*
X89868828Y-45070354D01*
X89729646Y-44931172D01*
X89650025Y-44873324D01*
X89570403Y-44815474D01*
X89393787Y-44725485D01*
X89342990Y-44677511D01*
X89326195Y-44609690D01*
X89348732Y-44543555D01*
X89393787Y-44504515D01*
X89570403Y-44414525D01*
X89570402Y-44414525D01*
X89570405Y-44414524D01*
X89729646Y-44298828D01*
X89868828Y-44159646D01*
X89984524Y-44000405D01*
X90073884Y-43825025D01*
X90134709Y-43637826D01*
X90165500Y-43443422D01*
X90165500Y-43246577D01*
X90134709Y-43052173D01*
X90073882Y-42864970D01*
X89984523Y-42689594D01*
X89868828Y-42530354D01*
X89729646Y-42391172D01*
X89650025Y-42333324D01*
X89570403Y-42275474D01*
X89393787Y-42185485D01*
X89342990Y-42137511D01*
X89326195Y-42069690D01*
X89348732Y-42003555D01*
X89393787Y-41964515D01*
X89570403Y-41874525D01*
X89570402Y-41874525D01*
X89570405Y-41874524D01*
X89729646Y-41758828D01*
X89868828Y-41619646D01*
X89984524Y-41460405D01*
X90073884Y-41285025D01*
X90134709Y-41097826D01*
X90165500Y-40903422D01*
X90165500Y-40706577D01*
X90134709Y-40512173D01*
X90073882Y-40324970D01*
X89984523Y-40149594D01*
X89868828Y-39990354D01*
X89729646Y-39851172D01*
X89650025Y-39793324D01*
X89570403Y-39735474D01*
X89393787Y-39645485D01*
X89342990Y-39597511D01*
X89326195Y-39529690D01*
X89348732Y-39463555D01*
X89393787Y-39424515D01*
X89570403Y-39334525D01*
X89570402Y-39334525D01*
X89570405Y-39334524D01*
X89729646Y-39218828D01*
X89868828Y-39079646D01*
X89984524Y-38920405D01*
X90073884Y-38745025D01*
X90134709Y-38557826D01*
X90165500Y-38363422D01*
X90165500Y-38166577D01*
X90134709Y-37972173D01*
X90073882Y-37784970D01*
X89984523Y-37609594D01*
X89868828Y-37450354D01*
X89729646Y-37311172D01*
X89650025Y-37253324D01*
X89570403Y-37195474D01*
X89393787Y-37105485D01*
X89342990Y-37057511D01*
X89326195Y-36989690D01*
X89348732Y-36923555D01*
X89393787Y-36884515D01*
X89570403Y-36794525D01*
X89570402Y-36794525D01*
X89570405Y-36794524D01*
X89729646Y-36678828D01*
X89868828Y-36539646D01*
X89984524Y-36380405D01*
X90073884Y-36205025D01*
X90134709Y-36017826D01*
X90165500Y-35823422D01*
X90165500Y-35626577D01*
X90134709Y-35432173D01*
X90073882Y-35244970D01*
X89984523Y-35069594D01*
X89868828Y-34910354D01*
X89729646Y-34771172D01*
X89576377Y-34659815D01*
X89533714Y-34604487D01*
X89527735Y-34534873D01*
X89560341Y-34473078D01*
X89621180Y-34438721D01*
X89649264Y-34435499D01*
X89796518Y-34435499D01*
X89890304Y-34420646D01*
X90003342Y-34363050D01*
X90093050Y-34273342D01*
X90150646Y-34160304D01*
X90150646Y-34160302D01*
X90150647Y-34160301D01*
X90165499Y-34066524D01*
X90165500Y-34066519D01*
X90165499Y-32303482D01*
X90165498Y-32303475D01*
X113064500Y-32303475D01*
X113064500Y-34066517D01*
X113075292Y-34134657D01*
X113079354Y-34160304D01*
X113136950Y-34273342D01*
X113136952Y-34273344D01*
X113136954Y-34273347D01*
X113226652Y-34363045D01*
X113226654Y-34363046D01*
X113226658Y-34363050D01*
X113339694Y-34420645D01*
X113339698Y-34420647D01*
X113433475Y-34435499D01*
X113433481Y-34435500D01*
X113580735Y-34435499D01*
X113647772Y-34455183D01*
X113693527Y-34507987D01*
X113703471Y-34577145D01*
X113674446Y-34640701D01*
X113653619Y-34659816D01*
X113500360Y-34771167D01*
X113500351Y-34771174D01*
X113361174Y-34910351D01*
X113361174Y-34910352D01*
X113361172Y-34910354D01*
X113311485Y-34978741D01*
X113245476Y-35069594D01*
X113156117Y-35244970D01*
X113095290Y-35432173D01*
X113064500Y-35626577D01*
X113064500Y-35823422D01*
X113095290Y-36017826D01*
X113156117Y-36205029D01*
X113245476Y-36380405D01*
X113361172Y-36539646D01*
X113500354Y-36678828D01*
X113659595Y-36794524D01*
X113782992Y-36857397D01*
X113836213Y-36884515D01*
X113887009Y-36932489D01*
X113903804Y-37000310D01*
X113881267Y-37066445D01*
X113836213Y-37105485D01*
X113659594Y-37195476D01*
X113568741Y-37261485D01*
X113500354Y-37311172D01*
X113500352Y-37311174D01*
X113500351Y-37311174D01*
X113361174Y-37450351D01*
X113361174Y-37450352D01*
X113361172Y-37450354D01*
X113311485Y-37518741D01*
X113245476Y-37609594D01*
X113156117Y-37784970D01*
X113095290Y-37972173D01*
X113064500Y-38166577D01*
X113064500Y-38363422D01*
X113095290Y-38557826D01*
X113156117Y-38745029D01*
X113245476Y-38920405D01*
X113361172Y-39079646D01*
X113500354Y-39218828D01*
X113659595Y-39334524D01*
X113782992Y-39397397D01*
X113836213Y-39424515D01*
X113887009Y-39472489D01*
X113903804Y-39540310D01*
X113881267Y-39606445D01*
X113836213Y-39645485D01*
X113659594Y-39735476D01*
X113568741Y-39801485D01*
X113500354Y-39851172D01*
X113500352Y-39851174D01*
X113500351Y-39851174D01*
X113361174Y-39990351D01*
X113361174Y-39990352D01*
X113361172Y-39990354D01*
X113311485Y-40058741D01*
X113245476Y-40149594D01*
X113156117Y-40324970D01*
X113095290Y-40512173D01*
X113064500Y-40706577D01*
X113064500Y-40903422D01*
X113095290Y-41097826D01*
X113156117Y-41285029D01*
X113245476Y-41460405D01*
X113361172Y-41619646D01*
X113500354Y-41758828D01*
X113659595Y-41874524D01*
X113782992Y-41937397D01*
X113836213Y-41964515D01*
X113887009Y-42012489D01*
X113903804Y-42080310D01*
X113881267Y-42146445D01*
X113836213Y-42185485D01*
X113659594Y-42275476D01*
X113568741Y-42341485D01*
X113500354Y-42391172D01*
X113500352Y-42391174D01*
X113500351Y-42391174D01*
X113361174Y-42530351D01*
X113361174Y-42530352D01*
X113361172Y-42530354D01*
X113311485Y-42598741D01*
X113245476Y-42689594D01*
X113156117Y-42864970D01*
X113095290Y-43052173D01*
X113064500Y-43246577D01*
X113064500Y-43443422D01*
X113095290Y-43637826D01*
X113156117Y-43825029D01*
X113245476Y-44000405D01*
X113361172Y-44159646D01*
X113500354Y-44298828D01*
X113659595Y-44414524D01*
X113742455Y-44456743D01*
X113834970Y-44503882D01*
X113834972Y-44503882D01*
X113834975Y-44503884D01*
X113935317Y-44536487D01*
X114022173Y-44564709D01*
X114216578Y-44595500D01*
X114216583Y-44595500D01*
X114413422Y-44595500D01*
X114607826Y-44564709D01*
X114645435Y-44552489D01*
X114795025Y-44503884D01*
X114970405Y-44414524D01*
X115129646Y-44298828D01*
X115268828Y-44159646D01*
X115384524Y-44000405D01*
X115473884Y-43825025D01*
X115534709Y-43637826D01*
X115565500Y-43443422D01*
X115565500Y-43246577D01*
X115534709Y-43052173D01*
X115473882Y-42864970D01*
X115384523Y-42689594D01*
X115268828Y-42530354D01*
X115129646Y-42391172D01*
X115050025Y-42333324D01*
X114970403Y-42275474D01*
X114793787Y-42185485D01*
X114742990Y-42137511D01*
X114726195Y-42069690D01*
X114748732Y-42003555D01*
X114793787Y-41964515D01*
X114970403Y-41874525D01*
X114970402Y-41874525D01*
X114970405Y-41874524D01*
X115129646Y-41758828D01*
X115268828Y-41619646D01*
X115384524Y-41460405D01*
X115473884Y-41285025D01*
X115534709Y-41097826D01*
X115565500Y-40903422D01*
X115565500Y-40706577D01*
X115534709Y-40512173D01*
X115473882Y-40324970D01*
X115384523Y-40149594D01*
X115268828Y-39990354D01*
X115129646Y-39851172D01*
X115050025Y-39793324D01*
X114970403Y-39735474D01*
X114793787Y-39645485D01*
X114742990Y-39597511D01*
X114726195Y-39529690D01*
X114748732Y-39463555D01*
X114793787Y-39424515D01*
X114970403Y-39334525D01*
X114970402Y-39334525D01*
X114970405Y-39334524D01*
X115129646Y-39218828D01*
X115268828Y-39079646D01*
X115384524Y-38920405D01*
X115473884Y-38745025D01*
X115534709Y-38557826D01*
X115565500Y-38363422D01*
X115565500Y-38166577D01*
X115534709Y-37972173D01*
X115473882Y-37784970D01*
X115384523Y-37609594D01*
X115268828Y-37450354D01*
X115129646Y-37311172D01*
X115050025Y-37253324D01*
X114970403Y-37195474D01*
X114793787Y-37105485D01*
X114742990Y-37057511D01*
X114726195Y-36989690D01*
X114748732Y-36923555D01*
X114793787Y-36884515D01*
X114970403Y-36794525D01*
X114970402Y-36794525D01*
X114970405Y-36794524D01*
X115129646Y-36678828D01*
X115268828Y-36539646D01*
X115384524Y-36380405D01*
X115473884Y-36205025D01*
X115534709Y-36017826D01*
X115565500Y-35823422D01*
X115565500Y-35626577D01*
X115534709Y-35432173D01*
X115473882Y-35244970D01*
X115384523Y-35069594D01*
X115268828Y-34910354D01*
X115129646Y-34771172D01*
X114976377Y-34659815D01*
X114933714Y-34604487D01*
X114927735Y-34534873D01*
X114960341Y-34473078D01*
X115021180Y-34438721D01*
X115049264Y-34435499D01*
X115196518Y-34435499D01*
X115290304Y-34420646D01*
X115403342Y-34363050D01*
X115493050Y-34273342D01*
X115550646Y-34160304D01*
X115550646Y-34160302D01*
X115550647Y-34160301D01*
X115565500Y-34066524D01*
X115565500Y-33884500D01*
X115585185Y-33817461D01*
X115637989Y-33771706D01*
X115689500Y-33760500D01*
X119707059Y-33760500D01*
X119774098Y-33780185D01*
X119794740Y-33796819D01*
X119804707Y-33806786D01*
X119804711Y-33806789D01*
X119935814Y-33894390D01*
X119935827Y-33894397D01*
X120081498Y-33954735D01*
X120081503Y-33954737D01*
X120236153Y-33985499D01*
X120236156Y-33985500D01*
X120236158Y-33985500D01*
X120393844Y-33985500D01*
X120393845Y-33985499D01*
X120548497Y-33954737D01*
X120694179Y-33894394D01*
X120825289Y-33806789D01*
X120936789Y-33695289D01*
X121024394Y-33564179D01*
X121084737Y-33418497D01*
X121115500Y-33263842D01*
X121115500Y-33106158D01*
X121115500Y-33106155D01*
X121115499Y-33106153D01*
X121084738Y-32951510D01*
X121084737Y-32951503D01*
X121084735Y-32951498D01*
X121024397Y-32805827D01*
X121024390Y-32805814D01*
X120936789Y-32674711D01*
X120936786Y-32674707D01*
X120825292Y-32563213D01*
X120825288Y-32563210D01*
X120694185Y-32475609D01*
X120694172Y-32475602D01*
X120548501Y-32415264D01*
X120548489Y-32415261D01*
X120393845Y-32384500D01*
X120393842Y-32384500D01*
X120236158Y-32384500D01*
X120236155Y-32384500D01*
X120081510Y-32415261D01*
X120081498Y-32415264D01*
X119935827Y-32475602D01*
X119935814Y-32475609D01*
X119804711Y-32563210D01*
X119804707Y-32563213D01*
X119794740Y-32573181D01*
X119733417Y-32606666D01*
X119707059Y-32609500D01*
X115689499Y-32609500D01*
X115622460Y-32589815D01*
X115576705Y-32537011D01*
X115565499Y-32485500D01*
X115565499Y-32303482D01*
X115565498Y-32303475D01*
X115550646Y-32209696D01*
X115493050Y-32096658D01*
X115493046Y-32096654D01*
X115493045Y-32096652D01*
X115403347Y-32006954D01*
X115403344Y-32006952D01*
X115403342Y-32006950D01*
X115326517Y-31967805D01*
X115290301Y-31949352D01*
X115196524Y-31934500D01*
X113433482Y-31934500D01*
X113352519Y-31947323D01*
X113339696Y-31949354D01*
X113226658Y-32006950D01*
X113226657Y-32006951D01*
X113226652Y-32006954D01*
X113136954Y-32096652D01*
X113136951Y-32096657D01*
X113079352Y-32209698D01*
X113064500Y-32303475D01*
X90165498Y-32303475D01*
X90150646Y-32209696D01*
X90093050Y-32096658D01*
X90093046Y-32096654D01*
X90093045Y-32096652D01*
X90003347Y-32006954D01*
X90003344Y-32006952D01*
X90003342Y-32006950D01*
X89926517Y-31967805D01*
X89890301Y-31949352D01*
X89796524Y-31934500D01*
X88033482Y-31934500D01*
X87952519Y-31947323D01*
X87939696Y-31949354D01*
X87826658Y-32006950D01*
X87826657Y-32006951D01*
X87826652Y-32006954D01*
X87736954Y-32096652D01*
X87736951Y-32096657D01*
X87679352Y-32209698D01*
X87664500Y-32303475D01*
X87664500Y-34066517D01*
X87675292Y-34134657D01*
X87679354Y-34160304D01*
X87736950Y-34273342D01*
X87736952Y-34273344D01*
X87736954Y-34273347D01*
X87826652Y-34363045D01*
X87826654Y-34363046D01*
X87826658Y-34363050D01*
X87939694Y-34420645D01*
X87939698Y-34420647D01*
X88033475Y-34435499D01*
X88033481Y-34435500D01*
X88180735Y-34435499D01*
X88247772Y-34455183D01*
X88293527Y-34507987D01*
X88303471Y-34577145D01*
X88274446Y-34640701D01*
X88253619Y-34659816D01*
X88100360Y-34771167D01*
X88100351Y-34771174D01*
X87961174Y-34910351D01*
X87961174Y-34910352D01*
X87961172Y-34910354D01*
X87911485Y-34978741D01*
X87845476Y-35069594D01*
X87756117Y-35244970D01*
X87695290Y-35432173D01*
X87664500Y-35626577D01*
X87664500Y-35823422D01*
X87695290Y-36017826D01*
X87756117Y-36205029D01*
X87845476Y-36380405D01*
X87961172Y-36539646D01*
X88100354Y-36678828D01*
X88259595Y-36794524D01*
X88382992Y-36857397D01*
X88436213Y-36884515D01*
X88487009Y-36932489D01*
X88503804Y-37000310D01*
X88481267Y-37066445D01*
X88436213Y-37105485D01*
X88259594Y-37195476D01*
X88168741Y-37261485D01*
X88100354Y-37311172D01*
X88100352Y-37311174D01*
X88100351Y-37311174D01*
X87961174Y-37450351D01*
X87961174Y-37450352D01*
X87961172Y-37450354D01*
X87911485Y-37518741D01*
X87845476Y-37609594D01*
X87756117Y-37784970D01*
X87695290Y-37972173D01*
X87664500Y-38166577D01*
X87664500Y-38363422D01*
X87695290Y-38557826D01*
X87756117Y-38745029D01*
X87845476Y-38920405D01*
X87961172Y-39079646D01*
X88100354Y-39218828D01*
X88259595Y-39334524D01*
X88382992Y-39397397D01*
X88436213Y-39424515D01*
X88487009Y-39472489D01*
X88503804Y-39540310D01*
X88481267Y-39606445D01*
X88436213Y-39645485D01*
X88259594Y-39735476D01*
X88168741Y-39801485D01*
X88100354Y-39851172D01*
X88100352Y-39851174D01*
X88100351Y-39851174D01*
X87961174Y-39990351D01*
X87961174Y-39990352D01*
X87961172Y-39990354D01*
X87911485Y-40058741D01*
X87845476Y-40149594D01*
X87756117Y-40324970D01*
X87695290Y-40512173D01*
X87664500Y-40706577D01*
X87664500Y-40903422D01*
X87695290Y-41097826D01*
X87756117Y-41285029D01*
X87845476Y-41460405D01*
X87961172Y-41619646D01*
X88100354Y-41758828D01*
X88259595Y-41874524D01*
X88382992Y-41937397D01*
X88436213Y-41964515D01*
X88487009Y-42012489D01*
X88503804Y-42080310D01*
X88481267Y-42146445D01*
X88436213Y-42185485D01*
X88259594Y-42275476D01*
X88168741Y-42341485D01*
X88100354Y-42391172D01*
X88100352Y-42391174D01*
X88100351Y-42391174D01*
X87961174Y-42530351D01*
X87961174Y-42530352D01*
X87961172Y-42530354D01*
X87911485Y-42598741D01*
X87845476Y-42689594D01*
X87756117Y-42864970D01*
X87695290Y-43052173D01*
X87664500Y-43246577D01*
X87664500Y-43443422D01*
X87695290Y-43637826D01*
X87756117Y-43825029D01*
X87845476Y-44000405D01*
X87961172Y-44159646D01*
X88100354Y-44298828D01*
X88259595Y-44414524D01*
X88382992Y-44477397D01*
X88436213Y-44504515D01*
X88487009Y-44552489D01*
X88503804Y-44620310D01*
X88481267Y-44686445D01*
X88436213Y-44725485D01*
X88259594Y-44815476D01*
X88168741Y-44881485D01*
X88100354Y-44931172D01*
X88100352Y-44931174D01*
X88100351Y-44931174D01*
X87961174Y-45070351D01*
X87961174Y-45070352D01*
X87961172Y-45070354D01*
X87911485Y-45138741D01*
X87845476Y-45229594D01*
X87756117Y-45404970D01*
X87695290Y-45592173D01*
X87664500Y-45786577D01*
X87664500Y-45983422D01*
X87695290Y-46177826D01*
X87756117Y-46365029D01*
X87845476Y-46540405D01*
X87961172Y-46699646D01*
X88100354Y-46838828D01*
X88259595Y-46954524D01*
X88382992Y-47017397D01*
X88436213Y-47044515D01*
X88487009Y-47092489D01*
X88503804Y-47160310D01*
X88481267Y-47226445D01*
X88436213Y-47265485D01*
X88259594Y-47355476D01*
X88168741Y-47421485D01*
X88100354Y-47471172D01*
X88100352Y-47471174D01*
X88100351Y-47471174D01*
X87961174Y-47610351D01*
X87961174Y-47610352D01*
X87961172Y-47610354D01*
X87932144Y-47650307D01*
X87845478Y-47769590D01*
X87845476Y-47769595D01*
X87839260Y-47781793D01*
X87791289Y-47832589D01*
X87728776Y-47849500D01*
X80522941Y-47849500D01*
X80455902Y-47829815D01*
X80435260Y-47813181D01*
X80425292Y-47803213D01*
X80425288Y-47803210D01*
X80294185Y-47715609D01*
X80294172Y-47715602D01*
X80148501Y-47655264D01*
X80148489Y-47655261D01*
X79993845Y-47624500D01*
X79993842Y-47624500D01*
X79836158Y-47624500D01*
X79836155Y-47624500D01*
X79681510Y-47655261D01*
X79681498Y-47655264D01*
X79535827Y-47715602D01*
X79535814Y-47715609D01*
X79404711Y-47803210D01*
X79404707Y-47803213D01*
X79293213Y-47914707D01*
X79293210Y-47914711D01*
X79205609Y-48045814D01*
X79205602Y-48045827D01*
X79145264Y-48191498D01*
X79145261Y-48191510D01*
X79114500Y-48346153D01*
X79114500Y-48503846D01*
X79145261Y-48658489D01*
X79145264Y-48658501D01*
X79205602Y-48804172D01*
X79205609Y-48804185D01*
X79293210Y-48935288D01*
X79293213Y-48935292D01*
X79404707Y-49046786D01*
X79404711Y-49046789D01*
X79535814Y-49134390D01*
X79535827Y-49134397D01*
X79681498Y-49194735D01*
X79681503Y-49194737D01*
X79836153Y-49225499D01*
X79836156Y-49225500D01*
X79836158Y-49225500D01*
X79993844Y-49225500D01*
X79993845Y-49225499D01*
X80148497Y-49194737D01*
X80294179Y-49134394D01*
X80425289Y-49046789D01*
X80425292Y-49046786D01*
X80435260Y-49036819D01*
X80496583Y-49003334D01*
X80522941Y-49000500D01*
X87728776Y-49000500D01*
X87795815Y-49020185D01*
X87839260Y-49068206D01*
X87845476Y-49080405D01*
X87845478Y-49080409D01*
X87884704Y-49134397D01*
X87961172Y-49239646D01*
X88100354Y-49378828D01*
X88259595Y-49494524D01*
X88382992Y-49557397D01*
X88436213Y-49584515D01*
X88487009Y-49632489D01*
X88503804Y-49700310D01*
X88481267Y-49766445D01*
X88436213Y-49805485D01*
X88259594Y-49895476D01*
X88168741Y-49961485D01*
X88100354Y-50011172D01*
X88100352Y-50011174D01*
X88100351Y-50011174D01*
X87961174Y-50150351D01*
X87961174Y-50150352D01*
X87961172Y-50150354D01*
X87932144Y-50190307D01*
X87845478Y-50309590D01*
X87845476Y-50309595D01*
X87839260Y-50321793D01*
X87791289Y-50372589D01*
X87728776Y-50389500D01*
X79022941Y-50389500D01*
X78955902Y-50369815D01*
X78935260Y-50353181D01*
X78925292Y-50343213D01*
X78925288Y-50343210D01*
X78794185Y-50255609D01*
X78794172Y-50255602D01*
X78648501Y-50195264D01*
X78648489Y-50195261D01*
X78493845Y-50164500D01*
X78493842Y-50164500D01*
X78336158Y-50164500D01*
X78336155Y-50164500D01*
X78181510Y-50195261D01*
X78181498Y-50195264D01*
X78035827Y-50255602D01*
X78035814Y-50255609D01*
X77904711Y-50343210D01*
X77904707Y-50343213D01*
X77793213Y-50454707D01*
X77793210Y-50454711D01*
X77705609Y-50585814D01*
X77705602Y-50585827D01*
X77645264Y-50731498D01*
X77645261Y-50731510D01*
X77614500Y-50886153D01*
X3935499Y-50886153D01*
X3935499Y-29168475D01*
X38799500Y-29168475D01*
X38799500Y-30831517D01*
X38810292Y-30899657D01*
X38814354Y-30925304D01*
X38871950Y-31038342D01*
X38871952Y-31038344D01*
X38871954Y-31038347D01*
X38961652Y-31128045D01*
X38961654Y-31128046D01*
X38961658Y-31128050D01*
X39074694Y-31185645D01*
X39074698Y-31185647D01*
X39168475Y-31200499D01*
X39168481Y-31200500D01*
X40831518Y-31200499D01*
X40925304Y-31185646D01*
X41038342Y-31128050D01*
X41128050Y-31038342D01*
X41185646Y-30925304D01*
X41185646Y-30925302D01*
X41185647Y-30925301D01*
X41200499Y-30831524D01*
X41200500Y-30831519D01*
X41200499Y-30531906D01*
X41220183Y-30464870D01*
X41272987Y-30419115D01*
X41342146Y-30409171D01*
X41405701Y-30438196D01*
X41434984Y-30475614D01*
X41463668Y-30531909D01*
X41513240Y-30629199D01*
X41624310Y-30782073D01*
X41757927Y-30915690D01*
X41910801Y-31026760D01*
X41990347Y-31067290D01*
X42079163Y-31112545D01*
X42079165Y-31112545D01*
X42079168Y-31112547D01*
X42175497Y-31143846D01*
X42258881Y-31170940D01*
X42445514Y-31200500D01*
X42445519Y-31200500D01*
X42634486Y-31200500D01*
X42821118Y-31170940D01*
X43000832Y-31112547D01*
X43169199Y-31026760D01*
X43322073Y-30915690D01*
X43455690Y-30782073D01*
X43566760Y-30629199D01*
X43652547Y-30460832D01*
X43692069Y-30339195D01*
X43731507Y-30281521D01*
X43795866Y-30254323D01*
X43864712Y-30266238D01*
X43916188Y-30313482D01*
X43927931Y-30339196D01*
X43967454Y-30460836D01*
X44003668Y-30531909D01*
X44053240Y-30629199D01*
X44164310Y-30782073D01*
X44297927Y-30915690D01*
X44450801Y-31026760D01*
X44530347Y-31067290D01*
X44619163Y-31112545D01*
X44619165Y-31112545D01*
X44619168Y-31112547D01*
X44715497Y-31143846D01*
X44798881Y-31170940D01*
X44985514Y-31200500D01*
X44985519Y-31200500D01*
X45174486Y-31200500D01*
X45361118Y-31170940D01*
X45540832Y-31112547D01*
X45709199Y-31026760D01*
X45862073Y-30915690D01*
X45995690Y-30782073D01*
X46106760Y-30629199D01*
X46192547Y-30460832D01*
X46232069Y-30339195D01*
X46271507Y-30281521D01*
X46335866Y-30254323D01*
X46404712Y-30266238D01*
X46456188Y-30313482D01*
X46467931Y-30339196D01*
X46507454Y-30460836D01*
X46543668Y-30531909D01*
X46593240Y-30629199D01*
X46704310Y-30782073D01*
X46837927Y-30915690D01*
X46990801Y-31026760D01*
X47070347Y-31067290D01*
X47159163Y-31112545D01*
X47159165Y-31112545D01*
X47159168Y-31112547D01*
X47255497Y-31143846D01*
X47338881Y-31170940D01*
X47525514Y-31200500D01*
X47525519Y-31200500D01*
X47714486Y-31200500D01*
X47901118Y-31170940D01*
X48080832Y-31112547D01*
X48249199Y-31026760D01*
X48402073Y-30915690D01*
X48535690Y-30782073D01*
X48646760Y-30629199D01*
X48732547Y-30460832D01*
X48772069Y-30339195D01*
X48811507Y-30281521D01*
X48875866Y-30254323D01*
X48944712Y-30266238D01*
X48996188Y-30313482D01*
X49007931Y-30339196D01*
X49047454Y-30460836D01*
X49083668Y-30531909D01*
X49133240Y-30629199D01*
X49244310Y-30782073D01*
X49377927Y-30915690D01*
X49530801Y-31026760D01*
X49610347Y-31067290D01*
X49699163Y-31112545D01*
X49699165Y-31112545D01*
X49699168Y-31112547D01*
X49795497Y-31143846D01*
X49878881Y-31170940D01*
X50065514Y-31200500D01*
X50065519Y-31200500D01*
X50254486Y-31200500D01*
X50441118Y-31170940D01*
X50620832Y-31112547D01*
X50789199Y-31026760D01*
X50942073Y-30915690D01*
X51075690Y-30782073D01*
X51186760Y-30629199D01*
X51272547Y-30460832D01*
X51330940Y-30281118D01*
X51335184Y-30254323D01*
X51360500Y-30094486D01*
X51360500Y-29905513D01*
X56579500Y-29905513D01*
X56579500Y-30094486D01*
X56609059Y-30281118D01*
X56667454Y-30460836D01*
X56703668Y-30531909D01*
X56753240Y-30629199D01*
X56864310Y-30782073D01*
X56997927Y-30915690D01*
X57150801Y-31026760D01*
X57230347Y-31067290D01*
X57319163Y-31112545D01*
X57319165Y-31112545D01*
X57319168Y-31112547D01*
X57415497Y-31143846D01*
X57498881Y-31170940D01*
X57685514Y-31200500D01*
X57685519Y-31200500D01*
X57874486Y-31200500D01*
X58061118Y-31170940D01*
X58240832Y-31112547D01*
X58409199Y-31026760D01*
X58562073Y-30915690D01*
X58695690Y-30782073D01*
X58806760Y-30629199D01*
X58892547Y-30460832D01*
X58950940Y-30281118D01*
X58955184Y-30254323D01*
X58980500Y-30094486D01*
X58980500Y-29905513D01*
X61659500Y-29905513D01*
X61659500Y-30094486D01*
X61689059Y-30281118D01*
X61747454Y-30460836D01*
X61783668Y-30531909D01*
X61833240Y-30629199D01*
X61944310Y-30782073D01*
X62077927Y-30915690D01*
X62230801Y-31026760D01*
X62310347Y-31067290D01*
X62399163Y-31112545D01*
X62399165Y-31112545D01*
X62399168Y-31112547D01*
X62495497Y-31143846D01*
X62578881Y-31170940D01*
X62765514Y-31200500D01*
X62765519Y-31200500D01*
X62954486Y-31200500D01*
X63141118Y-31170940D01*
X63320832Y-31112547D01*
X63489199Y-31026760D01*
X63642073Y-30915690D01*
X63775690Y-30782073D01*
X63886760Y-30629199D01*
X63972547Y-30460832D01*
X64012069Y-30339195D01*
X64051507Y-30281521D01*
X64115866Y-30254323D01*
X64184712Y-30266238D01*
X64236188Y-30313482D01*
X64247931Y-30339196D01*
X64287454Y-30460836D01*
X64323668Y-30531909D01*
X64373240Y-30629199D01*
X64484310Y-30782073D01*
X64617927Y-30915690D01*
X64770801Y-31026760D01*
X64850347Y-31067290D01*
X64939163Y-31112545D01*
X64939165Y-31112545D01*
X64939168Y-31112547D01*
X65035497Y-31143846D01*
X65118881Y-31170940D01*
X65305514Y-31200500D01*
X65305519Y-31200500D01*
X65494486Y-31200500D01*
X65681118Y-31170940D01*
X65860832Y-31112547D01*
X66029199Y-31026760D01*
X66182073Y-30915690D01*
X66315690Y-30782073D01*
X66426760Y-30629199D01*
X66512547Y-30460832D01*
X66552069Y-30339195D01*
X66591507Y-30281521D01*
X66655866Y-30254323D01*
X66724712Y-30266238D01*
X66776188Y-30313482D01*
X66787931Y-30339196D01*
X66827454Y-30460836D01*
X66863668Y-30531909D01*
X66913240Y-30629199D01*
X67024310Y-30782073D01*
X67157927Y-30915690D01*
X67310801Y-31026760D01*
X67390347Y-31067290D01*
X67479163Y-31112545D01*
X67479165Y-31112545D01*
X67479168Y-31112547D01*
X67575497Y-31143846D01*
X67658881Y-31170940D01*
X67845514Y-31200500D01*
X67845519Y-31200500D01*
X68034486Y-31200500D01*
X68221118Y-31170940D01*
X68400832Y-31112547D01*
X68569199Y-31026760D01*
X68722073Y-30915690D01*
X68855690Y-30782073D01*
X68966760Y-30629199D01*
X69052547Y-30460832D01*
X69092069Y-30339195D01*
X69131507Y-30281521D01*
X69195866Y-30254323D01*
X69264712Y-30266238D01*
X69316188Y-30313482D01*
X69327931Y-30339196D01*
X69367454Y-30460836D01*
X69403668Y-30531909D01*
X69453240Y-30629199D01*
X69564310Y-30782073D01*
X69697927Y-30915690D01*
X69850801Y-31026760D01*
X69930347Y-31067290D01*
X70019163Y-31112545D01*
X70019165Y-31112545D01*
X70019168Y-31112547D01*
X70115497Y-31143846D01*
X70198881Y-31170940D01*
X70385514Y-31200500D01*
X70385519Y-31200500D01*
X70574486Y-31200500D01*
X70761118Y-31170940D01*
X70940832Y-31112547D01*
X71109199Y-31026760D01*
X71262073Y-30915690D01*
X71395690Y-30782073D01*
X71506760Y-30629199D01*
X71592547Y-30460832D01*
X71632069Y-30339195D01*
X71671507Y-30281521D01*
X71735866Y-30254323D01*
X71804712Y-30266238D01*
X71856188Y-30313482D01*
X71867931Y-30339196D01*
X71907454Y-30460836D01*
X71943668Y-30531909D01*
X71993240Y-30629199D01*
X72104310Y-30782073D01*
X72237927Y-30915690D01*
X72390801Y-31026760D01*
X72470347Y-31067290D01*
X72559163Y-31112545D01*
X72559165Y-31112545D01*
X72559168Y-31112547D01*
X72655497Y-31143846D01*
X72738881Y-31170940D01*
X72925514Y-31200500D01*
X72925519Y-31200500D01*
X73114486Y-31200500D01*
X73301118Y-31170940D01*
X73480832Y-31112547D01*
X73649199Y-31026760D01*
X73802073Y-30915690D01*
X73935690Y-30782073D01*
X74046760Y-30629199D01*
X74132547Y-30460832D01*
X74172069Y-30339195D01*
X74211507Y-30281521D01*
X74275866Y-30254323D01*
X74344712Y-30266238D01*
X74396188Y-30313482D01*
X74407931Y-30339196D01*
X74447454Y-30460836D01*
X74483668Y-30531909D01*
X74533240Y-30629199D01*
X74644310Y-30782073D01*
X74777927Y-30915690D01*
X74930801Y-31026760D01*
X75010347Y-31067290D01*
X75099163Y-31112545D01*
X75099165Y-31112545D01*
X75099168Y-31112547D01*
X75195497Y-31143846D01*
X75278881Y-31170940D01*
X75465514Y-31200500D01*
X75465519Y-31200500D01*
X75654486Y-31200500D01*
X75841118Y-31170940D01*
X76020832Y-31112547D01*
X76189199Y-31026760D01*
X76342073Y-30915690D01*
X76475690Y-30782073D01*
X76586760Y-30629199D01*
X76672547Y-30460832D01*
X76730940Y-30281118D01*
X76735184Y-30254323D01*
X76760500Y-30094486D01*
X76760500Y-29905513D01*
X76730940Y-29718881D01*
X76689706Y-29591977D01*
X76672547Y-29539168D01*
X76672545Y-29539165D01*
X76672545Y-29539163D01*
X76586759Y-29370800D01*
X76475690Y-29217927D01*
X76342073Y-29084310D01*
X76189199Y-28973240D01*
X76166456Y-28961652D01*
X76020836Y-28887454D01*
X75841118Y-28829059D01*
X75654486Y-28799500D01*
X75654481Y-28799500D01*
X75465519Y-28799500D01*
X75465514Y-28799500D01*
X75278881Y-28829059D01*
X75099163Y-28887454D01*
X74930800Y-28973240D01*
X74843579Y-29036610D01*
X74777927Y-29084310D01*
X74777925Y-29084312D01*
X74777924Y-29084312D01*
X74644312Y-29217924D01*
X74644312Y-29217925D01*
X74644310Y-29217927D01*
X74596610Y-29283579D01*
X74533240Y-29370800D01*
X74447454Y-29539163D01*
X74407931Y-29660803D01*
X74368493Y-29718478D01*
X74304134Y-29745676D01*
X74235288Y-29733761D01*
X74183812Y-29686516D01*
X74172069Y-29660803D01*
X74144249Y-29575182D01*
X74132547Y-29539168D01*
X74132545Y-29539165D01*
X74132545Y-29539163D01*
X74046759Y-29370800D01*
X73935690Y-29217927D01*
X73802073Y-29084310D01*
X73649199Y-28973240D01*
X73626456Y-28961652D01*
X73480836Y-28887454D01*
X73301118Y-28829059D01*
X73114486Y-28799500D01*
X73114481Y-28799500D01*
X72925519Y-28799500D01*
X72925514Y-28799500D01*
X72738881Y-28829059D01*
X72559163Y-28887454D01*
X72390800Y-28973240D01*
X72303579Y-29036610D01*
X72237927Y-29084310D01*
X72237925Y-29084312D01*
X72237924Y-29084312D01*
X72104312Y-29217924D01*
X72104312Y-29217925D01*
X72104310Y-29217927D01*
X72056610Y-29283579D01*
X71993240Y-29370800D01*
X71907454Y-29539163D01*
X71867931Y-29660803D01*
X71828493Y-29718478D01*
X71764134Y-29745676D01*
X71695288Y-29733761D01*
X71643812Y-29686516D01*
X71632069Y-29660803D01*
X71604249Y-29575182D01*
X71592547Y-29539168D01*
X71592545Y-29539165D01*
X71592545Y-29539163D01*
X71506759Y-29370800D01*
X71395690Y-29217927D01*
X71262073Y-29084310D01*
X71109199Y-28973240D01*
X71086456Y-28961652D01*
X70940836Y-28887454D01*
X70761118Y-28829059D01*
X70574486Y-28799500D01*
X70574481Y-28799500D01*
X70385519Y-28799500D01*
X70385514Y-28799500D01*
X70198881Y-28829059D01*
X70019163Y-28887454D01*
X69850800Y-28973240D01*
X69763579Y-29036610D01*
X69697927Y-29084310D01*
X69697925Y-29084312D01*
X69697924Y-29084312D01*
X69564312Y-29217924D01*
X69564312Y-29217925D01*
X69564310Y-29217927D01*
X69516610Y-29283579D01*
X69453240Y-29370800D01*
X69367454Y-29539163D01*
X69327931Y-29660803D01*
X69288493Y-29718478D01*
X69224134Y-29745676D01*
X69155288Y-29733761D01*
X69103812Y-29686516D01*
X69092069Y-29660803D01*
X69064249Y-29575182D01*
X69052547Y-29539168D01*
X69052545Y-29539165D01*
X69052545Y-29539163D01*
X68966759Y-29370800D01*
X68855690Y-29217927D01*
X68722073Y-29084310D01*
X68569199Y-28973240D01*
X68546456Y-28961652D01*
X68400836Y-28887454D01*
X68221118Y-28829059D01*
X68034486Y-28799500D01*
X68034481Y-28799500D01*
X67845519Y-28799500D01*
X67845514Y-28799500D01*
X67658881Y-28829059D01*
X67479163Y-28887454D01*
X67310800Y-28973240D01*
X67223579Y-29036610D01*
X67157927Y-29084310D01*
X67157925Y-29084312D01*
X67157924Y-29084312D01*
X67024312Y-29217924D01*
X67024312Y-29217925D01*
X67024310Y-29217927D01*
X66976610Y-29283579D01*
X66913240Y-29370800D01*
X66827454Y-29539163D01*
X66787931Y-29660803D01*
X66748493Y-29718478D01*
X66684134Y-29745676D01*
X66615288Y-29733761D01*
X66563812Y-29686516D01*
X66552069Y-29660803D01*
X66524249Y-29575182D01*
X66512547Y-29539168D01*
X66512545Y-29539165D01*
X66512545Y-29539163D01*
X66426759Y-29370800D01*
X66315690Y-29217927D01*
X66182073Y-29084310D01*
X66029199Y-28973240D01*
X66006456Y-28961652D01*
X65860836Y-28887454D01*
X65681118Y-28829059D01*
X65494486Y-28799500D01*
X65494481Y-28799500D01*
X65305519Y-28799500D01*
X65305514Y-28799500D01*
X65118881Y-28829059D01*
X64939163Y-28887454D01*
X64770800Y-28973240D01*
X64683579Y-29036610D01*
X64617927Y-29084310D01*
X64617925Y-29084312D01*
X64617924Y-29084312D01*
X64484312Y-29217924D01*
X64484312Y-29217925D01*
X64484310Y-29217927D01*
X64436610Y-29283579D01*
X64373240Y-29370800D01*
X64287454Y-29539163D01*
X64247931Y-29660803D01*
X64208493Y-29718478D01*
X64144134Y-29745676D01*
X64075288Y-29733761D01*
X64023812Y-29686516D01*
X64012069Y-29660803D01*
X63984249Y-29575182D01*
X63972547Y-29539168D01*
X63972545Y-29539165D01*
X63972545Y-29539163D01*
X63886759Y-29370800D01*
X63775690Y-29217927D01*
X63642073Y-29084310D01*
X63489199Y-28973240D01*
X63466456Y-28961652D01*
X63320836Y-28887454D01*
X63141118Y-28829059D01*
X62954486Y-28799500D01*
X62954481Y-28799500D01*
X62765519Y-28799500D01*
X62765514Y-28799500D01*
X62578881Y-28829059D01*
X62399163Y-28887454D01*
X62230800Y-28973240D01*
X62143579Y-29036610D01*
X62077927Y-29084310D01*
X62077925Y-29084312D01*
X62077924Y-29084312D01*
X61944312Y-29217924D01*
X61944312Y-29217925D01*
X61944310Y-29217927D01*
X61896610Y-29283579D01*
X61833240Y-29370800D01*
X61747454Y-29539163D01*
X61689059Y-29718881D01*
X61659500Y-29905513D01*
X58980500Y-29905513D01*
X58950940Y-29718881D01*
X58909706Y-29591977D01*
X58892547Y-29539168D01*
X58892545Y-29539165D01*
X58892545Y-29539163D01*
X58806759Y-29370800D01*
X58695690Y-29217927D01*
X58562073Y-29084310D01*
X58409199Y-28973240D01*
X58386456Y-28961652D01*
X58240836Y-28887454D01*
X58061118Y-28829059D01*
X57874486Y-28799500D01*
X57874481Y-28799500D01*
X57685519Y-28799500D01*
X57685514Y-28799500D01*
X57498881Y-28829059D01*
X57319163Y-28887454D01*
X57150800Y-28973240D01*
X57063579Y-29036610D01*
X56997927Y-29084310D01*
X56997925Y-29084312D01*
X56997924Y-29084312D01*
X56864312Y-29217924D01*
X56864312Y-29217925D01*
X56864310Y-29217927D01*
X56816610Y-29283579D01*
X56753240Y-29370800D01*
X56667454Y-29539163D01*
X56609059Y-29718881D01*
X56579500Y-29905513D01*
X51360500Y-29905513D01*
X51330940Y-29718881D01*
X51289706Y-29591977D01*
X51272547Y-29539168D01*
X51272545Y-29539165D01*
X51272545Y-29539163D01*
X51186759Y-29370800D01*
X51075690Y-29217927D01*
X50942073Y-29084310D01*
X50789199Y-28973240D01*
X50766456Y-28961652D01*
X50620836Y-28887454D01*
X50441118Y-28829059D01*
X50254486Y-28799500D01*
X50254481Y-28799500D01*
X50065519Y-28799500D01*
X50065514Y-28799500D01*
X49878881Y-28829059D01*
X49699163Y-28887454D01*
X49530800Y-28973240D01*
X49443579Y-29036610D01*
X49377927Y-29084310D01*
X49377925Y-29084312D01*
X49377924Y-29084312D01*
X49244312Y-29217924D01*
X49244312Y-29217925D01*
X49244310Y-29217927D01*
X49196610Y-29283579D01*
X49133240Y-29370800D01*
X49047454Y-29539163D01*
X49007931Y-29660803D01*
X48968493Y-29718478D01*
X48904134Y-29745676D01*
X48835288Y-29733761D01*
X48783812Y-29686516D01*
X48772069Y-29660803D01*
X48744249Y-29575182D01*
X48732547Y-29539168D01*
X48732545Y-29539165D01*
X48732545Y-29539163D01*
X48646759Y-29370800D01*
X48535690Y-29217927D01*
X48402073Y-29084310D01*
X48249199Y-28973240D01*
X48226456Y-28961652D01*
X48080836Y-28887454D01*
X47901118Y-28829059D01*
X47714486Y-28799500D01*
X47714481Y-28799500D01*
X47525519Y-28799500D01*
X47525514Y-28799500D01*
X47338881Y-28829059D01*
X47159163Y-28887454D01*
X46990800Y-28973240D01*
X46903579Y-29036610D01*
X46837927Y-29084310D01*
X46837925Y-29084312D01*
X46837924Y-29084312D01*
X46704312Y-29217924D01*
X46704312Y-29217925D01*
X46704310Y-29217927D01*
X46656610Y-29283579D01*
X46593240Y-29370800D01*
X46507454Y-29539163D01*
X46467931Y-29660803D01*
X46428493Y-29718478D01*
X46364134Y-29745676D01*
X46295288Y-29733761D01*
X46243812Y-29686516D01*
X46232069Y-29660803D01*
X46204249Y-29575182D01*
X46192547Y-29539168D01*
X46192545Y-29539165D01*
X46192545Y-29539163D01*
X46106759Y-29370800D01*
X45995690Y-29217927D01*
X45862073Y-29084310D01*
X45709199Y-28973240D01*
X45686456Y-28961652D01*
X45540836Y-28887454D01*
X45361118Y-28829059D01*
X45174486Y-28799500D01*
X45174481Y-28799500D01*
X44985519Y-28799500D01*
X44985514Y-28799500D01*
X44798881Y-28829059D01*
X44619163Y-28887454D01*
X44450800Y-28973240D01*
X44363579Y-29036610D01*
X44297927Y-29084310D01*
X44297925Y-29084312D01*
X44297924Y-29084312D01*
X44164312Y-29217924D01*
X44164312Y-29217925D01*
X44164310Y-29217927D01*
X44116610Y-29283579D01*
X44053240Y-29370800D01*
X43967454Y-29539163D01*
X43927931Y-29660803D01*
X43888493Y-29718478D01*
X43824134Y-29745676D01*
X43755288Y-29733761D01*
X43703812Y-29686516D01*
X43692069Y-29660803D01*
X43664249Y-29575182D01*
X43652547Y-29539168D01*
X43652545Y-29539165D01*
X43652545Y-29539163D01*
X43566759Y-29370800D01*
X43455690Y-29217927D01*
X43322073Y-29084310D01*
X43169199Y-28973240D01*
X43146456Y-28961652D01*
X43000836Y-28887454D01*
X42821118Y-28829059D01*
X42634486Y-28799500D01*
X42634481Y-28799500D01*
X42445519Y-28799500D01*
X42445514Y-28799500D01*
X42258881Y-28829059D01*
X42079163Y-28887454D01*
X41910800Y-28973240D01*
X41823579Y-29036610D01*
X41757927Y-29084310D01*
X41757925Y-29084312D01*
X41757924Y-29084312D01*
X41624312Y-29217924D01*
X41624312Y-29217925D01*
X41624310Y-29217927D01*
X41576610Y-29283579D01*
X41513240Y-29370800D01*
X41434984Y-29524386D01*
X41387009Y-29575182D01*
X41319188Y-29591977D01*
X41253053Y-29569439D01*
X41209602Y-29514724D01*
X41200499Y-29468091D01*
X41200499Y-29168482D01*
X41200498Y-29168475D01*
X41185646Y-29074696D01*
X41128050Y-28961658D01*
X41128046Y-28961654D01*
X41128045Y-28961652D01*
X41038347Y-28871954D01*
X41038344Y-28871952D01*
X41038342Y-28871950D01*
X40954164Y-28829059D01*
X40925301Y-28814352D01*
X40831524Y-28799500D01*
X39168482Y-28799500D01*
X39087519Y-28812323D01*
X39074696Y-28814354D01*
X38961658Y-28871950D01*
X38961657Y-28871951D01*
X38961652Y-28871954D01*
X38871954Y-28961652D01*
X38871951Y-28961657D01*
X38814352Y-29074698D01*
X38799500Y-29168475D01*
X3935499Y-29168475D01*
X3935499Y-21809500D01*
X3955184Y-21742461D01*
X4007988Y-21696706D01*
X4059499Y-21685500D01*
X123690500Y-21685500D01*
X123757539Y-21705185D01*
G37*
%TD.AperFunction*%
%TD*%
M02*
