M48
; DRILL file KiCad 10.0.5-1.fc44 date 2026-08-16T20:11:27
; FORMAT={-:-/ absolute / metric / decimal}
; #@! TF.CreationDate,2026-08-16T20:11:27+05:30
; #@! TF.GenerationSoftware,Kicad,Pcbnew,10.0.5-1.fc44
; #@! TF.FileFunction,MixedPlating,1,2
FMAT,2
METRIC
; #@! TA.AperFunction,Plated,PTH,ViaDrill
T1C0.400
; #@! TA.AperFunction,Plated,PTH,ComponentDrill
T2C1.000
; #@! TA.AperFunction,Plated,PTH,ComponentDrill
T3C1.300
%
G90
G05
T1
X43.56Y-92.695
X46.1Y-86.345
X48.64Y-91.425
X53.72Y-85.075
X57.78Y-95.235
X60.32Y-88.885
X62.86Y-90.155
X65.4Y-93.965
X67.94Y-87.615
X78.415Y-50.965
X78.415Y-91.425
X79.915Y-48.425
X79.915Y-90.155
X81.415Y-58.585
X81.415Y-88.885
X82.915Y-56.045
X82.915Y-87.615
X84.415Y-53.505
X84.415Y-86.345
X85.915Y-68.745
X85.915Y-85.075
X117.315Y-50.965
X117.315Y-92.695
X118.815Y-48.425
X118.815Y-93.965
X120.315Y-33.185
X120.315Y-95.235
T2
X30.86Y-78.26
X33.4Y-78.26
X35.94Y-78.26
X38.48Y-78.26
X40.0Y-30.0
X41.02Y-78.26
X42.54Y-30.0
X43.56Y-78.26
X45.08Y-30.0
X46.1Y-78.26
X47.62Y-30.0
X48.64Y-78.26
X50.16Y-30.0
X51.18Y-78.26
X52.7Y-30.0
X53.72Y-78.26
X55.24Y-30.0
X57.78Y-30.0
X57.78Y-78.26
X60.32Y-78.26
X62.86Y-30.0
X62.86Y-78.26
X65.4Y-30.0
X65.4Y-78.26
X67.94Y-30.0
X67.94Y-78.26
X70.48Y-30.0
X70.48Y-78.26
X73.02Y-30.0
X73.02Y-78.26
X75.56Y-30.0
X75.56Y-78.26
X88.915Y-33.185
X88.915Y-35.725
X88.915Y-38.265
X88.915Y-40.805
X88.915Y-43.345
X88.915Y-45.885
X88.915Y-48.425
X88.915Y-50.965
X88.915Y-53.505
X88.915Y-56.045
X88.915Y-58.585
X88.915Y-61.125
X88.915Y-63.665
X88.915Y-66.205
X88.915Y-68.745
X114.315Y-33.185
X114.315Y-35.725
X114.315Y-38.265
X114.315Y-40.805
X114.315Y-43.345
X114.315Y-45.885
X114.315Y-48.425
X114.315Y-50.965
X114.315Y-53.505
X114.315Y-56.045
X114.315Y-58.585
X114.315Y-61.125
X114.315Y-63.665
X114.315Y-66.205
X114.315Y-68.745
T3
X10.435Y-89.075
X15.515Y-89.075
M30
