%TF.GenerationSoftware,KiCad,Pcbnew,10.0.5-1.fc44*%
%TF.CreationDate,2026-08-16T20:11:26+05:30*%
%TF.ProjectId,esp32_hw130_adapter,65737033-325f-4687-9731-33305f616461,rev?*%
%TF.SameCoordinates,Original*%
%TF.FileFunction,Legend,Top*%
%TF.FilePolarity,Positive*%
%FSLAX46Y46*%
G04 Gerber Fmt 4.6, Leading zero omitted, Abs format (unit mm)*
G04 Created by KiCad (PCBNEW 10.0.5-1.fc44) date 2026-08-16 20:11:26*
%MOMM*%
%LPD*%
G01*
G04 APERTURE LIST*
%ADD10C,0.150000*%
%ADD11C,0.120000*%
G04 APERTURE END LIST*
D10*
X12434998Y-109349819D02*
X12434998Y-110064104D01*
X12434998Y-110064104D02*
X12387379Y-110206961D01*
X12387379Y-110206961D02*
X12292141Y-110302200D01*
X12292141Y-110302200D02*
X12149284Y-110349819D01*
X12149284Y-110349819D02*
X12054046Y-110349819D01*
X12673094Y-110445057D02*
X13434998Y-110445057D01*
X14149284Y-109349819D02*
X13673094Y-109349819D01*
X13673094Y-109349819D02*
X13625475Y-109826009D01*
X13625475Y-109826009D02*
X13673094Y-109778390D01*
X13673094Y-109778390D02*
X13768332Y-109730771D01*
X13768332Y-109730771D02*
X14006427Y-109730771D01*
X14006427Y-109730771D02*
X14101665Y-109778390D01*
X14101665Y-109778390D02*
X14149284Y-109826009D01*
X14149284Y-109826009D02*
X14196903Y-109921247D01*
X14196903Y-109921247D02*
X14196903Y-110159342D01*
X14196903Y-110159342D02*
X14149284Y-110254580D01*
X14149284Y-110254580D02*
X14101665Y-110302200D01*
X14101665Y-110302200D02*
X14006427Y-110349819D01*
X14006427Y-110349819D02*
X13768332Y-110349819D01*
X13768332Y-110349819D02*
X13673094Y-110302200D01*
X13673094Y-110302200D02*
X13625475Y-110254580D01*
X14482618Y-109349819D02*
X14815951Y-110349819D01*
X14815951Y-110349819D02*
X15149284Y-109349819D01*
X15482618Y-110254580D02*
X15530237Y-110302200D01*
X15530237Y-110302200D02*
X15482618Y-110349819D01*
X15482618Y-110349819D02*
X15434999Y-110302200D01*
X15434999Y-110302200D02*
X15482618Y-110254580D01*
X15482618Y-110254580D02*
X15482618Y-110349819D01*
X15482618Y-109730771D02*
X15530237Y-109778390D01*
X15530237Y-109778390D02*
X15482618Y-109826009D01*
X15482618Y-109826009D02*
X15434999Y-109778390D01*
X15434999Y-109778390D02*
X15482618Y-109730771D01*
X15482618Y-109730771D02*
X15482618Y-109826009D01*
X17101665Y-110302200D02*
X17006427Y-110349819D01*
X17006427Y-110349819D02*
X16815951Y-110349819D01*
X16815951Y-110349819D02*
X16720713Y-110302200D01*
X16720713Y-110302200D02*
X16673094Y-110206961D01*
X16673094Y-110206961D02*
X16673094Y-109826009D01*
X16673094Y-109826009D02*
X16720713Y-109730771D01*
X16720713Y-109730771D02*
X16815951Y-109683152D01*
X16815951Y-109683152D02*
X17006427Y-109683152D01*
X17006427Y-109683152D02*
X17101665Y-109730771D01*
X17101665Y-109730771D02*
X17149284Y-109826009D01*
X17149284Y-109826009D02*
X17149284Y-109921247D01*
X17149284Y-109921247D02*
X16673094Y-110016485D01*
X17482618Y-110349819D02*
X18006427Y-109683152D01*
X17482618Y-109683152D02*
X18006427Y-110349819D01*
X18244523Y-109683152D02*
X18625475Y-109683152D01*
X18387380Y-109349819D02*
X18387380Y-110206961D01*
X18387380Y-110206961D02*
X18434999Y-110302200D01*
X18434999Y-110302200D02*
X18530237Y-110349819D01*
X18530237Y-110349819D02*
X18625475Y-110349819D01*
X19339761Y-110302200D02*
X19244523Y-110349819D01*
X19244523Y-110349819D02*
X19054047Y-110349819D01*
X19054047Y-110349819D02*
X18958809Y-110302200D01*
X18958809Y-110302200D02*
X18911190Y-110206961D01*
X18911190Y-110206961D02*
X18911190Y-109826009D01*
X18911190Y-109826009D02*
X18958809Y-109730771D01*
X18958809Y-109730771D02*
X19054047Y-109683152D01*
X19054047Y-109683152D02*
X19244523Y-109683152D01*
X19244523Y-109683152D02*
X19339761Y-109730771D01*
X19339761Y-109730771D02*
X19387380Y-109826009D01*
X19387380Y-109826009D02*
X19387380Y-109921247D01*
X19387380Y-109921247D02*
X18911190Y-110016485D01*
X19815952Y-110349819D02*
X19815952Y-109683152D01*
X19815952Y-109873628D02*
X19863571Y-109778390D01*
X19863571Y-109778390D02*
X19911190Y-109730771D01*
X19911190Y-109730771D02*
X20006428Y-109683152D01*
X20006428Y-109683152D02*
X20101666Y-109683152D01*
X20435000Y-109683152D02*
X20435000Y-110349819D01*
X20435000Y-109778390D02*
X20482619Y-109730771D01*
X20482619Y-109730771D02*
X20577857Y-109683152D01*
X20577857Y-109683152D02*
X20720714Y-109683152D01*
X20720714Y-109683152D02*
X20815952Y-109730771D01*
X20815952Y-109730771D02*
X20863571Y-109826009D01*
X20863571Y-109826009D02*
X20863571Y-110349819D01*
X21768333Y-110349819D02*
X21768333Y-109826009D01*
X21768333Y-109826009D02*
X21720714Y-109730771D01*
X21720714Y-109730771D02*
X21625476Y-109683152D01*
X21625476Y-109683152D02*
X21435000Y-109683152D01*
X21435000Y-109683152D02*
X21339762Y-109730771D01*
X21768333Y-110302200D02*
X21673095Y-110349819D01*
X21673095Y-110349819D02*
X21435000Y-110349819D01*
X21435000Y-110349819D02*
X21339762Y-110302200D01*
X21339762Y-110302200D02*
X21292143Y-110206961D01*
X21292143Y-110206961D02*
X21292143Y-110111723D01*
X21292143Y-110111723D02*
X21339762Y-110016485D01*
X21339762Y-110016485D02*
X21435000Y-109968866D01*
X21435000Y-109968866D02*
X21673095Y-109968866D01*
X21673095Y-109968866D02*
X21768333Y-109921247D01*
X22387381Y-110349819D02*
X22292143Y-110302200D01*
X22292143Y-110302200D02*
X22244524Y-110206961D01*
X22244524Y-110206961D02*
X22244524Y-109349819D01*
X24006429Y-109349819D02*
X23530239Y-109349819D01*
X23530239Y-109349819D02*
X23482620Y-109826009D01*
X23482620Y-109826009D02*
X23530239Y-109778390D01*
X23530239Y-109778390D02*
X23625477Y-109730771D01*
X23625477Y-109730771D02*
X23863572Y-109730771D01*
X23863572Y-109730771D02*
X23958810Y-109778390D01*
X23958810Y-109778390D02*
X24006429Y-109826009D01*
X24006429Y-109826009D02*
X24054048Y-109921247D01*
X24054048Y-109921247D02*
X24054048Y-110159342D01*
X24054048Y-110159342D02*
X24006429Y-110254580D01*
X24006429Y-110254580D02*
X23958810Y-110302200D01*
X23958810Y-110302200D02*
X23863572Y-110349819D01*
X23863572Y-110349819D02*
X23625477Y-110349819D01*
X23625477Y-110349819D02*
X23530239Y-110302200D01*
X23530239Y-110302200D02*
X23482620Y-110254580D01*
X24339763Y-109349819D02*
X24673096Y-110349819D01*
X24673096Y-110349819D02*
X25006429Y-109349819D01*
X26244525Y-110349819D02*
X26149287Y-110302200D01*
X26149287Y-110302200D02*
X26101668Y-110254580D01*
X26101668Y-110254580D02*
X26054049Y-110159342D01*
X26054049Y-110159342D02*
X26054049Y-109873628D01*
X26054049Y-109873628D02*
X26101668Y-109778390D01*
X26101668Y-109778390D02*
X26149287Y-109730771D01*
X26149287Y-109730771D02*
X26244525Y-109683152D01*
X26244525Y-109683152D02*
X26387382Y-109683152D01*
X26387382Y-109683152D02*
X26482620Y-109730771D01*
X26482620Y-109730771D02*
X26530239Y-109778390D01*
X26530239Y-109778390D02*
X26577858Y-109873628D01*
X26577858Y-109873628D02*
X26577858Y-110159342D01*
X26577858Y-110159342D02*
X26530239Y-110254580D01*
X26530239Y-110254580D02*
X26482620Y-110302200D01*
X26482620Y-110302200D02*
X26387382Y-110349819D01*
X26387382Y-110349819D02*
X26244525Y-110349819D01*
X27006430Y-109683152D02*
X27006430Y-110349819D01*
X27006430Y-109778390D02*
X27054049Y-109730771D01*
X27054049Y-109730771D02*
X27149287Y-109683152D01*
X27149287Y-109683152D02*
X27292144Y-109683152D01*
X27292144Y-109683152D02*
X27387382Y-109730771D01*
X27387382Y-109730771D02*
X27435001Y-109826009D01*
X27435001Y-109826009D02*
X27435001Y-110349819D01*
X28054049Y-110349819D02*
X27958811Y-110302200D01*
X27958811Y-110302200D02*
X27911192Y-110206961D01*
X27911192Y-110206961D02*
X27911192Y-109349819D01*
X28339764Y-109683152D02*
X28577859Y-110349819D01*
X28815954Y-109683152D02*
X28577859Y-110349819D01*
X28577859Y-110349819D02*
X28482621Y-110587914D01*
X28482621Y-110587914D02*
X28435002Y-110635533D01*
X28435002Y-110635533D02*
X28339764Y-110683152D01*
X30079764Y-113196080D02*
X30079764Y-112096080D01*
X30079764Y-112619890D02*
X30708336Y-112619890D01*
X30708336Y-113196080D02*
X30708336Y-112096080D01*
X31127383Y-112096080D02*
X31389288Y-113196080D01*
X31389288Y-113196080D02*
X31598812Y-112410366D01*
X31598812Y-112410366D02*
X31808336Y-113196080D01*
X31808336Y-113196080D02*
X32070241Y-112096080D01*
X32489288Y-112777033D02*
X33327384Y-112777033D01*
X34427384Y-113196080D02*
X33798812Y-113196080D01*
X34113098Y-113196080D02*
X34113098Y-112096080D01*
X34113098Y-112096080D02*
X34008336Y-112253223D01*
X34008336Y-112253223D02*
X33903574Y-112357985D01*
X33903574Y-112357985D02*
X33798812Y-112410366D01*
X34794050Y-112096080D02*
X35475003Y-112096080D01*
X35475003Y-112096080D02*
X35108336Y-112515128D01*
X35108336Y-112515128D02*
X35265479Y-112515128D01*
X35265479Y-112515128D02*
X35370241Y-112567509D01*
X35370241Y-112567509D02*
X35422622Y-112619890D01*
X35422622Y-112619890D02*
X35475003Y-112724652D01*
X35475003Y-112724652D02*
X35475003Y-112986557D01*
X35475003Y-112986557D02*
X35422622Y-113091319D01*
X35422622Y-113091319D02*
X35370241Y-113143700D01*
X35370241Y-113143700D02*
X35265479Y-113196080D01*
X35265479Y-113196080D02*
X34951193Y-113196080D01*
X34951193Y-113196080D02*
X34846431Y-113143700D01*
X34846431Y-113143700D02*
X34794050Y-113091319D01*
X36155955Y-112096080D02*
X36260717Y-112096080D01*
X36260717Y-112096080D02*
X36365479Y-112148461D01*
X36365479Y-112148461D02*
X36417860Y-112200842D01*
X36417860Y-112200842D02*
X36470241Y-112305604D01*
X36470241Y-112305604D02*
X36522622Y-112515128D01*
X36522622Y-112515128D02*
X36522622Y-112777033D01*
X36522622Y-112777033D02*
X36470241Y-112986557D01*
X36470241Y-112986557D02*
X36417860Y-113091319D01*
X36417860Y-113091319D02*
X36365479Y-113143700D01*
X36365479Y-113143700D02*
X36260717Y-113196080D01*
X36260717Y-113196080D02*
X36155955Y-113196080D01*
X36155955Y-113196080D02*
X36051193Y-113143700D01*
X36051193Y-113143700D02*
X35998812Y-113091319D01*
X35998812Y-113091319D02*
X35946431Y-112986557D01*
X35946431Y-112986557D02*
X35894050Y-112777033D01*
X35894050Y-112777033D02*
X35894050Y-112515128D01*
X35894050Y-112515128D02*
X35946431Y-112305604D01*
X35946431Y-112305604D02*
X35998812Y-112200842D01*
X35998812Y-112200842D02*
X36051193Y-112148461D01*
X36051193Y-112148461D02*
X36155955Y-112096080D01*
X37779764Y-113143700D02*
X37884526Y-113196080D01*
X37884526Y-113196080D02*
X38094050Y-113196080D01*
X38094050Y-113196080D02*
X38198812Y-113143700D01*
X38198812Y-113143700D02*
X38251193Y-113038938D01*
X38251193Y-113038938D02*
X38251193Y-112986557D01*
X38251193Y-112986557D02*
X38198812Y-112881795D01*
X38198812Y-112881795D02*
X38094050Y-112829414D01*
X38094050Y-112829414D02*
X37936907Y-112829414D01*
X37936907Y-112829414D02*
X37832145Y-112777033D01*
X37832145Y-112777033D02*
X37779764Y-112672271D01*
X37779764Y-112672271D02*
X37779764Y-112619890D01*
X37779764Y-112619890D02*
X37832145Y-112515128D01*
X37832145Y-112515128D02*
X37936907Y-112462747D01*
X37936907Y-112462747D02*
X38094050Y-112462747D01*
X38094050Y-112462747D02*
X38198812Y-112515128D01*
X38565478Y-112462747D02*
X38984526Y-112462747D01*
X38722621Y-112096080D02*
X38722621Y-113038938D01*
X38722621Y-113038938D02*
X38775002Y-113143700D01*
X38775002Y-113143700D02*
X38879764Y-113196080D01*
X38879764Y-113196080D02*
X38984526Y-113196080D01*
X39822621Y-113196080D02*
X39822621Y-112619890D01*
X39822621Y-112619890D02*
X39770240Y-112515128D01*
X39770240Y-112515128D02*
X39665478Y-112462747D01*
X39665478Y-112462747D02*
X39455954Y-112462747D01*
X39455954Y-112462747D02*
X39351192Y-112515128D01*
X39822621Y-113143700D02*
X39717859Y-113196080D01*
X39717859Y-113196080D02*
X39455954Y-113196080D01*
X39455954Y-113196080D02*
X39351192Y-113143700D01*
X39351192Y-113143700D02*
X39298811Y-113038938D01*
X39298811Y-113038938D02*
X39298811Y-112934176D01*
X39298811Y-112934176D02*
X39351192Y-112829414D01*
X39351192Y-112829414D02*
X39455954Y-112777033D01*
X39455954Y-112777033D02*
X39717859Y-112777033D01*
X39717859Y-112777033D02*
X39822621Y-112724652D01*
X40817859Y-113143700D02*
X40713097Y-113196080D01*
X40713097Y-113196080D02*
X40503573Y-113196080D01*
X40503573Y-113196080D02*
X40398811Y-113143700D01*
X40398811Y-113143700D02*
X40346430Y-113091319D01*
X40346430Y-113091319D02*
X40294049Y-112986557D01*
X40294049Y-112986557D02*
X40294049Y-112672271D01*
X40294049Y-112672271D02*
X40346430Y-112567509D01*
X40346430Y-112567509D02*
X40398811Y-112515128D01*
X40398811Y-112515128D02*
X40503573Y-112462747D01*
X40503573Y-112462747D02*
X40713097Y-112462747D01*
X40713097Y-112462747D02*
X40817859Y-112515128D01*
X41289287Y-113196080D02*
X41289287Y-112096080D01*
X41394049Y-112777033D02*
X41708335Y-113196080D01*
X41708335Y-112462747D02*
X41289287Y-112881795D01*
X42127382Y-113143700D02*
X42232144Y-113196080D01*
X42232144Y-113196080D02*
X42441668Y-113196080D01*
X42441668Y-113196080D02*
X42546430Y-113143700D01*
X42546430Y-113143700D02*
X42598811Y-113038938D01*
X42598811Y-113038938D02*
X42598811Y-112986557D01*
X42598811Y-112986557D02*
X42546430Y-112881795D01*
X42546430Y-112881795D02*
X42441668Y-112829414D01*
X42441668Y-112829414D02*
X42284525Y-112829414D01*
X42284525Y-112829414D02*
X42179763Y-112777033D01*
X42179763Y-112777033D02*
X42127382Y-112672271D01*
X42127382Y-112672271D02*
X42127382Y-112619890D01*
X42127382Y-112619890D02*
X42179763Y-112515128D01*
X42179763Y-112515128D02*
X42284525Y-112462747D01*
X42284525Y-112462747D02*
X42441668Y-112462747D01*
X42441668Y-112462747D02*
X42546430Y-112515128D01*
X44065477Y-113196080D02*
X43960715Y-113143700D01*
X43960715Y-113143700D02*
X43908334Y-113091319D01*
X43908334Y-113091319D02*
X43855953Y-112986557D01*
X43855953Y-112986557D02*
X43855953Y-112672271D01*
X43855953Y-112672271D02*
X43908334Y-112567509D01*
X43908334Y-112567509D02*
X43960715Y-112515128D01*
X43960715Y-112515128D02*
X44065477Y-112462747D01*
X44065477Y-112462747D02*
X44222620Y-112462747D01*
X44222620Y-112462747D02*
X44327382Y-112515128D01*
X44327382Y-112515128D02*
X44379763Y-112567509D01*
X44379763Y-112567509D02*
X44432144Y-112672271D01*
X44432144Y-112672271D02*
X44432144Y-112986557D01*
X44432144Y-112986557D02*
X44379763Y-113091319D01*
X44379763Y-113091319D02*
X44327382Y-113143700D01*
X44327382Y-113143700D02*
X44222620Y-113196080D01*
X44222620Y-113196080D02*
X44065477Y-113196080D01*
X44903572Y-112462747D02*
X44903572Y-113196080D01*
X44903572Y-112567509D02*
X44955953Y-112515128D01*
X44955953Y-112515128D02*
X45060715Y-112462747D01*
X45060715Y-112462747D02*
X45217858Y-112462747D01*
X45217858Y-112462747D02*
X45322620Y-112515128D01*
X45322620Y-112515128D02*
X45375001Y-112619890D01*
X45375001Y-112619890D02*
X45375001Y-113196080D01*
X46894048Y-113196080D02*
X46789286Y-113143700D01*
X46789286Y-113143700D02*
X46736905Y-113038938D01*
X46736905Y-113038938D02*
X46736905Y-112096080D01*
X47732143Y-113143700D02*
X47627381Y-113196080D01*
X47627381Y-113196080D02*
X47417857Y-113196080D01*
X47417857Y-113196080D02*
X47313095Y-113143700D01*
X47313095Y-113143700D02*
X47260714Y-113038938D01*
X47260714Y-113038938D02*
X47260714Y-112619890D01*
X47260714Y-112619890D02*
X47313095Y-112515128D01*
X47313095Y-112515128D02*
X47417857Y-112462747D01*
X47417857Y-112462747D02*
X47627381Y-112462747D01*
X47627381Y-112462747D02*
X47732143Y-112515128D01*
X47732143Y-112515128D02*
X47784524Y-112619890D01*
X47784524Y-112619890D02*
X47784524Y-112724652D01*
X47784524Y-112724652D02*
X47260714Y-112829414D01*
X48098809Y-112462747D02*
X48517857Y-112462747D01*
X48255952Y-113196080D02*
X48255952Y-112253223D01*
X48255952Y-112253223D02*
X48308333Y-112148461D01*
X48308333Y-112148461D02*
X48413095Y-112096080D01*
X48413095Y-112096080D02*
X48517857Y-112096080D01*
X48727380Y-112462747D02*
X49146428Y-112462747D01*
X48884523Y-112096080D02*
X48884523Y-113038938D01*
X48884523Y-113038938D02*
X48936904Y-113143700D01*
X48936904Y-113143700D02*
X49041666Y-113196080D01*
X49041666Y-113196080D02*
X49146428Y-113196080D01*
X50351189Y-113196080D02*
X50351189Y-112096080D01*
X50822618Y-113196080D02*
X50822618Y-112619890D01*
X50822618Y-112619890D02*
X50770237Y-112515128D01*
X50770237Y-112515128D02*
X50665475Y-112462747D01*
X50665475Y-112462747D02*
X50508332Y-112462747D01*
X50508332Y-112462747D02*
X50403570Y-112515128D01*
X50403570Y-112515128D02*
X50351189Y-112567509D01*
X51765475Y-113143700D02*
X51660713Y-113196080D01*
X51660713Y-113196080D02*
X51451189Y-113196080D01*
X51451189Y-113196080D02*
X51346427Y-113143700D01*
X51346427Y-113143700D02*
X51294046Y-113038938D01*
X51294046Y-113038938D02*
X51294046Y-112619890D01*
X51294046Y-112619890D02*
X51346427Y-112515128D01*
X51346427Y-112515128D02*
X51451189Y-112462747D01*
X51451189Y-112462747D02*
X51660713Y-112462747D01*
X51660713Y-112462747D02*
X51765475Y-112515128D01*
X51765475Y-112515128D02*
X51817856Y-112619890D01*
X51817856Y-112619890D02*
X51817856Y-112724652D01*
X51817856Y-112724652D02*
X51294046Y-112829414D01*
X52760713Y-113196080D02*
X52760713Y-112619890D01*
X52760713Y-112619890D02*
X52708332Y-112515128D01*
X52708332Y-112515128D02*
X52603570Y-112462747D01*
X52603570Y-112462747D02*
X52394046Y-112462747D01*
X52394046Y-112462747D02*
X52289284Y-112515128D01*
X52760713Y-113143700D02*
X52655951Y-113196080D01*
X52655951Y-113196080D02*
X52394046Y-113196080D01*
X52394046Y-113196080D02*
X52289284Y-113143700D01*
X52289284Y-113143700D02*
X52236903Y-113038938D01*
X52236903Y-113038938D02*
X52236903Y-112934176D01*
X52236903Y-112934176D02*
X52289284Y-112829414D01*
X52289284Y-112829414D02*
X52394046Y-112777033D01*
X52394046Y-112777033D02*
X52655951Y-112777033D01*
X52655951Y-112777033D02*
X52760713Y-112724652D01*
X53755951Y-113196080D02*
X53755951Y-112096080D01*
X53755951Y-113143700D02*
X53651189Y-113196080D01*
X53651189Y-113196080D02*
X53441665Y-113196080D01*
X53441665Y-113196080D02*
X53336903Y-113143700D01*
X53336903Y-113143700D02*
X53284522Y-113091319D01*
X53284522Y-113091319D02*
X53232141Y-112986557D01*
X53232141Y-112986557D02*
X53232141Y-112672271D01*
X53232141Y-112672271D02*
X53284522Y-112567509D01*
X53284522Y-112567509D02*
X53336903Y-112515128D01*
X53336903Y-112515128D02*
X53441665Y-112462747D01*
X53441665Y-112462747D02*
X53651189Y-112462747D01*
X53651189Y-112462747D02*
X53755951Y-112515128D01*
X54698808Y-113143700D02*
X54594046Y-113196080D01*
X54594046Y-113196080D02*
X54384522Y-113196080D01*
X54384522Y-113196080D02*
X54279760Y-113143700D01*
X54279760Y-113143700D02*
X54227379Y-113038938D01*
X54227379Y-113038938D02*
X54227379Y-112619890D01*
X54227379Y-112619890D02*
X54279760Y-112515128D01*
X54279760Y-112515128D02*
X54384522Y-112462747D01*
X54384522Y-112462747D02*
X54594046Y-112462747D01*
X54594046Y-112462747D02*
X54698808Y-112515128D01*
X54698808Y-112515128D02*
X54751189Y-112619890D01*
X54751189Y-112619890D02*
X54751189Y-112724652D01*
X54751189Y-112724652D02*
X54227379Y-112829414D01*
X55222617Y-113196080D02*
X55222617Y-112462747D01*
X55222617Y-112672271D02*
X55274998Y-112567509D01*
X55274998Y-112567509D02*
X55327379Y-112515128D01*
X55327379Y-112515128D02*
X55432141Y-112462747D01*
X55432141Y-112462747D02*
X55536903Y-112462747D01*
X55851188Y-113143700D02*
X55955950Y-113196080D01*
X55955950Y-113196080D02*
X56165474Y-113196080D01*
X56165474Y-113196080D02*
X56270236Y-113143700D01*
X56270236Y-113143700D02*
X56322617Y-113038938D01*
X56322617Y-113038938D02*
X56322617Y-112986557D01*
X56322617Y-112986557D02*
X56270236Y-112881795D01*
X56270236Y-112881795D02*
X56165474Y-112829414D01*
X56165474Y-112829414D02*
X56008331Y-112829414D01*
X56008331Y-112829414D02*
X55903569Y-112777033D01*
X55903569Y-112777033D02*
X55851188Y-112672271D01*
X55851188Y-112672271D02*
X55851188Y-112619890D01*
X55851188Y-112619890D02*
X55903569Y-112515128D01*
X55903569Y-112515128D02*
X56008331Y-112462747D01*
X56008331Y-112462747D02*
X56165474Y-112462747D01*
X56165474Y-112462747D02*
X56270236Y-112515128D01*
X95276905Y-25086080D02*
X95276905Y-25976557D01*
X95276905Y-25976557D02*
X95329286Y-26081319D01*
X95329286Y-26081319D02*
X95381667Y-26133700D01*
X95381667Y-26133700D02*
X95486429Y-26186080D01*
X95486429Y-26186080D02*
X95695953Y-26186080D01*
X95695953Y-26186080D02*
X95800715Y-26133700D01*
X95800715Y-26133700D02*
X95853096Y-26081319D01*
X95853096Y-26081319D02*
X95905477Y-25976557D01*
X95905477Y-25976557D02*
X95905477Y-25086080D01*
X96376905Y-26133700D02*
X96534048Y-26186080D01*
X96534048Y-26186080D02*
X96795953Y-26186080D01*
X96795953Y-26186080D02*
X96900715Y-26133700D01*
X96900715Y-26133700D02*
X96953096Y-26081319D01*
X96953096Y-26081319D02*
X97005477Y-25976557D01*
X97005477Y-25976557D02*
X97005477Y-25871795D01*
X97005477Y-25871795D02*
X96953096Y-25767033D01*
X96953096Y-25767033D02*
X96900715Y-25714652D01*
X96900715Y-25714652D02*
X96795953Y-25662271D01*
X96795953Y-25662271D02*
X96586429Y-25609890D01*
X96586429Y-25609890D02*
X96481667Y-25557509D01*
X96481667Y-25557509D02*
X96429286Y-25505128D01*
X96429286Y-25505128D02*
X96376905Y-25400366D01*
X96376905Y-25400366D02*
X96376905Y-25295604D01*
X96376905Y-25295604D02*
X96429286Y-25190842D01*
X96429286Y-25190842D02*
X96481667Y-25138461D01*
X96481667Y-25138461D02*
X96586429Y-25086080D01*
X96586429Y-25086080D02*
X96848334Y-25086080D01*
X96848334Y-25086080D02*
X97005477Y-25138461D01*
X97843572Y-25609890D02*
X98000715Y-25662271D01*
X98000715Y-25662271D02*
X98053096Y-25714652D01*
X98053096Y-25714652D02*
X98105477Y-25819414D01*
X98105477Y-25819414D02*
X98105477Y-25976557D01*
X98105477Y-25976557D02*
X98053096Y-26081319D01*
X98053096Y-26081319D02*
X98000715Y-26133700D01*
X98000715Y-26133700D02*
X97895953Y-26186080D01*
X97895953Y-26186080D02*
X97476905Y-26186080D01*
X97476905Y-26186080D02*
X97476905Y-25086080D01*
X97476905Y-25086080D02*
X97843572Y-25086080D01*
X97843572Y-25086080D02*
X97948334Y-25138461D01*
X97948334Y-25138461D02*
X98000715Y-25190842D01*
X98000715Y-25190842D02*
X98053096Y-25295604D01*
X98053096Y-25295604D02*
X98053096Y-25400366D01*
X98053096Y-25400366D02*
X98000715Y-25505128D01*
X98000715Y-25505128D02*
X97948334Y-25557509D01*
X97948334Y-25557509D02*
X97843572Y-25609890D01*
X97843572Y-25609890D02*
X97476905Y-25609890D01*
X99257857Y-25452747D02*
X99676905Y-25452747D01*
X99415000Y-25086080D02*
X99415000Y-26028938D01*
X99415000Y-26028938D02*
X99467381Y-26133700D01*
X99467381Y-26133700D02*
X99572143Y-26186080D01*
X99572143Y-26186080D02*
X99676905Y-26186080D01*
X100043571Y-26186080D02*
X100043571Y-25086080D01*
X100515000Y-26186080D02*
X100515000Y-25609890D01*
X100515000Y-25609890D02*
X100462619Y-25505128D01*
X100462619Y-25505128D02*
X100357857Y-25452747D01*
X100357857Y-25452747D02*
X100200714Y-25452747D01*
X100200714Y-25452747D02*
X100095952Y-25505128D01*
X100095952Y-25505128D02*
X100043571Y-25557509D01*
X101038809Y-26186080D02*
X101038809Y-25452747D01*
X101038809Y-25086080D02*
X100986428Y-25138461D01*
X100986428Y-25138461D02*
X101038809Y-25190842D01*
X101038809Y-25190842D02*
X101091190Y-25138461D01*
X101091190Y-25138461D02*
X101038809Y-25086080D01*
X101038809Y-25086080D02*
X101038809Y-25190842D01*
X101510238Y-26133700D02*
X101615000Y-26186080D01*
X101615000Y-26186080D02*
X101824524Y-26186080D01*
X101824524Y-26186080D02*
X101929286Y-26133700D01*
X101929286Y-26133700D02*
X101981667Y-26028938D01*
X101981667Y-26028938D02*
X101981667Y-25976557D01*
X101981667Y-25976557D02*
X101929286Y-25871795D01*
X101929286Y-25871795D02*
X101824524Y-25819414D01*
X101824524Y-25819414D02*
X101667381Y-25819414D01*
X101667381Y-25819414D02*
X101562619Y-25767033D01*
X101562619Y-25767033D02*
X101510238Y-25662271D01*
X101510238Y-25662271D02*
X101510238Y-25609890D01*
X101510238Y-25609890D02*
X101562619Y-25505128D01*
X101562619Y-25505128D02*
X101667381Y-25452747D01*
X101667381Y-25452747D02*
X101824524Y-25452747D01*
X101824524Y-25452747D02*
X101929286Y-25505128D01*
X103186428Y-25452747D02*
X103395952Y-26186080D01*
X103395952Y-26186080D02*
X103605476Y-25662271D01*
X103605476Y-25662271D02*
X103815000Y-26186080D01*
X103815000Y-26186080D02*
X104024524Y-25452747D01*
X104915000Y-26186080D02*
X104915000Y-25609890D01*
X104915000Y-25609890D02*
X104862619Y-25505128D01*
X104862619Y-25505128D02*
X104757857Y-25452747D01*
X104757857Y-25452747D02*
X104548333Y-25452747D01*
X104548333Y-25452747D02*
X104443571Y-25505128D01*
X104915000Y-26133700D02*
X104810238Y-26186080D01*
X104810238Y-26186080D02*
X104548333Y-26186080D01*
X104548333Y-26186080D02*
X104443571Y-26133700D01*
X104443571Y-26133700D02*
X104391190Y-26028938D01*
X104391190Y-26028938D02*
X104391190Y-25924176D01*
X104391190Y-25924176D02*
X104443571Y-25819414D01*
X104443571Y-25819414D02*
X104548333Y-25767033D01*
X104548333Y-25767033D02*
X104810238Y-25767033D01*
X104810238Y-25767033D02*
X104915000Y-25714652D01*
X105334047Y-25452747D02*
X105595952Y-26186080D01*
X105857857Y-25452747D02*
X105595952Y-26186080D01*
X105595952Y-26186080D02*
X105491190Y-26447985D01*
X105491190Y-26447985D02*
X105438809Y-26500366D01*
X105438809Y-26500366D02*
X105334047Y-26552747D01*
X107534047Y-26186080D02*
X107534047Y-25347985D01*
X107324523Y-25557509D02*
X107534047Y-25347985D01*
X107534047Y-25347985D02*
X107743571Y-25557509D01*
X53208332Y-23279294D02*
X53741665Y-23279294D01*
X53970237Y-24117389D02*
X53208332Y-24117389D01*
X53208332Y-24117389D02*
X53208332Y-22517389D01*
X53208332Y-22517389D02*
X53970237Y-22517389D01*
X54579760Y-24041199D02*
X54808332Y-24117389D01*
X54808332Y-24117389D02*
X55189284Y-24117389D01*
X55189284Y-24117389D02*
X55341665Y-24041199D01*
X55341665Y-24041199D02*
X55417856Y-23965008D01*
X55417856Y-23965008D02*
X55494046Y-23812627D01*
X55494046Y-23812627D02*
X55494046Y-23660246D01*
X55494046Y-23660246D02*
X55417856Y-23507865D01*
X55417856Y-23507865D02*
X55341665Y-23431675D01*
X55341665Y-23431675D02*
X55189284Y-23355484D01*
X55189284Y-23355484D02*
X54884522Y-23279294D01*
X54884522Y-23279294D02*
X54732141Y-23203103D01*
X54732141Y-23203103D02*
X54655951Y-23126913D01*
X54655951Y-23126913D02*
X54579760Y-22974532D01*
X54579760Y-22974532D02*
X54579760Y-22822151D01*
X54579760Y-22822151D02*
X54655951Y-22669770D01*
X54655951Y-22669770D02*
X54732141Y-22593579D01*
X54732141Y-22593579D02*
X54884522Y-22517389D01*
X54884522Y-22517389D02*
X55265475Y-22517389D01*
X55265475Y-22517389D02*
X55494046Y-22593579D01*
X56179761Y-24117389D02*
X56179761Y-22517389D01*
X56179761Y-22517389D02*
X56789285Y-22517389D01*
X56789285Y-22517389D02*
X56941666Y-22593579D01*
X56941666Y-22593579D02*
X57017856Y-22669770D01*
X57017856Y-22669770D02*
X57094047Y-22822151D01*
X57094047Y-22822151D02*
X57094047Y-23050722D01*
X57094047Y-23050722D02*
X57017856Y-23203103D01*
X57017856Y-23203103D02*
X56941666Y-23279294D01*
X56941666Y-23279294D02*
X56789285Y-23355484D01*
X56789285Y-23355484D02*
X56179761Y-23355484D01*
X57627380Y-22517389D02*
X58617856Y-22517389D01*
X58617856Y-22517389D02*
X58084523Y-23126913D01*
X58084523Y-23126913D02*
X58313094Y-23126913D01*
X58313094Y-23126913D02*
X58465475Y-23203103D01*
X58465475Y-23203103D02*
X58541666Y-23279294D01*
X58541666Y-23279294D02*
X58617856Y-23431675D01*
X58617856Y-23431675D02*
X58617856Y-23812627D01*
X58617856Y-23812627D02*
X58541666Y-23965008D01*
X58541666Y-23965008D02*
X58465475Y-24041199D01*
X58465475Y-24041199D02*
X58313094Y-24117389D01*
X58313094Y-24117389D02*
X57855951Y-24117389D01*
X57855951Y-24117389D02*
X57703570Y-24041199D01*
X57703570Y-24041199D02*
X57627380Y-23965008D01*
X59227380Y-22669770D02*
X59303571Y-22593579D01*
X59303571Y-22593579D02*
X59455952Y-22517389D01*
X59455952Y-22517389D02*
X59836904Y-22517389D01*
X59836904Y-22517389D02*
X59989285Y-22593579D01*
X59989285Y-22593579D02*
X60065476Y-22669770D01*
X60065476Y-22669770D02*
X60141666Y-22822151D01*
X60141666Y-22822151D02*
X60141666Y-22974532D01*
X60141666Y-22974532D02*
X60065476Y-23203103D01*
X60065476Y-23203103D02*
X59151190Y-24117389D01*
X59151190Y-24117389D02*
X60141666Y-24117389D01*
X62046429Y-23507865D02*
X63265477Y-23507865D01*
X62960715Y-23812627D02*
X63265477Y-23507865D01*
X63265477Y-23507865D02*
X62960715Y-23203103D01*
X62351191Y-23203103D02*
X62046429Y-23507865D01*
X62046429Y-23507865D02*
X62351191Y-23812627D01*
X65246429Y-24117389D02*
X65246429Y-22517389D01*
X65246429Y-23279294D02*
X66160715Y-23279294D01*
X66160715Y-24117389D02*
X66160715Y-22517389D01*
X66770238Y-22517389D02*
X67151190Y-24117389D01*
X67151190Y-24117389D02*
X67455952Y-22974532D01*
X67455952Y-22974532D02*
X67760714Y-24117389D01*
X67760714Y-24117389D02*
X68141667Y-22517389D01*
X68751190Y-23507865D02*
X69970238Y-23507865D01*
X71570237Y-24117389D02*
X70655951Y-24117389D01*
X71113094Y-24117389D02*
X71113094Y-22517389D01*
X71113094Y-22517389D02*
X70960713Y-22745960D01*
X70960713Y-22745960D02*
X70808332Y-22898341D01*
X70808332Y-22898341D02*
X70655951Y-22974532D01*
X72103571Y-22517389D02*
X73094047Y-22517389D01*
X73094047Y-22517389D02*
X72560714Y-23126913D01*
X72560714Y-23126913D02*
X72789285Y-23126913D01*
X72789285Y-23126913D02*
X72941666Y-23203103D01*
X72941666Y-23203103D02*
X73017857Y-23279294D01*
X73017857Y-23279294D02*
X73094047Y-23431675D01*
X73094047Y-23431675D02*
X73094047Y-23812627D01*
X73094047Y-23812627D02*
X73017857Y-23965008D01*
X73017857Y-23965008D02*
X72941666Y-24041199D01*
X72941666Y-24041199D02*
X72789285Y-24117389D01*
X72789285Y-24117389D02*
X72332142Y-24117389D01*
X72332142Y-24117389D02*
X72179761Y-24041199D01*
X72179761Y-24041199D02*
X72103571Y-23965008D01*
X74084524Y-22517389D02*
X74236905Y-22517389D01*
X74236905Y-22517389D02*
X74389286Y-22593579D01*
X74389286Y-22593579D02*
X74465476Y-22669770D01*
X74465476Y-22669770D02*
X74541667Y-22822151D01*
X74541667Y-22822151D02*
X74617857Y-23126913D01*
X74617857Y-23126913D02*
X74617857Y-23507865D01*
X74617857Y-23507865D02*
X74541667Y-23812627D01*
X74541667Y-23812627D02*
X74465476Y-23965008D01*
X74465476Y-23965008D02*
X74389286Y-24041199D01*
X74389286Y-24041199D02*
X74236905Y-24117389D01*
X74236905Y-24117389D02*
X74084524Y-24117389D01*
X74084524Y-24117389D02*
X73932143Y-24041199D01*
X73932143Y-24041199D02*
X73855952Y-23965008D01*
X73855952Y-23965008D02*
X73779762Y-23812627D01*
X73779762Y-23812627D02*
X73703571Y-23507865D01*
X73703571Y-23507865D02*
X73703571Y-23126913D01*
X73703571Y-23126913D02*
X73779762Y-22822151D01*
X73779762Y-22822151D02*
X73855952Y-22669770D01*
X73855952Y-22669770D02*
X73932143Y-22593579D01*
X73932143Y-22593579D02*
X74084524Y-22517389D01*
X38436666Y-25644819D02*
X38436666Y-26359104D01*
X38436666Y-26359104D02*
X38389047Y-26501961D01*
X38389047Y-26501961D02*
X38293809Y-26597200D01*
X38293809Y-26597200D02*
X38150952Y-26644819D01*
X38150952Y-26644819D02*
X38055714Y-26644819D01*
X38674762Y-26740057D02*
X39436666Y-26740057D01*
X39627143Y-26597200D02*
X39770000Y-26644819D01*
X39770000Y-26644819D02*
X40008095Y-26644819D01*
X40008095Y-26644819D02*
X40103333Y-26597200D01*
X40103333Y-26597200D02*
X40150952Y-26549580D01*
X40150952Y-26549580D02*
X40198571Y-26454342D01*
X40198571Y-26454342D02*
X40198571Y-26359104D01*
X40198571Y-26359104D02*
X40150952Y-26263866D01*
X40150952Y-26263866D02*
X40103333Y-26216247D01*
X40103333Y-26216247D02*
X40008095Y-26168628D01*
X40008095Y-26168628D02*
X39817619Y-26121009D01*
X39817619Y-26121009D02*
X39722381Y-26073390D01*
X39722381Y-26073390D02*
X39674762Y-26025771D01*
X39674762Y-26025771D02*
X39627143Y-25930533D01*
X39627143Y-25930533D02*
X39627143Y-25835295D01*
X39627143Y-25835295D02*
X39674762Y-25740057D01*
X39674762Y-25740057D02*
X39722381Y-25692438D01*
X39722381Y-25692438D02*
X39817619Y-25644819D01*
X39817619Y-25644819D02*
X40055714Y-25644819D01*
X40055714Y-25644819D02*
X40198571Y-25692438D01*
X40627143Y-26644819D02*
X40627143Y-25644819D01*
X40627143Y-26121009D02*
X41198571Y-26121009D01*
X41198571Y-26644819D02*
X41198571Y-25644819D01*
X41674762Y-26644819D02*
X41674762Y-25644819D01*
X42150952Y-26121009D02*
X42484285Y-26121009D01*
X42627142Y-26644819D02*
X42150952Y-26644819D01*
X42150952Y-26644819D02*
X42150952Y-25644819D01*
X42150952Y-25644819D02*
X42627142Y-25644819D01*
X43531904Y-26644819D02*
X43055714Y-26644819D01*
X43055714Y-26644819D02*
X43055714Y-25644819D01*
X43865238Y-26644819D02*
X43865238Y-25644819D01*
X43865238Y-25644819D02*
X44103333Y-25644819D01*
X44103333Y-25644819D02*
X44246190Y-25692438D01*
X44246190Y-25692438D02*
X44341428Y-25787676D01*
X44341428Y-25787676D02*
X44389047Y-25882914D01*
X44389047Y-25882914D02*
X44436666Y-26073390D01*
X44436666Y-26073390D02*
X44436666Y-26216247D01*
X44436666Y-26216247D02*
X44389047Y-26406723D01*
X44389047Y-26406723D02*
X44341428Y-26501961D01*
X44341428Y-26501961D02*
X44246190Y-26597200D01*
X44246190Y-26597200D02*
X44103333Y-26644819D01*
X44103333Y-26644819D02*
X43865238Y-26644819D01*
X86462618Y-29869819D02*
X86462618Y-30584104D01*
X86462618Y-30584104D02*
X86414999Y-30726961D01*
X86414999Y-30726961D02*
X86319761Y-30822200D01*
X86319761Y-30822200D02*
X86176904Y-30869819D01*
X86176904Y-30869819D02*
X86081666Y-30869819D01*
X86700714Y-30965057D02*
X87462618Y-30965057D01*
X87700714Y-30346009D02*
X88034047Y-30346009D01*
X88176904Y-30869819D02*
X87700714Y-30869819D01*
X87700714Y-30869819D02*
X87700714Y-29869819D01*
X87700714Y-29869819D02*
X88176904Y-29869819D01*
X88557857Y-30822200D02*
X88700714Y-30869819D01*
X88700714Y-30869819D02*
X88938809Y-30869819D01*
X88938809Y-30869819D02*
X89034047Y-30822200D01*
X89034047Y-30822200D02*
X89081666Y-30774580D01*
X89081666Y-30774580D02*
X89129285Y-30679342D01*
X89129285Y-30679342D02*
X89129285Y-30584104D01*
X89129285Y-30584104D02*
X89081666Y-30488866D01*
X89081666Y-30488866D02*
X89034047Y-30441247D01*
X89034047Y-30441247D02*
X88938809Y-30393628D01*
X88938809Y-30393628D02*
X88748333Y-30346009D01*
X88748333Y-30346009D02*
X88653095Y-30298390D01*
X88653095Y-30298390D02*
X88605476Y-30250771D01*
X88605476Y-30250771D02*
X88557857Y-30155533D01*
X88557857Y-30155533D02*
X88557857Y-30060295D01*
X88557857Y-30060295D02*
X88605476Y-29965057D01*
X88605476Y-29965057D02*
X88653095Y-29917438D01*
X88653095Y-29917438D02*
X88748333Y-29869819D01*
X88748333Y-29869819D02*
X88986428Y-29869819D01*
X88986428Y-29869819D02*
X89129285Y-29917438D01*
X89557857Y-30869819D02*
X89557857Y-29869819D01*
X89557857Y-29869819D02*
X89938809Y-29869819D01*
X89938809Y-29869819D02*
X90034047Y-29917438D01*
X90034047Y-29917438D02*
X90081666Y-29965057D01*
X90081666Y-29965057D02*
X90129285Y-30060295D01*
X90129285Y-30060295D02*
X90129285Y-30203152D01*
X90129285Y-30203152D02*
X90081666Y-30298390D01*
X90081666Y-30298390D02*
X90034047Y-30346009D01*
X90034047Y-30346009D02*
X89938809Y-30393628D01*
X89938809Y-30393628D02*
X89557857Y-30393628D01*
X90319762Y-30965057D02*
X91081666Y-30965057D01*
X91795952Y-30869819D02*
X91319762Y-30869819D01*
X91319762Y-30869819D02*
X91319762Y-29869819D01*
X11832141Y-82209819D02*
X11832141Y-82924104D01*
X11832141Y-82924104D02*
X11784522Y-83066961D01*
X11784522Y-83066961D02*
X11689284Y-83162200D01*
X11689284Y-83162200D02*
X11546427Y-83209819D01*
X11546427Y-83209819D02*
X11451189Y-83209819D01*
X12070237Y-83305057D02*
X12832141Y-83305057D01*
X13546427Y-82209819D02*
X13070237Y-82209819D01*
X13070237Y-82209819D02*
X13022618Y-82686009D01*
X13022618Y-82686009D02*
X13070237Y-82638390D01*
X13070237Y-82638390D02*
X13165475Y-82590771D01*
X13165475Y-82590771D02*
X13403570Y-82590771D01*
X13403570Y-82590771D02*
X13498808Y-82638390D01*
X13498808Y-82638390D02*
X13546427Y-82686009D01*
X13546427Y-82686009D02*
X13594046Y-82781247D01*
X13594046Y-82781247D02*
X13594046Y-83019342D01*
X13594046Y-83019342D02*
X13546427Y-83114580D01*
X13546427Y-83114580D02*
X13498808Y-83162200D01*
X13498808Y-83162200D02*
X13403570Y-83209819D01*
X13403570Y-83209819D02*
X13165475Y-83209819D01*
X13165475Y-83209819D02*
X13070237Y-83162200D01*
X13070237Y-83162200D02*
X13022618Y-83114580D01*
X13879761Y-82209819D02*
X14213094Y-83209819D01*
X14213094Y-83209819D02*
X14546427Y-82209819D01*
X111767380Y-29869819D02*
X111767380Y-30584104D01*
X111767380Y-30584104D02*
X111719761Y-30726961D01*
X111719761Y-30726961D02*
X111624523Y-30822200D01*
X111624523Y-30822200D02*
X111481666Y-30869819D01*
X111481666Y-30869819D02*
X111386428Y-30869819D01*
X112005476Y-30965057D02*
X112767380Y-30965057D01*
X113005476Y-30346009D02*
X113338809Y-30346009D01*
X113481666Y-30869819D02*
X113005476Y-30869819D01*
X113005476Y-30869819D02*
X113005476Y-29869819D01*
X113005476Y-29869819D02*
X113481666Y-29869819D01*
X113862619Y-30822200D02*
X114005476Y-30869819D01*
X114005476Y-30869819D02*
X114243571Y-30869819D01*
X114243571Y-30869819D02*
X114338809Y-30822200D01*
X114338809Y-30822200D02*
X114386428Y-30774580D01*
X114386428Y-30774580D02*
X114434047Y-30679342D01*
X114434047Y-30679342D02*
X114434047Y-30584104D01*
X114434047Y-30584104D02*
X114386428Y-30488866D01*
X114386428Y-30488866D02*
X114338809Y-30441247D01*
X114338809Y-30441247D02*
X114243571Y-30393628D01*
X114243571Y-30393628D02*
X114053095Y-30346009D01*
X114053095Y-30346009D02*
X113957857Y-30298390D01*
X113957857Y-30298390D02*
X113910238Y-30250771D01*
X113910238Y-30250771D02*
X113862619Y-30155533D01*
X113862619Y-30155533D02*
X113862619Y-30060295D01*
X113862619Y-30060295D02*
X113910238Y-29965057D01*
X113910238Y-29965057D02*
X113957857Y-29917438D01*
X113957857Y-29917438D02*
X114053095Y-29869819D01*
X114053095Y-29869819D02*
X114291190Y-29869819D01*
X114291190Y-29869819D02*
X114434047Y-29917438D01*
X114862619Y-30869819D02*
X114862619Y-29869819D01*
X114862619Y-29869819D02*
X115243571Y-29869819D01*
X115243571Y-29869819D02*
X115338809Y-29917438D01*
X115338809Y-29917438D02*
X115386428Y-29965057D01*
X115386428Y-29965057D02*
X115434047Y-30060295D01*
X115434047Y-30060295D02*
X115434047Y-30203152D01*
X115434047Y-30203152D02*
X115386428Y-30298390D01*
X115386428Y-30298390D02*
X115338809Y-30346009D01*
X115338809Y-30346009D02*
X115243571Y-30393628D01*
X115243571Y-30393628D02*
X114862619Y-30393628D01*
X115624524Y-30965057D02*
X116386428Y-30965057D01*
X117195952Y-30869819D02*
X116862619Y-30393628D01*
X116624524Y-30869819D02*
X116624524Y-29869819D01*
X116624524Y-29869819D02*
X117005476Y-29869819D01*
X117005476Y-29869819D02*
X117100714Y-29917438D01*
X117100714Y-29917438D02*
X117148333Y-29965057D01*
X117148333Y-29965057D02*
X117195952Y-30060295D01*
X117195952Y-30060295D02*
X117195952Y-30203152D01*
X117195952Y-30203152D02*
X117148333Y-30298390D01*
X117148333Y-30298390D02*
X117100714Y-30346009D01*
X117100714Y-30346009D02*
X117005476Y-30393628D01*
X117005476Y-30393628D02*
X116624524Y-30393628D01*
%TO.C,J_SHIELD*%
D11*
X5580000Y-59720000D02*
X5580000Y-71400000D01*
X5580000Y-71400000D02*
X11930000Y-71400000D01*
X10030000Y-30510000D02*
X10030000Y-39650000D01*
X10030000Y-39650000D02*
X11930000Y-39650000D01*
X11930000Y-27330000D02*
X11930000Y-30510000D01*
X11930000Y-30510000D02*
X10030000Y-30510000D01*
X11930000Y-39650000D02*
X11930000Y-59720000D01*
X11930000Y-59720000D02*
X5580000Y-59720000D01*
X11930000Y-71400000D02*
X11930000Y-80930000D01*
X11930000Y-80930000D02*
X76580000Y-80930000D01*
X76580000Y-80930000D02*
X78230000Y-79280000D01*
X78230000Y-27330000D02*
X11930000Y-27330000D01*
X78230000Y-30000000D02*
X78230000Y-27330000D01*
X78230000Y-67850000D02*
X80770000Y-65310000D01*
X78230000Y-79280000D02*
X78230000Y-67850000D01*
X80770000Y-32540000D02*
X78230000Y-30000000D01*
X80770000Y-65310000D02*
X80770000Y-32540000D01*
%TO.C,J_ESP_L*%
X87585000Y-34455000D02*
X87585000Y-70075000D01*
X87585000Y-34455000D02*
X90245000Y-34455000D01*
X87585000Y-70075000D02*
X90245000Y-70075000D01*
X88915000Y-31855000D02*
X90245000Y-31855000D01*
X90245000Y-31855000D02*
X90245000Y-33185000D01*
X90245000Y-34455000D02*
X90245000Y-70075000D01*
%TO.C,J_5V*%
X7774999Y-83755000D02*
X18174999Y-83755000D01*
X7774999Y-86775000D02*
X18174999Y-86775000D01*
X7774999Y-91675000D02*
X18174999Y-91675000D01*
X7774999Y-93175000D02*
X18174999Y-93175000D01*
X7774999Y-93795000D02*
X7774999Y-83755000D01*
X10134999Y-93795000D02*
X7774999Y-93795000D01*
X18174999Y-83755000D02*
X18174999Y-93795000D01*
X18174999Y-93795000D02*
X10734999Y-93795000D01*
X10434999Y-93795000D02*
X10874999Y-94405000D01*
X9994999Y-94405000D01*
X10434999Y-93795000D01*
G36*
X10874999Y-94405000D02*
G01*
X9994999Y-94405000D01*
X10434999Y-93795000D01*
X10874999Y-94405000D01*
G37*
%TO.C,J_ESP_R*%
X112985000Y-34455000D02*
X112985000Y-70075000D01*
X112985000Y-34455000D02*
X115645000Y-34455000D01*
X112985000Y-70075000D02*
X115645000Y-70075000D01*
X114315000Y-31855000D02*
X115645000Y-31855000D01*
X115645000Y-31855000D02*
X115645000Y-33185000D01*
X115645000Y-34455000D02*
X115645000Y-70075000D01*
%TD*%
M02*
